<svg xmlns="http://www.w3.org/2000/svg" width="618" height="605" fill="none">
  <g clip-path="url(#a)">
    <path fill="#CCB79B" d="M0 452a5 5 0 0 1 5-5h607a5 5 0 0 1 5 5v138c0 8.284-6.716 15-15 15H15c-8.284 0-15-6.716-15-15V452Z"/>
    <path fill="#fff" fill-opacity=".1" d="M0 452a5 5 0 0 1 5-5h607a5 5 0 0 1 5 5v138c0 8.284-6.716 15-15 15H15c-8.284 0-15-6.716-15-15V452Z"/>
    <path fill="#fff" d="m40.824 240.905 21.766-26.854-21.767 26.854Z"/>
    <path fill="#DADBD8" d="M62.59 214.051c.193.157-4.522 6.296-10.532 13.712-6.012 7.416-11.04 13.3-11.235 13.142-.193-.157 4.521-6.296 10.533-13.712 6.009-7.414 11.04-13.3 11.233-13.142Z"/>
    <path fill="#F3F2F1" d="M362.232 589.096c-12.624 0-22.857 3.509-22.857 7.839 0 4.329 10.233 7.838 22.857 7.838 12.623 0 22.856-3.509 22.856-7.838 0-4.33-10.233-7.839-22.856-7.839Z"/>
    <path fill="#E7E8E5" d="M383.729 596.435s-2.012 6.628-21.876 6.765c-19.864.136-21.944-6.208-21.944-6.208s11.526 3.722 21.442 3.24c9.916-.48 22.378-3.797 22.378-3.797Z"/>
    <path fill="#F3F2F1" d="M318.548 558.867c.608-6.29 7.276-11.786 16.508-15.519a43.175 43.175 0 0 1 4.669-1.648c6.622-2.026 14.426-3.18 22.78-3.18 23.056 0 41.908 8.905 43.32 20.135.107.71.126 1.43.055 2.146 0 .182-.032.363-.055.544 0 2.14-3.237 25.903-20.261 34.956-13.932 7.411-27.611 8.346-42.544 2.647-2.812-1.075-5.331-2.863-8.093-4.805-16.446-11.558-16.379-32.948-16.379-32.948v-2.328Z"/>
    <path fill="#DADBD8" d="M362.232 541.312c22.528 0 40.792 8.338 40.792 18.621 0 4.427-3.384 8.488-9.032 11.684-6.103-4.414-13.64-6.774-21.113-8.138-8.119-1.483-16.538-1.931-24.603-.22-6.429 1.365-12.647 4.189-17.583 8.485-5.781-3.215-9.254-7.315-9.254-11.811 0-10.283 18.264-18.621 40.793-18.621Z"/>
    <path fill="#DADBD8" d="M405.915 560.005s0 .094-.022.271c-.022.179-.029.448-.048.795-.022.176-.057.369-.092.583-.03.234-.073.466-.128.695l-.209.799c-.077.287-.204.572-.319.887a14.916 14.916 0 0 1-2.509 4.119 23.538 23.538 0 0 1-4.789 4.242 38.471 38.471 0 0 1-6.828 3.708 57.982 57.982 0 0 1-8.459 2.863 75.689 75.689 0 0 1-9.713 1.795 87.735 87.735 0 0 1-21.164 0c-3.264-.393-6.499-1-9.684-1.815a57.543 57.543 0 0 1-8.459-2.862 39.063 39.063 0 0 1-6.832-3.707 23.802 23.802 0 0 1-4.789-4.243 15.037 15.037 0 0 1-2.499-4.109c-.108-.318-.236-.605-.319-.888l-.213-.798c-.108-.499-.159-.932-.216-1.272-.057-.34-.039-.611-.048-.795a3.356 3.356 0 0 0-.021-.27v.27c0 .177.018.451.034.798.016.346.096.783.2 1.272.064.249.134.518.204.805.07.287.2.578.318.894a14.966 14.966 0 0 0 2.497 4.153 23.695 23.695 0 0 0 4.792 4.281 38.565 38.565 0 0 0 6.832 3.75 57.577 57.577 0 0 0 8.475 2.861 76.22 76.22 0 0 0 9.721 1.829 87.887 87.887 0 0 0 21.207 0 76.22 76.22 0 0 0 9.721-1.829 58.183 58.183 0 0 0 8.476-2.861 38.84 38.84 0 0 0 6.84-3.738 23.569 23.569 0 0 0 4.796-4.28 14.974 14.974 0 0 0 2.496-4.158c.105-.317.229-.606.319-.893.089-.286.142-.553.202-.803.054-.233.094-.466.122-.7.032-.217.064-.411.082-.586 0-.347.026-.613.032-.799a1.516 1.516 0 0 0-.006-.264ZM335.315 594.413l.108.092.336.251c.318.213.725.56 1.314.955a36.7 36.7 0 0 0 5.164 2.938 40.115 40.115 0 0 0 8.348 2.811 55.32 55.32 0 0 0 10.724 1.202c.954.026 1.908 0 2.84-.031a33.314 33.314 0 0 0 2.751-.205c.9-.105 1.777-.215 2.64-.317.861-.102 1.697-.284 2.509-.468a45.826 45.826 0 0 0 8.411-2.62 42.033 42.033 0 0 0 5.308-2.672c.611-.349 1.056-.668 1.371-.861l.35-.232.118-.083-.128.07-.359.216c-.319.188-.769.493-1.384.833a44.481 44.481 0 0 1-5.32 2.621 46.589 46.589 0 0 1-8.399 2.579c-.808.184-1.648.317-2.502.462-.856.142-1.734.25-2.634.317-.9.066-1.81.146-2.738.203-.928.058-1.876.054-2.831.026a55.381 55.381 0 0 1-10.692-1.183 40.748 40.748 0 0 1-8.335-2.767 38.26 38.26 0 0 1-5.177-2.888c-.592-.375-1.021-.712-1.329-.915l-.344-.239-.12-.095Z"/>
    <path fill="#FAFAF9" d="M323.964 562.311c0 8.949 17.136 16.204 38.275 16.204 21.138 0 38.274-7.255 38.274-16.204 0-8.948-17.136-16.203-38.274-16.203-21.139 0-38.275 7.255-38.275 16.203Z"/>
    <path fill="#DADBD8" d="m386.396 564.852.081.109c.482.727-.066 1.882-.933 1.967-.868.087-1.631-.939-1.3-1.745.331-.807 1.595-1 2.152-.331ZM355.357 552.557l.082.109c.482.726-.066 1.881-.932 1.966-.868.087-1.631-.939-1.3-1.746.33-.806 1.593-1 2.15-.329ZM341.527 569.647l.081.109c.483.727-.065 1.881-.933 1.967-.867.085-1.631-.94-1.3-1.746.33-.806 1.594-1 2.152-.33ZM343.641 558.419l.051.069c.304.456-.041 1.183-.587 1.237-.545.054-1.025-.592-.817-1.099.208-.507 1.003-.629 1.353-.207ZM365.987 566.242l.05.067c.304.458-.041 1.184-.586 1.238-.547.054-1.027-.591-.819-1.099.208-.507 1.004-.629 1.355-.206Z"/>
    <path fill="#17282F" d="M617.159 446.304c0 .192-138.167.347-308.564.347-170.458 0-308.595-.155-308.595-.347 0-.192 138.137-.347 308.595-.347 170.397 0 308.564.155 308.564.347Z"/>
    <path fill="#33535F" d="M107.179 518.79c-13.875 0-25.124 3.857-25.124 8.617 0 4.759 11.249 8.617 25.124 8.617 13.876 0 25.124-3.858 25.124-8.617 0-4.76-11.248-8.617-25.124-8.617Z"/>
    <path fill="#20353D" d="M106.072 534.296c-16.884 0-21.736-4.332-23.012-6.095.98.544 1.972 1.024 3 1.418 7.09 2.705 13.919 4.05 20.626 4.05 7.875 0 15.583-1.856 23.333-5.543-1.763 2.094-7.213 6.057-23.256 6.167l-.691.003Z"/>
    <path fill="#33535F" d="M59.16 485.561c.669-6.914 8-12.954 18.148-17.058a47.016 47.016 0 0 1 5.132-1.811c7.278-2.227 15.856-3.496 25.04-3.496 25.344 0 46.067 9.788 47.619 22.132.117.781.137 1.574.06 2.359 0 .2-.035.398-.06.598 0 2.352-3.558 28.474-22.271 38.426-15.316 8.145-30.351 9.173-46.767 2.908-3.09-1.182-5.859-3.146-8.897-5.282-18.077-12.704-18.003-36.216-18.003-36.216v-2.56Z"/>
    <path fill="#20353D" d="M72.511 499.716c-6.355-3.533-10.172-8.04-10.172-12.983 0-11.302 20.076-20.468 44.84-20.468 24.764 0 44.841 9.166 44.841 20.468 0 4.866-3.72 9.329-9.928 12.843-6.709-4.852-14.994-7.445-23.209-8.945-4.92-.899-9.942-1.451-14.942-1.451-4.07 0-8.124.365-12.101 1.21-7.069 1.5-13.903 4.603-19.329 9.326Z"/>
    <path fill="#17282F" d="M155.197 486.813s0 .101-.024.298c-.025.196-.032.493-.053.873-.024.193-.063.405-.101.64a7.62 7.62 0 0 1-.14.765c-.07.273-.147.563-.231.877-.084.315-.224.63-.349.977a16.435 16.435 0 0 1-2.758 4.526 25.873 25.873 0 0 1-5.265 4.664 42.33 42.33 0 0 1-7.505 4.076 63.381 63.381 0 0 1-9.299 3.145 83.185 83.185 0 0 1-10.676 1.977 96.831 96.831 0 0 1-23.265 0 83.259 83.259 0 0 1-10.645-1.996 63.748 63.748 0 0 1-9.299-3.147 42.793 42.793 0 0 1-7.508-4.076 26.107 26.107 0 0 1-5.265-4.664 16.493 16.493 0 0 1-2.748-4.516c-.119-.349-.258-.664-.35-.975l-.233-.879c-.12-.547-.175-1.024-.238-1.397-.063-.374-.042-.672-.052-.874-.011-.203-.025-.298-.025-.298v.298c0 .195.021.497.039.877.017.381.104.86.22 1.399.07.273.146.569.224.883.076.315.22.638.349.983a16.413 16.413 0 0 0 2.744 4.565 25.953 25.953 0 0 0 5.269 4.706 42.314 42.314 0 0 0 7.508 4.121 63.09 63.09 0 0 0 9.316 3.147c3.516.9 7.085 1.572 10.688 2.011a96.586 96.586 0 0 0 23.309 0 84.112 84.112 0 0 0 10.687-2.011 63.716 63.716 0 0 0 9.316-3.147 42.454 42.454 0 0 0 7.519-4.106 25.979 25.979 0 0 0 5.272-4.706 16.462 16.462 0 0 0 2.744-4.569c.116-.349.252-.668.349-.983.099-.315.158-.608.224-.884.059-.253.103-.51.134-.769.034-.237.069-.451.09-.643 0-.381.028-.674.035-.877.007-.203-.007-.291-.007-.291ZM77.59 524.635l.12.101.37.276c.35.235.797.614 1.444 1.048a40.21 40.21 0 0 0 5.677 3.231 44.14 44.14 0 0 0 9.177 3.09 60.757 60.757 0 0 0 11.787 1.322c1.049.028 2.098 0 3.122-.035a37.714 37.714 0 0 0 3.024-.224c.989-.116 1.954-.239 2.901-.349.948-.112 1.867-.312 2.759-.515a50.388 50.388 0 0 0 9.246-2.88 46.028 46.028 0 0 0 5.835-2.938c.671-.383 1.16-.733 1.507-.946l.384-.255.129-.092-.14.078-.395.237c-.349.207-.846.542-1.52.916a48.8 48.8 0 0 1-5.849 2.881 51.22 51.22 0 0 1-9.232 2.835c-.888.203-1.811.35-2.752.507-.94.157-1.905.276-2.894.349-.99.073-1.989.161-3.01.224a33.89 33.89 0 0 1-3.111.028 60.933 60.933 0 0 1-11.753-1.3 44.791 44.791 0 0 1-9.162-3.041 42.114 42.114 0 0 1-5.692-3.175c-.65-.412-1.122-.782-1.461-1.006l-.378-.264-.132-.103Z"/>
    <path fill="#DADBD8" d="M65.115 489.348c0 9.836 18.837 17.811 42.072 17.811 23.236 0 42.072-7.975 42.072-17.811 0-9.837-18.836-17.811-42.072-17.811-23.236 0-42.072 7.974-42.072 17.811Z"/>
    <path fill="#17282F" d="M114.759 501.86c-.009.023-.339-.075-.962-.281l-2.71-.932-9.924-3.548c-2.098-.762-4.388-1.594-6.842-2.483-1.236-.459-2.484-.887-3.825-1.415-.335-.157-.675-.345-.965-.654-.296-.293-.487-.814-.348-1.274.133-.474.502-.78.84-.978.347-.206.718-.339 1.062-.452 5.58-2.048 12.058-3.006 18.791-3.798 6.723-.8 13.205-1.569 18.733-3.316.641-.255 1.219-.65 1.394-1.209.195-.566-.053-1.156-.519-1.589-.939-.907-2.281-1.22-3.521-1.612a91.974 91.974 0 0 0-7.023-1.815 94.325 94.325 0 0 0-10.383-1.629l-2.85-.262c-.653-.054-.996-.094-.995-.118.002-.024.346-.031 1.002-.021.656.011 1.623.045 2.866.131 2.486.168 6.083.543 10.46 1.418a88.31 88.31 0 0 1 7.087 1.744c1.225.383 2.657.671 3.781 1.724.559.483.984 1.389.69 2.222-.275.846-1.05 1.323-1.745 1.607-5.702 1.844-12.151 2.605-18.894 3.413-6.729.793-13.148 1.726-18.659 3.712-.675.21-1.377.516-1.514.995-.161.484.378.947.967 1.208 1.248.5 2.556.965 3.768 1.428l6.812 2.561c4.105 1.566 7.451 2.843 9.848 3.756l2.665 1.055c.607.248.921.389.913.412Z"/>
    <path fill="#33535F" d="m133.741 492.141.09.12c.529.798-.072 2.067-1.026 2.162-.953.094-1.793-1.034-1.429-1.919.364-.887 1.753-1.1 2.365-.363ZM99.624 478.626l.09.119c.529.798-.073 2.069-1.026 2.162-.954.095-1.793-1.032-1.43-1.919.365-.886 1.753-1.1 2.366-.362ZM84.42 497.411l.09.121c.53.797-.073 2.067-1.026 2.161-.953.094-1.793-1.033-1.43-1.92.365-.885 1.753-1.099 2.366-.362ZM86.744 485.069l.057.075c.333.503-.046 1.301-.646 1.361-.6.059-1.128-.65-.899-1.208.229-.557 1.103-.692 1.488-.228ZM111.306 493.666l.057.077c.334.502-.046 1.301-.645 1.359-.6.06-1.128-.649-.9-1.207.229-.558 1.103-.691 1.488-.229Z"/>
    <path fill="#F2575D" d="M140.249 517.554c-.408.741-1.27 1.158-2.117 1.19-.845.031-1.673-.276-2.408-.697-.755-.434-1.577-1.018-2.412-.771-.647.191-1.044.816-1.518 1.295-.604.609-1.423 1.02-2.279 1.062-.857.044-1.741-.3-2.287-.961-.546-.661-.567-1.585-.205-2.363.692-1.698 2.339-2.885 4.112-3.353 1.772-.468 3.658-.296 5.444.123 1.093.256 2.208.626 3.012 1.41.802.784 1.2 2.08.658 3.065ZM106.264 523.849c-.56.636-1.493.855-2.326.702-.832-.155-1.574-.634-2.198-1.206-.643-.588-1.318-1.337-2.186-1.278-.673.045-1.197.569-1.764.933-.723.461-1.61.684-2.456.54-.846-.144-1.633-.672-2.022-1.436-.39-.765-.209-1.672.314-2.352 1.045-1.507 2.912-2.305 4.744-2.376 1.833-.071 3.636.509 5.287 1.307 1.011.488 2.018 1.092 2.631 2.033.614.94.719 2.292-.024 3.133Z"/>
    <path fill="#F9A78D" d="M109.967 518.073c.503-.68 1.414-.98 2.257-.899.843.083 1.622.497 2.294 1.013.691.529 1.428 1.217 2.289 1.084.666-.103 1.142-.671 1.676-1.081.68-.523 1.546-.822 2.401-.752.854.071 1.685.53 2.138 1.258.453.728.351 1.647-.111 2.37-.911 1.591-2.702 2.549-4.521 2.777-1.819.228-3.666-.194-5.38-.846-1.049-.398-2.104-.914-2.796-1.798-.693-.884-.914-2.223-.247-3.126ZM79.368 512.825c.686-.496 1.645-.505 2.424-.171.778.333 1.395.963 1.88 1.658.497.714.991 1.593 1.851 1.728.666.104 1.293-.293 1.926-.523.806-.292 1.722-.313 2.515.012.793.327 1.445 1.015 1.657 1.847.21.831-.165 1.676-.824 2.224-1.35 1.24-3.347 1.609-5.15 1.276-1.803-.333-3.435-1.296-4.871-2.436-.879-.698-1.728-1.509-2.12-2.561-.392-1.054-.197-2.395.712-3.054ZM143.127 508.892c.832-.156 1.696.025 2.484.333.81.319 1.709.775 2.5.407.612-.283.912-.961 1.31-1.504l.08-.092a51.541 51.541 0 0 1-3.501 6.263c-.168-.01-.336-.019-.503-.032-1.118-.093-2.276-.295-3.185-.952-.911-.658-1.495-1.882-1.104-2.934.293-.793 1.085-1.333 1.919-1.489Z"/>
    <path fill="#F2575D" d="M67.754 508.948c1.834.001 3.613.651 5.232 1.511.991.528 1.973 1.172 2.55 2.134.576.964.628 2.319-.146 3.133-.585.611-1.526.794-2.352.607-.826-.185-1.548-.693-2.15-1.289-.619-.612-1.264-1.387-2.134-1.363-.516.015-.956.312-1.394.604a43.427 43.427 0 0 1-2.698-4.59 6.724 6.724 0 0 1 3.092-.747ZM187.007 578.728c-12.287 0-22.247 3.416-22.247 7.629 0 4.215 9.96 7.631 22.247 7.631 12.286 0 22.246-3.416 22.246-7.631 0-4.213-9.96-7.629-22.246-7.629Z"/>
    <path fill="#CC4341" d="M186.027 592.457c-14.95.002-19.246-3.834-20.376-5.395.866.482 1.745.907 2.656 1.255 6.277 2.395 12.324 3.587 18.264 3.587 6.972 0 13.797-1.644 20.66-4.909-1.562 1.854-6.387 5.364-20.592 5.461l-.612.001Z"/>
    <path fill="#F2575D" d="M144.488 549.305c.591-6.122 7.083-11.47 16.068-15.105 1.483-.621 3-1.156 4.544-1.603 6.445-1.971 14.041-3.095 22.173-3.095 22.442 0 40.791 8.666 42.166 19.597.104.692.121 1.393.052 2.089 0 .176-.031.352-.052.529 0 2.083-3.151 25.212-19.722 34.025-13.56 7.213-26.873 8.122-41.41 2.575-2.736-1.046-5.187-2.785-7.878-4.677-16.006-11.249-15.941-32.068-15.941-32.068v-2.267Z"/>
    <path fill="#CC4341" d="M156.309 561.838c-5.626-3.129-9.008-7.118-9.008-11.495 0-10.008 17.778-18.124 39.706-18.124 21.928 0 39.705 8.116 39.705 18.124 0 4.309-3.295 8.261-8.792 11.372-5.94-4.296-13.276-6.594-20.549-7.92-4.358-.796-8.804-1.286-13.232-1.286-3.603 0-7.194.324-10.715 1.071-6.259 1.328-12.311 4.077-17.115 8.258Z"/>
    <path fill="#17282F" d="M229.525 550.414s0 .09-.021.264c-.023.172-.028.436-.047.772-.021.171-.056.359-.09.567-.03.228-.071.455-.123.678l-.205.777c-.074.278-.198.557-.31.864a14.507 14.507 0 0 1-2.441 4.008 22.894 22.894 0 0 1-4.663 4.129 37.498 37.498 0 0 1-6.645 3.61 56.24 56.24 0 0 1-8.233 2.786 73.465 73.465 0 0 1-9.455 1.748c-6.841.83-13.757.83-20.599 0a73.223 73.223 0 0 1-9.426-1.767 56.293 56.293 0 0 1-8.234-2.786 37.799 37.799 0 0 1-6.649-3.609 23.053 23.053 0 0 1-4.661-4.129 14.648 14.648 0 0 1-2.434-4c-.105-.309-.228-.588-.309-.864l-.207-.777c-.105-.485-.154-.906-.21-1.237-.056-.332-.038-.594-.047-.775-.009-.178-.021-.262-.021-.262v.262c0 .174.018.441.033.777.016.338.093.762.195 1.24.062.241.13.503.198.782.068.278.195.564.31.869a14.522 14.522 0 0 0 2.43 4.043 22.97 22.97 0 0 0 4.664 4.166 37.371 37.371 0 0 0 6.65 3.65 56.085 56.085 0 0 0 8.249 2.787 74.48 74.48 0 0 0 9.463 1.78 85.548 85.548 0 0 0 20.64 0 74.322 74.322 0 0 0 9.462-1.78 56.413 56.413 0 0 0 8.25-2.787 37.764 37.764 0 0 0 6.658-3.636 22.943 22.943 0 0 0 4.668-4.167 14.59 14.59 0 0 0 2.43-4.047c.102-.308.222-.59.309-.869.087-.278.14-.538.199-.782.05-.226.09-.452.117-.682.031-.21.061-.398.08-.569 0-.337.025-.598.032-.777.005-.18-.007-.257-.007-.257ZM160.807 583.902l.105.091.328.244c.311.208.707.546 1.279.929a35.622 35.622 0 0 0 5.026 2.86 39.158 39.158 0 0 0 8.126 2.736 53.796 53.796 0 0 0 10.438 1.171c.928.024 1.858 0 2.764-.032a32.9 32.9 0 0 0 2.678-.197c.876-.103 1.73-.211 2.569-.309.839-.1 1.653-.276 2.443-.457a44.525 44.525 0 0 0 8.186-2.55 40.866 40.866 0 0 0 5.167-2.6c.595-.34 1.028-.65 1.333-.839l.342-.225.114-.081-.124.068-.35.21c-.31.183-.748.48-1.346.811a43.312 43.312 0 0 1-5.178 2.551 45.363 45.363 0 0 1-8.176 2.51c-.786.18-1.603.309-2.436.45-.832.138-1.687.244-2.563.309-.876.065-1.761.143-2.665.198a30.42 30.42 0 0 1-2.755.024 53.925 53.925 0 0 1-10.407-1.15 39.778 39.778 0 0 1-8.113-2.693 37.444 37.444 0 0 1-5.039-2.811c-.576-.366-.994-.694-1.294-.892l-.335-.232-.117-.094Z"/>
    <path fill="#DADBD8" d="M149.76 552.657c0 8.711 16.679 15.771 37.253 15.771 20.575 0 37.254-7.06 37.254-15.771 0-8.709-16.679-15.77-37.254-15.77-20.574 0-37.253 7.061-37.253 15.77Z"/>
    <path fill="#33535F" d="m210.527 555.132.078.105c.47.707-.064 1.831-.908 1.915-.844.083-1.586-.915-1.265-1.7.323-.784 1.552-.974 2.095-.32ZM180.316 543.164l.08.105c.469.707-.064 1.831-.908 1.915-.845.084-1.588-.915-1.265-1.699.321-.785 1.552-.973 2.093-.321ZM166.855 559.799l.078.105c.47.707-.064 1.831-.908 1.915-.844.082-1.588-.915-1.265-1.7.321-.784 1.552-.974 2.095-.32ZM168.912 548.869l.051.067c.294.445-.042 1.152-.572 1.204-.531.053-.999-.575-.796-1.069.202-.494.976-.612 1.317-.202ZM190.661 556.483l.05.066c.296.446-.04 1.152-.571 1.206-.532.052-.999-.576-.796-1.07.203-.494.976-.613 1.317-.202Z"/>
    <path fill="#17282F" d="M456.435 540.888c-12.287 0-22.247 3.416-22.247 7.631 0 4.213 9.96 7.629 22.247 7.629 12.286 0 22.246-3.416 22.246-7.629 0-4.215-9.96-7.631-22.246-7.631Z"/>
    <path fill="#0F191D" d="M455.455 554.619c-14.95 0-19.247-3.836-20.376-5.396.866.481 1.746.906 2.657 1.254 6.276 2.396 12.324 3.587 18.263 3.587 6.973 0 13.797-1.644 20.66-4.908-1.562 1.855-6.388 5.363-20.592 5.46l-.612.003Z"/>
    <path fill="#17282F" d="M413.916 511.466c.592-6.122 7.083-11.471 16.068-15.106 1.484-.622 3-1.156 4.545-1.603 6.444-1.972 14.04-3.096 22.172-3.096 22.442 0 40.791 8.668 42.166 19.598.104.691.121 1.393.053 2.089 0 .176-.031.353-.053.529 0 2.084-3.151 25.212-19.72 34.025-13.562 7.212-26.875 8.122-41.411 2.575-2.736-1.046-5.188-2.785-7.879-4.677-16.005-11.248-15.941-32.068-15.941-32.068v-2.266Z"/>
    <path fill="#0F191D" d="M425.737 524c-5.626-3.129-9.006-7.12-9.006-11.498 0-10.006 17.776-18.124 39.704-18.124s39.705 8.118 39.705 18.124c0 4.31-3.293 8.263-8.791 11.374l-.186-.135c4.121-2.537 6.533-5.61 6.533-8.922 0-8.711-16.68-15.771-37.253-15.771-20.575 0-37.255 7.06-37.255 15.771 0 3.361 2.484 6.476 6.717 9.035-.056.048-.112.096-.168.146Z"/>
    <path fill="#33535F" d="M498.953 512.575s0 .089-.021.262c-.021.174-.028.436-.047.774-.021.17-.056.36-.089.566a6.532 6.532 0 0 1-.124.679l-.204.776c-.075.279-.199.557-.309.864a14.582 14.582 0 0 1-2.443 4.009 22.974 22.974 0 0 1-4.661 4.13 37.736 37.736 0 0 1-6.647 3.608 56.2 56.2 0 0 1-8.233 2.786 73.622 73.622 0 0 1-9.454 1.748 85.422 85.422 0 0 1-20.6 0 73.377 73.377 0 0 1-9.425-1.766 56.384 56.384 0 0 1-8.235-2.786 37.951 37.951 0 0 1-6.648-3.609 23.177 23.177 0 0 1-4.662-4.129 14.617 14.617 0 0 1-2.432-4c-.106-.31-.23-.588-.311-.864l-.207-.776c-.105-.487-.154-.907-.21-1.239-.056-.331-.038-.595-.047-.773-.009-.181-.021-.264-.021-.264v.264c0 .173.018.438.034.776.015.337.092.761.195 1.238.061.241.129.505.197.783.068.279.196.564.311.87a14.547 14.547 0 0 0 2.429 4.043 23.061 23.061 0 0 0 4.664 4.167 37.621 37.621 0 0 0 6.65 3.649 56.16 56.16 0 0 0 8.249 2.786 74.302 74.302 0 0 0 9.463 1.779 85.447 85.447 0 0 0 20.64 0 74.32 74.32 0 0 0 9.462-1.779 56.528 56.528 0 0 0 8.25-2.786 37.704 37.704 0 0 0 6.658-3.637 22.973 22.973 0 0 0 4.668-4.167 14.576 14.576 0 0 0 2.43-4.045c.102-.31.224-.592.31-.871.087-.279.139-.539.198-.782.052-.224.09-.452.117-.682.031-.211.063-.399.081-.569 0-.337.024-.597.031-.777.005-.179-.007-.256-.007-.256ZM430.236 546.064l.104.09.329.243c.31.208.706.546 1.278.929a35.692 35.692 0 0 0 5.028 2.861 39.188 39.188 0 0 0 8.125 2.736 53.621 53.621 0 0 0 10.437 1.17c.928.024 1.858 0 2.764-.031a32.897 32.897 0 0 0 2.678-.198c.876-.103 1.73-.21 2.569-.31.839-.098 1.653-.276 2.443-.454a44.735 44.735 0 0 0 8.186-2.551 41 41 0 0 0 5.167-2.6c.595-.341 1.028-.65 1.335-.84l.34-.225.114-.08-.124.068-.349.211c-.309.181-.749.478-1.347.81a43.54 43.54 0 0 1-5.178 2.551 45.458 45.458 0 0 1-8.175 2.51c-.787.179-1.604.31-2.436.448-.833.141-1.688.246-2.564.31-.876.065-1.761.142-2.665.199-.903.055-1.826.051-2.755.024a54.03 54.03 0 0 1-10.407-1.151 39.63 39.63 0 0 1-8.112-2.694 37.278 37.278 0 0 1-5.04-2.81c-.576-.366-.993-.693-1.293-.892l-.335-.232-.117-.092Z"/>
    <path fill="#33535F" d="M419.188 514.819c0 8.709 16.68 15.77 37.255 15.77 20.573 0 37.253-7.061 37.253-15.77 0-8.711-16.68-15.771-37.253-15.771-20.575 0-37.255 7.06-37.255 15.771Z"/>
    <path fill="#7D969B" d="M479.027 519.317c-.803 0-1.476-.95-1.167-1.703.189-.462.692-.718 1.184-.718.347 0 .687.127.911.396l.078.107c.47.705-.064 1.83-.908 1.913a.815.815 0 0 1-.098.005ZM448.816 507.349c-.801 0-1.475-.95-1.165-1.704.189-.461.692-.716 1.184-.716.345 0 .686.126.909.395l.08.107c.469.706-.064 1.83-.908 1.913a.837.837 0 0 1-.1.005ZM435.353 523.984c-.801 0-1.474-.951-1.165-1.704.189-.461.692-.718 1.184-.718.345 0 .687.127.911.397l.078.105c.47.707-.064 1.832-.908 1.914a.663.663 0 0 1-.1.006ZM437.756 512.304c-.504 0-.928-.599-.733-1.072.118-.29.434-.451.745-.451.217 0 .432.079.573.248l.05.067c.294.446-.04 1.152-.572 1.205l-.063.003ZM459.505 519.917c-.504 0-.928-.597-.733-1.072.119-.291.435-.45.745-.45.218 0 .432.078.572.248l.051.066c.295.445-.041 1.152-.572 1.205a.649.649 0 0 1-.063.003Z"/>
    <path fill="#263238" d="M444.607 118.714c-6.237-.162-11.901-5.553-12.368-11.775-.466-6.222 4.329-12.4 10.47-13.49-3.269-4.448-3.325-10.999-.133-15.502 3.191-4.504 9.392-6.621 14.672-5.009.982-5.36 4.93-10.08 10.034-11.992 5.104-1.913 11.181-.948 15.442 2.451 6.678-4.276 16.317-3.119 21.794 2.613 5.377-.233 10.702 3.36 12.498 8.433 1.797 5.075-.081 11.217-4.406 14.42"/>
    <path fill="#F9A78D" d="m505.129 78.78 2.735.424c29.22 6.288 40.203 34.617 33.109 63.652l-30.988 104.389-60.512 1.355c1.646-8.255 4.911-25.38 4.847-25.393 0 0-27.664-8.798-23.625-37.192 1.95-13.718 8.266-41.638 14.277-66.836 6.459-27.087 32.641-44.659 60.157-40.399Z"/>
    <path fill="#F57F62" d="M466.861 182.125c4.028-.266 8.538-1.21 12.194-2.921 1.58-.739 3.534-1.583 4.934-.543 1.164.867 1.228 2.584.972 4.014-.713 3.982-3.232 7.725-6.913 9.406-3.681 1.682-8.463.979-11.152-2.045-.987-1.108-1.684-2.516-1.76-3.997-.075-1.483-.14-4.052 1.725-3.914ZM454.32 223.207s17.703 3.814 38.592-5.195c0 0-12.177 19.933-40.063 13.001l1.471-7.806Z"/>
    <path fill="#17282F" d="M450.631 149.264c-.408 2.125 1.057 4.223 3.27 4.689 2.208.463 4.33-.877 4.736-3.004.408-2.125-1.056-4.225-3.265-4.69-2.212-.464-4.335.88-4.741 3.005ZM449.059 132.628c.42.604 3.837-1.191 8.192-.504 4.358.621 7.208 3.359 7.762 2.897.27-.2-.094-1.232-1.329-2.46-1.215-1.221-3.399-2.565-6.113-2.973-2.716-.405-5.152.24-6.623 1.059-1.497.821-2.1 1.705-1.889 1.981ZM487.319 155.944c-.407 2.125 1.058 4.223 3.27 4.688 2.207.464 4.331-.877 4.736-3.004.407-2.125-1.057-4.224-3.266-4.688-2.212-.467-4.335.879-4.74 3.004ZM491.596 140.247c.421.606 3.843-1.187 8.193-.502 4.358.623 7.207 3.358 7.763 2.898.268-.2-.091-1.231-1.331-2.46-1.213-1.222-3.398-2.564-6.113-2.974-2.715-.405-5.152.24-6.623 1.059-1.494.821-2.098 1.705-1.889 1.979Z"/>
    <path fill="#263238" d="M470.791 171.295c.058-.244-2.578-1.132-6.876-2.372-1.095-.287-2.115-.671-2.183-1.459-.137-.844.513-1.971 1.252-3.181l4.6-7.96c6.436-11.351 11.277-20.752 10.817-21.008-.46-.254-6.048 8.738-12.481 20.088-1.56 2.804-3.051 5.474-4.471 8.032-.616 1.198-1.561 2.52-1.252 4.276.171.877.894 1.606 1.576 1.908.68.329 1.304.437 1.85.556 4.377.921 7.112 1.364 7.168 1.12Z"/>
    <path fill="#17282F" d="M491.329 125.204c.263 1.247 4.7 1.3 9.731 2.64 5.06 1.239 8.977 3.321 9.807 2.353.374-.466-.187-1.684-1.695-3.069-1.492-1.38-3.977-2.844-7.004-3.62-3.025-.769-5.908-.68-7.88-.185-1.987.492-3.065 1.29-2.959 1.881ZM450.639 121.147c.734 1.141 4.448.718 8.709 1.393 4.281.551 7.743 2 8.748 1.109.448-.438.051-1.524-1.365-2.725-1.392-1.195-3.858-2.397-6.794-2.82-2.936-.419-5.621.045-7.273.803-1.675.758-2.341 1.692-2.025 2.24Z"/>
    <path fill="#263238" d="M447.122 107.44s10.077-16.928 19.333-19.918c11.205-3.618 14.12 8.533 24.513 7.13 10.394-1.403 21.094-4.883 30.241 4.274 10.012 10.022 3.942 15.231 2.86 28.068-4.39 52.047 3.01 67.969 9.08 44.009.666-2.625 8.359-3.714 11.024-14.823 3.454-14.407 6.485-32.061 4.669-42.879-1.531-9.117-5.671-15.847-13.676-23.744-12.635-12.466-31.971-15.389-45.308-15.897-13.335-.507-40.799 11.097-42.736 33.78Z"/>
    <path fill="#263238" d="M536.34 131.88c-2.792 1.385-5.735 2.806-8.85 2.681-3.113-.123-6.382-2.377-6.476-5.493-.043-1.401.512-2.939-.239-4.12-.898-1.409-2.929-1.291-4.6-1.345-5.791-.189-11.583-7.423-12.263-13.178-1.758 1.978-5.04 2.192-7.044.464-2.005-1.727-2.695-2.649-4.145-4.862-1.45-2.215-3.624-4.317-6.27-4.309-1.48.004-2.958.68-4.4.345-2.547-.589-3.384-3.78-3.418-6.395-.034-2.612.077-5.64-1.91-7.336-1.843-1.571-4.571-1.19-6.993-1.172-2.421.019-5.408-.965-5.692-3.37-.149-1.262.551-2.471 1.374-3.439 3.726-4.386 10.69-5.596 15.678-2.723 2.824-6.22 9.594-10.424 16.422-10.195 6.828.227 13.303 4.87 15.707 11.265 4.674-3.187 10.922-3.927 16.212-1.92 5.289 2.005 9.475 6.704 10.859 12.19 4.951-.592 10.138 2.013 12.618 6.337 2.481 4.323 2.115 10.115-.894 14.093 3.249 2.508 5.781 6.435 5.289 10.509-.492 4.074-5.015 7.572-8.787 5.955 1.144 3.384-.744 7.499-4.055 8.839-3.312 1.341-7.53-.3-9.064-3.528"/>
    <path fill="#455A64" d="M478.828 83.204c-.015-.001-.03.122-.046.36-.007.239-.042.598-.021 1.066.055.932.232 2.326.899 3.982.677 1.634 1.806 3.57 3.707 5.247 1.855 1.688 4.52 3.144 7.722 3.413l-.273-.48c-.842 1.593-.956 3.632-.36 5.476.547 1.865 1.579 3.595 2.687 5.295.576.822 1.043 1.76 1.883 2.559.819.769 1.856 1.292 2.951 1.588 2.174.591 4.769.254 6.635-1.385l-.706-.312c-.045 3.971 1.631 8.186 4.827 11.057 1.678 1.608 3.872 2.755 6.153 3.009 2.276.294 4.48-.079 6.547-.509l-.493-.304c.716 2.587 2.046 4.894 3.803 6.707 1.72 1.803 4.17 3.063 6.579 2.815 4.771-.335 8.38-3.76 9.505-7.304l-.474.145c2.124 1.574 4.576 2.037 6.608 1.932a11.086 11.086 0 0 0 4.997-1.444 9.58 9.58 0 0 0 2.527-2.094c.459-.596.66-.933.64-.945-.087-.094-.859 1.401-3.329 2.747-1.226.635-2.878 1.217-4.852 1.254-1.95.061-4.264-.435-6.221-1.932l-.339-.259-.136.405c-1.094 3.299-4.554 6.483-8.971 6.744-2.181.201-4.333-.919-5.963-2.625-1.638-1.706-2.906-3.927-3.566-6.358l-.104-.385-.389.08c-2.035.418-4.159.76-6.262.481-2.108-.247-4.077-1.268-5.679-2.795-3.018-2.717-4.592-6.66-4.569-10.424l.006-.946-.711.634c-1.578 1.406-3.904 1.748-5.86 1.221-.982-.26-1.903-.72-2.618-1.384-.699-.638-1.194-1.569-1.778-2.4-1.111-1.674-2.116-3.341-2.642-5.078-.571-1.725-.477-3.517.256-4.965l.226-.446-.497-.034c-3.022-.215-5.597-1.557-7.417-3.15-1.864-1.579-3.006-3.427-3.715-4.995-1.368-3.218-1.02-5.29-1.167-5.264Z"/>
    <path fill="#263238" d="M442.251 104.492c-.006.031-.255-.004-.728-.099-.477-.077-1.16-.299-2.004-.661-1.667-.741-3.986-2.317-5.733-5.166a13.644 13.644 0 0 1-1.875-5.071c-.296-1.932-.182-4.123.684-6.183 1.623-4.149 5.913-7.603 11.012-8.263a12.25 12.25 0 0 1 4.713.317l-.55.533c-1.094-4.322-.82-8.987 1.505-12.23 2.232-3.231 6.105-4.66 8.965-3.765 2.855.901 4.268 3.146 4.632 4.657.213.775.159 1.406.125 1.814-.082.407-.139.614-.167.608-.103-.005.193-.878-.268-2.333-.429-1.394-1.855-3.43-4.483-4.176-2.59-.736-6.122.618-8.158 3.645-2.097 3.002-2.359 7.393-1.287 11.566l.187.73-.737-.197a11.458 11.458 0 0 0-4.365-.284c-4.755.609-8.823 3.846-10.359 7.686-1.632 3.878-.603 7.936.968 10.618 1.603 2.765 3.769 4.363 5.342 5.177 1.599.812 2.607.981 2.581 1.077ZM545.114 119.599c.05-.103 1.133.749 3.449 1.268 2.24.512 5.953.615 9.525-1.645 1.764-1.099 3.321-2.886 4.237-5.15a12.507 12.507 0 0 0 .576-7.63c-.621-2.663-2.354-5.163-4.884-6.74-2.505-1.57-5.723-2.31-8.807-1.702-.589.11-1.153.291-1.676.467l-1.168.391.631-1.047c1.58-2.616 2.22-5.68 1.971-8.56-.203-2.881-1.2-5.602-2.722-7.761-1.485-2.206-3.577-3.753-5.726-4.686-2.178-.898-4.411-1.18-6.414-1.1-4.046.184-7.095 1.76-8.859 3.123-1.791 1.38-2.505 2.453-2.585 2.385-.024-.017.153-.278.52-.761.173-.25.414-.537.732-.847.304-.324.663-.69 1.122-1.045 1.742-1.476 4.841-3.2 9.038-3.475 2.078-.124 4.415.128 6.724 1.045 2.281.95 4.527 2.576 6.115 4.891 1.628 2.268 2.694 5.125 2.923 8.164.276 3.033-.385 6.295-2.079 9.1l-.537-.655c.567-.193 1.18-.387 1.816-.507 3.341-.656 6.769.147 9.449 1.839 2.706 1.695 4.582 4.434 5.216 7.288 1.359 5.768-1.453 11.329-5.277 13.507-3.815 2.308-7.665 2.075-9.947 1.446-2.356-.641-3.363-1.603-3.363-1.603ZM532.876 57.953c.026-.016.176.19.444.61.222.438.555 1.111.693 2.054.327 1.828-.055 4.882-2.483 7.396-2.394 2.551-7.004 3.514-11.26 1.961-2.117-.763-4.219-2.061-5.727-4.074-.739-1.007-1.314-2.204-1.462-3.534-.143-1.31.088-2.697.795-3.887.692-1.193 1.937-2.075 3.278-2.289 1.335-.234 2.682.057 3.805.669 2.339 1.255 3.342 3.89 3.326 6.14.027 2.32-.896 4.4-2.011 6.036-1.131 1.652-2.464 2.947-3.73 4.039a25.346 25.346 0 0 1-6.724 4.139 19.74 19.74 0 0 1-2.021.721c-.474.13-.726.183-.736.153-.024-.072.953-.394 2.615-1.193 1.653-.8 4.005-2.11 6.451-4.298 1.212-1.097 2.482-2.386 3.53-3.975 1.037-1.578 1.85-3.51 1.803-5.612-.008-2.058-.94-4.342-2.919-5.38-.967-.521-2.13-.76-3.23-.562-1.103.186-2.081.877-2.668 1.872-.592.99-.8 2.196-.679 3.326.119 1.13.622 2.204 1.283 3.116 1.353 1.831 3.323 3.086 5.3 3.817 3.99 1.498 8.286.656 10.535-1.635 2.315-2.278 2.796-5.147 2.584-6.9-.201-1.817-.897-2.665-.792-2.71Z"/>
    <path fill="#F9A78D" d="M533.262 169.078c1.392-4.513 6.024-7.162 10.15-5.63 5.005 1.855 9.894 6.466 6.512 17.757-6 20.031-23.523 10.349-23.383 9.764.095-.397 4.142-13.53 6.721-21.891Z"/>
    <path fill="#F57F62" d="M535.043 184.599c.094-.046.292.297.81.665.506.356 1.426.711 2.5.523 2.178-.366 4.5-3.278 5.246-6.735a11.292 11.292 0 0 0-.038-4.985c-.324-1.522-1.05-2.678-2.041-3.054-.977-.426-1.819.051-2.156.55-.36.49-.309.898-.419.913-.062.037-.352-.401-.048-1.168.152-.368.464-.781.987-1.065.532-.291 1.248-.355 1.948-.143 1.468.381 2.549 2 2.948 3.647.479 1.669.581 3.633.156 5.593-.852 3.861-3.524 7.124-6.463 7.407-1.422.098-2.477-.523-2.976-1.087-.508-.589-.528-1.039-.454-1.061Z"/>
    <path fill="#F9A78D" d="m520.767 244.82-15.107-7.868-58.608-1.021s-7.004 23.732 24.884 29.85c31.888 6.118 48.831-20.961 48.831-20.961Z"/>
    <path fill="#789E4C" d="M335.797 311.271s14.45-66.312 36.7-74.079c22.251-7.765 66.776-5.476 66.776-5.476s7.127 29.88 42.056 26.059c26.719-2.924 33.611-18.047 33.611-18.047s24.349 12.005 41.755 21.701c9.412 5.243 2.068 3.887 2.469 5.515 1.144 4.636-31.06 91.525-35.067 101.98-4.006 10.455-1.193 79.097-3.482 77.38H368.677c-.561-1.145-.549-97.937-.549-97.937l-38.448-4.474 6.117-32.622Z"/>
    <path fill="#A7A9A8" d="m368.344 429.165-.179-3.541.152-.14c.008 1.267.018 2.497.027 3.681Z"/>
    <path fill="#598248" d="m369.012 442.479-.668-13.314c-.009-1.184-.019-2.414-.027-3.681 15.856-14.799 25.451-35.209 32.842-55.736 7.414-20.592 13.048-41.948 22.86-61.483 2.814-5.601 7.046-11.722 13.248-11.856l.206-.002c6.482 0 10.918 6.549 14.098 12.322.284.516.568 1.03.85 1.546-4.566 1.849-8.106 3.277-8.106 3.277s25.646 81.176 40.464 104.884a92.514 92.514 0 0 0 5.978 8.491l2.076 10.984c-2.605-1.466-4.769-2.967-6.157-4.408-25.029-25.987-43.308-64.35-48.623-100.262-10.649 16.708-16.834 32.404-22.325 51.5-3.473 12.083-4.847 25.028-11.104 35.899-7.289 12.664-21.16 21.169-35.612 21.839Z"/>
    <path fill="#F9A78D" d="M334.308 344.095c1.78 0 33.82 4.272 33.82 4.272l27.82-41.734 32.941 15.808s-36.098 81.79-42.605 95.702c-10.324 22.07-37.509 28.322-47.121 16.574-9.612-11.748-9.483-45.054-9.483-56.802 0-11.748 4.628-33.82 4.628-33.82Z"/>
    <path fill="#F57F62" d="M372.499 341.049c.018.015-.095.206-.327.555l-1.041 1.504a219.974 219.974 0 0 0-3.807 5.543 187.422 187.422 0 0 0-11.175 19.126 187.5 187.5 0 0 0-8.766 20.348 216.633 216.633 0 0 0-2.204 6.352c-.235.688-.431 1.259-.594 1.731-.142.395-.229.597-.252.591-.022-.007.019-.223.119-.63l.469-1.772c.412-1.536 1.09-3.737 1.998-6.434 1.81-5.395 4.696-12.734 8.61-20.498 3.927-7.756 8.122-14.432 11.39-19.09 1.632-2.332 3.002-4.183 3.994-5.427l1.147-1.429c.269-.322.419-.484.439-.47ZM478.151 227.203s11.478-6.026 11.128-8.704c-.35-2.678-15.39-17.81-22.296-19.243-6.907-1.433-12.751 17.276-12.751 17.276l23.919 10.671Z"/>
    <path fill="#C25D43" d="M482.257 224.857a59.412 59.412 0 0 0-2.037-1.508c2.484-2.778 3.644-6.805 2.581-10.404-1.337-4.536-6.01-7.728-10.684-7.728-.878 0-1.757.114-2.613.351.529-1.556.999-3.163 1.127-4.792 7.505 4.24 18.352 15.453 18.648 17.723.005.04.008.08.008.12.005 1.609-3.854 4.298-7.03 6.238Z"/>
    <path fill="#F2575D" d="M481.664 195.839c4.411 6.932 2.367 16.128-4.567 20.538-6.933 4.41-16.128 2.366-20.538-4.568-4.411-6.932-2.366-16.128 4.566-20.538 6.934-4.411 16.13-2.366 20.539 4.568Z"/>
    <path fill="#F2575D" d="M462.08 189.501c4.411 6.934 2.365 16.13-4.567 20.54-6.933 4.41-16.128 2.366-20.538-4.568-4.411-6.932-2.367-16.128 4.566-20.538 6.934-4.411 16.128-2.366 20.539 4.566Z"/>
    <path fill="#F2575D" d="M442.167 189.644c4.41 6.933 2.365 16.128-4.567 20.539-6.933 4.41-16.128 2.365-20.539-4.567-4.41-6.933-2.365-16.128 4.567-20.539 6.933-4.41 16.128-2.365 20.539 4.567Z"/>
    <path fill="#33535F" d="M389.392 245.188c-3.308 1.279-5.636 4.749-5.564 8.295.072 3.545 2.537 6.92 5.895 8.064-.584 2.165.724 4.506 2.608 5.721 1.885 1.216 4.213 1.513 6.456 1.551 1.349.022 2.908-.147 3.661-1.267.723-1.075.357-2.513-.032-3.748l-6.657-21.127-6.367 2.511Z"/>
    <path fill="#33535F" d="M469.504 205.568c.687-2.016 1.271-4.119 1.143-6.245-.13-2.126-1.083-4.302-2.891-5.428-1.808-1.128-4.504-.867-5.727.877-3.833-5.617-12.708-6.879-17.953-2.551-1.635-3.438-5.349-5.781-9.156-5.776-3.807.006-7.515 2.358-9.141 5.8-3.667-3.132-7.88-6.454-12.691-6.104-4.779.35-9.513 3.003-12.685 6.595-2.726 3.088-4.575 7.952-3.996 12.031-4.096-.164-8.226 1.652-10.874 4.78-2.649 3.128-3.758 7.5-2.922 11.512-2.339-.638-4.922.949-5.831 3.196-.908 2.248-.348 4.902 1.005 6.914 1.352 2.011 3.403 3.458 5.554 4.576-3.211 1.896-4.375 6.571-2.427 9.751 1.947 3.18 6.64 4.269 9.788 2.272l84.939-21.408c5.362-1.676 8.753-8.027 7.162-13.415-1.589-5.388-7.884-8.88-13.297-7.377Z"/>
    <path fill="#17282F" d="M401.923 221.864c-.127.159-2.62-1.676-5.88-3.636-3.254-1.972-6.038-3.325-5.956-3.511.068-.168 3.014.916 6.314 2.918 3.307 1.988 5.638 4.09 5.522 4.229ZM415.304 211.44c-.167.083-1.781-2.847-3.319-6.667-1.544-3.818-2.413-7.046-2.237-7.102.189-.062 1.347 3.052 2.881 6.842 1.527 3.794 2.852 6.839 2.675 6.927ZM436.204 193.437c.184.027-.041 2.678-.781 5.867-.735 3.191-1.695 5.672-1.872 5.615-.188-.06.469-2.612 1.196-5.771.732-3.157 1.262-5.739 1.457-5.711ZM460.239 201.319c.169.076-.794 2.526-2.422 5.325-1.621 2.803-3.27 4.853-3.421 4.745-.161-.114 1.217-2.322 2.821-5.094 1.61-2.767 2.843-5.06 3.022-4.976ZM401.788 233.285c-.041.103-.944-.192-2.433-.498-1.49-.32-3.578-.587-5.907-.895-2.329-.307-4.447-.757-5.903-1.323-1.462-.552-2.258-1.116-2.22-1.182.052-.102.915.298 2.374.716 1.456.432 3.522.796 5.844 1.102 2.32.306 4.44.655 5.93 1.104 1.494.439 2.347.902 2.315.976Z"/>
    <path fill="#F57F62" d="M398.98 274.163s-25.663-45.763 16.819-68.995c0 0 16.006-8.457 37.412 2.416 21.404 10.875 29.522 17.652 29.522 17.652s-80.114 52.477-83.753 48.927Z"/>
    <path fill="#C25D43" d="M399.084 248.025a1.762 1.762 0 0 1-1.493-.82 1.765 1.765 0 0 1 1.489-2.717 1.769 1.769 0 0 1 .004 3.537ZM440.14 226.12a1.768 1.768 0 1 1-.003-3.539 1.768 1.768 0 0 1 .003 3.539ZM411.515 253.765a.929.929 0 1 1-.004-1.857.929.929 0 0 1 .004 1.857ZM461.911 225.139a.928.928 0 0 1-.639-1.604.92.92 0 0 1 .639-.255.93.93 0 1 1 0 1.859ZM408.144 231.779a.928.928 0 1 1-.001-1.86.93.93 0 0 1 .001 1.86ZM433.301 212.195a.93.93 0 1 1 .002-1.86.93.93 0 0 1-.002 1.86Z"/>
    <path fill="#F9A78D" d="M398.835 295.321c-.356-.866-9.184-12.442-7.703-23.997 1.481-11.555 18.072-40.535 25.183-45.153 7.109-4.619 7.998 3.084 7.998 3.084l-7.11 11.554s6.221-14.166 12.74-14.638c6.517-.471 6.813 4.269 5.925 6.046-.889 1.778-1.779 5.334-1.779 5.334s2.667 1.184 4.444 5.332c1.778 4.148 0 9.184 1.186 8.592 1.185-.592 4.444 4.625 4.148 8.533-.296 3.909-2.963 15.464-2.963 15.464s0 23.108-2.371 27.848c-2.369 4.74-5.925 11.851-10.072 19.553-4.148 7.703-34.07-14.22-34.07-14.22s6.517-8.296 4.444-13.332Z"/>
    <path fill="#F57F62" d="M422.321 229.255c.083.052-.732 1.513-2.089 3.846l-5.3 9.115c-2.04 3.575-3.825 6.843-5.041 9.247-1.227 2.398-1.895 3.926-1.994 3.888-.044-.018.074-.42.324-1.136.258-.714.666-1.732 1.227-2.964 1.109-2.474 2.836-5.795 4.881-9.38a204.187 204.187 0 0 1 5.484-9.026c1.467-2.27 2.428-3.64 2.508-3.59ZM433.004 237.624c.043.021-.136.491-.497 1.32-.438.963-.964 2.125-1.58 3.487-1.352 2.934-3.251 6.972-5.235 11.478a243.79 243.79 0 0 0-4.785 11.663c-1.144 3.017-1.815 4.9-1.915 4.868-.045-.015.067-.503.309-1.375.239-.873.628-2.125 1.144-3.658 1.027-3.071 2.62-7.256 4.611-11.778a231.09 231.09 0 0 1 5.428-11.413c.735-1.44 1.344-2.599 1.78-3.392.436-.792.697-1.221.74-1.2ZM439.719 251.475c.088.026-.316 1.706-1.112 4.381-.792 2.676-1.991 6.341-3.434 10.345a218.067 218.067 0 0 1-3.938 10.166c-1.082 2.572-1.822 4.132-1.908 4.097-.091-.037.488-1.663 1.45-4.277l3.743-10.22 3.62-10.262c.913-2.63 1.484-4.258 1.579-4.23ZM420.42 314.935c-.06.078-1.105-.611-2.772-1.75l-6.521-4.425-6.595-4.317c-1.692-1.1-2.731-1.799-2.681-1.884.048-.082 1.174.468 2.936 1.464s4.154 2.446 6.725 4.16a111.588 111.588 0 0 1 6.425 4.605c1.598 1.244 2.539 2.073 2.483 2.147Z"/>
    <path fill="#789E4C" d="M575.612 275.624c-1.968-3.988-17.428-14.177-24.705-17.368-7.278-3.192-29.666 95.955-29.666 95.955l52.67 14.713s16.545-63.219 1.701-93.3Z"/>
    <path fill="#F9A78D" d="M444.315 313.552s25.646 81.176 40.464 104.884c14.817 23.708 35.477 34.379 49.108 27.941 23.588-11.14 39.806-77.542 38.113-77.986-1.693-.446-43.679-13.586-44.144-12.332-.465 1.253-4.789 15.726-4.789 15.726s-49.236-70.392-50.748-69.658c-1.511.733-28.004 11.425-28.004 11.425Z"/>
    <path fill="#F9A78D" d="M454.616 214.047s20.008 17.324 21.228 20.008c1.22 2.684 10.492 24.644 10.492 27.572 0 2.928-14.613 32.938-14.017 35.378.597 2.44 0 5.122 0 5.122l-28.004 11.425-6.262-8.845s5.539-25.696 7.544-29.844c2.006-4.148 2.274-8.282 2.254-11.063-.019-2.783-4.948-8.584-5.027-11.387-.173-6.154 1.491-7.622 1.491-7.622s-3.918-2.764-2.855-6.688c.671-2.476 1.688-2.979 5.592-2.172 3.904.808 6.344 1.261 6.344 1.261s-7.299-6.913-8.997-9.997c-.934-1.694.213-9.488 5.093-7.292 4.88 2.196 2.928.976 2.928.976s-2.928-3.904 2.196-6.832Z"/>
    <path fill="#F57F62" d="M468.333 265.781c-.134-.009.04-1.802-.269-4.658-.14-1.428-.472-3.107-.983-4.93a32.537 32.537 0 0 0-2.318-5.689 32.6 32.6 0 0 0-3.444-5.091c-1.232-1.437-2.444-2.645-3.554-3.556-2.202-1.842-3.792-2.693-3.724-2.81.023-.043.43.148 1.151.529.364.185.8.428 1.275.76.478.325 1.048.668 1.606 1.139 1.17.878 2.446 2.076 3.732 3.522a30.448 30.448 0 0 1 3.57 5.179 30.304 30.304 0 0 1 2.322 5.844c.49 1.873.775 3.599.856 5.059.083.726.051 1.389.055 1.969.012.579-.028 1.077-.077 1.483-.082.81-.15 1.254-.198 1.25ZM455.827 265.017c-.13-.026.302-1.384.117-3.59-.156-2.195-1.112-5.191-3.081-7.935-1.979-2.747-4.346-4.777-6.035-6.239-1.709-1.453-2.776-2.353-2.713-2.433.056-.071 1.224.688 3.021 2.052 1.777 1.372 4.243 3.375 6.291 6.216 2.048 2.848 2.974 6.017 3.008 8.309.029 1.148-.102 2.074-.264 2.691-.158.619-.304.941-.344.929ZM476.24 248.6c-.12.041-.727-2.028-2.356-5.063-1.604-3.041-4.38-6.948-8.097-10.664-3.718-3.721-7.504-6.649-10.23-8.776l-3.236-2.517c-.758-.603-1.165-.955-1.137-.993.028-.039.489.238 1.296.774.808.536 1.963 1.331 3.372 2.343 2.805 2.031 6.665 4.915 10.427 8.68 3.764 3.76 6.528 7.787 8.041 10.929.768 1.566 1.272 2.887 1.561 3.816.291.93.4 1.458.359 1.471ZM532.829 399.584c-.117.008-.264-1.863-.784-4.833a59.647 59.647 0 0 0-3.172-11.312 59.593 59.593 0 0 0-5.388-10.443c-1.644-2.529-2.81-3.997-2.718-4.072.036-.031.361.309.92.951.566.634 1.324 1.605 2.205 2.846 1.765 2.476 3.916 6.13 5.627 10.463 1.7 4.336 2.616 8.475 3.01 11.491.202 1.508.308 2.736.327 3.586.028.85.021 1.32-.027 1.323Z"/>
    <path fill="#F57F62" d="M486.196 260.716c-.045.015-.34-.74-.844-2.116-.54-1.485-1.255-3.449-2.117-5.825-.9-2.458-1.976-5.382-3.236-8.599-1.294-3.191-2.632-6.799-4.62-10.183-1.083-1.601-2.444-3.021-3.751-4.356-1.309-1.344-2.627-2.59-3.883-3.777a326.661 326.661 0 0 0-6.81-6.165l-4.654-4.095c-1.098-.968-1.696-1.516-1.665-1.553.031-.038.685.44 1.837 1.346a194.27 194.27 0 0 1 4.802 3.93 218.302 218.302 0 0 1 6.925 6.068c1.273 1.178 2.605 2.42 3.932 3.769 1.329 1.347 2.696 2.752 3.855 4.463 2.058 3.509 3.356 7.096 4.628 10.321a250.935 250.935 0 0 1 3.102 8.668c.839 2.481 1.486 4.5 1.911 5.903.427 1.402.633 2.186.588 2.201Z"/>
    <path fill="#17282F" d="M539.996 287.363c.024.004.004.241-.055.69l-.292 1.955c-.26 1.697-.701 4.141-1.289 7.155-1.172 6.026-3.072 14.293-5.308 23.381-2.236 9.091-4.209 17.327-5.503 23.32l-1.504 7.103-.42 1.93c-.102.44-.169.67-.192.666-.024-.006-.004-.242.055-.691l.292-1.955c.259-1.697.701-4.141 1.289-7.153 1.171-6.027 3.072-14.295 5.308-23.385 2.236-9.088 4.21-17.323 5.502-23.316l1.505-7.104.419-1.931c.104-.44.169-.669.193-.665ZM371.149 291.711c.048.004.026.8-.058 2.233l-.394 6.069c-.342 5.236-.802 12.256-1.312 20.015-.464 7.821-.801 14.904-.962 20.033l-.174 6.075c-.033 1.436-.073 2.229-.121 2.231-.048.001-.099-.794-.149-2.23a149.97 149.97 0 0 1-.047-6.086c.036-5.14.296-12.236.76-20.064a637.23 637.23 0 0 1 1.516-20.014c.236-2.557.449-4.625.615-6.052.165-1.428.278-2.214.326-2.21Z"/>
    <path fill="#F57F62" d="M471.447 302.321c.054.183-3.764 1.487-8.53 2.911-4.768 1.425-8.674 2.431-8.729 2.247-.056-.184 3.763-1.487 8.531-2.912 4.765-1.424 8.673-2.43 8.728-2.246Z"/>
    <path fill="#FFBF9D" d="M281.639 333.736s10.177 77.235 9.744 85.045c-.435 7.81-14.08 23.875-24.584 23.876-32.58.003-34.503-39.929-37.376-49.733-2.874-9.804-5.98-52.315-5.98-52.315s34.112-6.873 36.27-6.873h21.926Z"/>
    <path fill="#6F3530" d="M245.188 406.116c-.192-.015.764-14.691 2.132-32.777 1.371-18.094 2.635-32.743 2.827-32.73.19.015-.764 14.69-2.134 32.782-1.369 18.086-2.634 32.74-2.825 32.725Z"/>
    <path fill="#FFBF9D" d="m193.836 246.227-29.711-9.315-48.203.649s-13.176 12.623-12.343 13.032c.832.408 41.47 29.808 42.896 29.808 1.424 0 26.734-7.496 26.734-7.496l20.627-26.678Z"/>
    <path fill="#F2575D" d="M229.916 372.435a6246.73 6246.73 0 0 1 4.275-30.236l34.557-1.59s-4.819-34.646-13.087-54.316c-10.721-25.502-36.153-33.205-36.954-34.254l-36.898-11.543c-3.36 23.112-20.933 25.819-20.933 25.819-27.304-6.038-38.838-29.887-38.838-29.887s-57.387 5.381-66.163 15.469C47.101 261.985 35.7 322.513 35.7 322.513l31.525 8.5c.77 2.051 15.797 38.26 19.228 69.379.416 3.772-3.57 46.02-3.57 46.02l160.785.396s-16.06-57.747-13.751-74.373Z"/>
    <mask id="b" width="3" height="28" x="84" y="406" maskUnits="userSpaceOnUse" style="mask-type:luminance">
      <path fill="#fff" d="m84.016 433.472 2.242-27.133c-.43 6.91-1.401 18.266-2.192 27.129l-.05.004Z"/>
    </mask>
    <g mask="url(#b)">
      <path fill="#A7A9A8" d="M84.016 433.472h2.242v-27.133h-2.242v27.133Z"/>
    </g>
    <path fill="#CC4341" d="M84.066 433.468c.79-8.863 1.762-20.219 2.192-27.129l2.066-24.991.839-47.672c2.978-1.839 6.058-3.564 9.238-5.047l7.689 23.595 35.771-5.957.448-10.251c3.302 5.743 4.079 12.947 1.038 18.781-4.98 9.554-17.354 12.38-24.903 20.067-5.601 5.703-8.155 13.689-9.901 21.489-1.747 7.8-2.914 15.859-6.457 23.024-3.534 7.151-10.073 13.444-18.02 14.091Z"/>
    <path fill="#17282F" d="M65.856 282.951c.047 0 .091.694.13 1.95l.128 5.318a759.7 759.7 0 0 0 .58 17.529c.315 6.843.714 13.032 1.025 17.511l.358 5.306c.076 1.254.097 1.95.049 1.955-.047.004-.158-.683-.318-1.929-.162-1.247-.361-3.055-.578-5.291-.436-4.473-.915-10.667-1.23-17.521-.312-6.851-.402-13.062-.377-17.556.012-2.247.045-4.066.092-5.322.045-1.257.093-1.95.14-1.95ZM229.916 298.46c.047-.012.244.624.561 1.783.323 1.158.734 2.849 1.19 4.95.917 4.202 1.929 10.068 2.545 16.606.607 6.541.699 12.493.577 16.792-.058 2.149-.149 3.886-.252 5.085-.097 1.197-.173 1.859-.221 1.856-.047-.003-.063-.668-.048-1.868.008-1.333.017-3.037.031-5.08a186.196 186.196 0 0 0-.779-16.72 185.845 185.845 0 0 0-2.335-16.573l-.97-4.986c-.238-1.177-.346-1.834-.299-1.845Z"/>
    <path fill="#263238" d="M121.169 170.049c-7.22-20.256-5.752-43.693 3.944-62.99l-25.51-7.104c-17.99-1.739-35.697 9.626-45.53 25.349-9.833 15.724-12.766 35.063-12.19 53.668.217 7.021.623 14.901-3.966 20.148-3.881 4.437-10.295 5.62-14.479 9.756-6.217 6.147-5.214 17.503.728 23.816 5.942 6.313 15.342 8.107 23.828 6.723 8.486-1.383 16.31-5.507 23.924-9.65 2.166 5.384 8.612 8.082 14.171 6.832 5.56-1.248 10.08-5.764 12.592-11.033 2.512-5.269 3.254-11.232 3.422-17.079 9.416 4.563 22.262-1.905 24.632-12.402 1.994-8.834-2.547-17.563-5.566-26.034Z"/>
    <path fill="#33535F" d="M80.664 143.213c.04-5.592.114-11.286 1.857-16.6 1.743-5.313 5.448-10.281 10.726-12.126 2.484-.87 5.497-.914 7.493.802 1.996 1.716 2.049 5.519-.33 6.646l-.244.693a589.768 589.768 0 0 1-7.85 22.036c-.694 1.836-1.43 3.719-2.767 5.156-1.338 1.439-3.437 2.344-5.3 1.725-3.08-1.024-3.609-5.086-3.585-8.332Z"/>
    <path fill="#263238" d="M101.057 107.067c12.342-16.468 32.718-27.863 55.592-28.85 12.726-.55 18.044 2.132 27.258 4.452 9.212 2.319 17.569 7.099 23.17 14.772 6.655 9.114 12.287 19.348 13.706 30.543 1.456 11.499 1.772 22.888-.812 34.185-3.24 14.168-11.634 22.527-18.28 32.023l-18.248 6.8c-16.231.828-32.687 1.637-48.568-1.8-15.884-3.437-31.399-11.691-40.106-25.412-12.097-19.064-7.252-48.645 6.288-66.713Z"/>
    <path fill="#FFBF9D" d="m127.217 106.432 38.938-16.244 10.26 1.019c23.044-.308 39.364 24.836 39.83 43.496.518 20.73.331 46.061-2.705 61.4-6.105 30.84-32.289 33.841-32.289 33.841s.305 4.915.676 15.229c-6.84 15.864-33.191 15.962-56.008-1.68l-.81-1.226-8.076-125.136a10.92 10.92 0 0 1 10.184-10.699Z"/>
    <path fill="#17282F" d="M205.549 163.4c-.005 2.105-1.792 3.835-3.99 3.869-2.194.035-3.971-1.638-3.966-3.744.006-2.104 1.794-3.836 3.986-3.87 2.198-.035 3.976 1.641 3.97 3.745ZM209.396 145.187c-.512.5-3.443-1.845-7.725-1.997-4.276-.213-7.503 1.871-7.948 1.329-.219-.24.321-1.158 1.725-2.103 1.385-.94 3.72-1.817 6.387-1.705 2.666.116 4.873 1.184 6.124 2.237 1.278 1.06 1.689 2.016 1.437 2.239Z"/>
    <path fill="#263238" d="M182.469 179.204c-.012-.244 2.668-.603 7.003-.991 1.097-.072 2.14-.25 2.353-.989.288-.78-.125-1.976-.606-3.268l-2.918-8.449c-4.04-12.026-6.921-21.898-6.436-22.055.487-.159 4.156 9.46 8.196 21.485.97 2.964 1.898 5.79 2.78 8.494.367 1.258 1.024 2.694.404 4.313-.326.807-1.152 1.368-1.86 1.531-.708.186-1.322.174-1.866.186-4.35.07-7.043-.013-7.05-.257Z"/>
    <path fill="#F57F62" d="M181.135 229.664S160.209 230.217 140 217c0 0 10.253 21.929 41.419 20.204l-.284-7.54Z"/>
    <path fill="#17282F" d="M207.687 130.228c-.76 1.019-4.012.195-7.855.368-3.849.049-7.056 1.061-7.863.088-.357-.475.1-1.477 1.467-2.479 1.348-.997 3.648-1.881 6.292-1.96 2.643-.073 4.98.675 6.373 1.594 1.415.92 1.918 1.894 1.586 2.389ZM160.005 162.36c-.076 2.103 1.643 3.9 3.838 4.019 2.19.12 4.032-1.484 4.108-3.587.074-2.104-1.646-3.904-3.834-4.023-2.196-.118-4.037 1.488-4.112 3.591ZM151.471 144.508c.493.52 3.512-1.711 7.797-1.697 4.28-.048 7.424 2.158 7.889 1.633.228-.232-.274-1.169-1.642-2.167-1.348-.993-3.647-1.96-6.316-1.95-2.67.013-4.915.994-6.206 1.998-1.318 1.012-1.765 1.95-1.522 2.183ZM153.812 130.757c.843.974 4.151-.034 8.125-.08 3.974-.169 7.342.658 8.118-.36.34-.493-.191-1.468-1.66-2.392-1.45-.917-3.874-1.669-6.606-1.597-2.732.076-5.1.956-6.482 1.952-1.406 1-1.867 2.003-1.495 2.477Z"/>
    <path fill="#FFBF9D" d="M123.236 169.136c.083-2.311-2.381-7.861-4.65-8.304-6.057-1.181-17.061-1.109-17.751 14.363-.942 21.15 20.487 17.736 20.551 17.13.051-.473 1.566-15.21 1.85-23.189Z"/>
    <path fill="#6F3530" d="M115.896 184.339c-.089-.072-.38.241-1.015.498-.62.251-1.673.398-2.758-.065-2.198-.92-3.92-4.551-3.852-8.368.031-1.928.515-3.743 1.265-5.231.716-1.518 1.764-2.554 2.898-2.702 1.131-.21 1.897.498 2.13 1.104.257.605.104 1.022.214 1.062.056.056.47-.333.339-1.213a2.354 2.354 0 0 0-.774-1.364c-.489-.435-1.225-.679-2.014-.629-1.636.041-3.171 1.476-3.995 3.108-.913 1.636-1.503 3.673-1.539 5.838-.055 4.268 1.948 8.354 4.968 9.374 1.469.453 2.731.061 3.394-.411.679-.491.811-.96.739-1.001Z"/>
    <path fill="#263238" d="m117.725 160.908 5.462 5.477c26.013-16.938 68.608-76.381 64.702-75.55 0 0-15.992-6.263-33.178-3.035-17.188 3.225-49.738 12.405-48.894 32.728.845 20.321 11.908 40.38 11.908 40.38Z"/>
    <path fill="#FF9A6C" d="M168.537 183.969c-.569-.337-1.184-.686-1.844-.64-.608.042-1.144.415-1.589.831-2.105 1.964-2.855 5.249-1.809 7.932 1.045 2.683 3.821 4.595 6.7 4.616 2.878.02 6.314-1.591 8.094-6.788-3.002-1.776-6.549-4.173-9.552-5.951Z"/>
    <path fill="#33535F" d="M101.303 181.213c-.013.016-.28-.19-.78-.598-.261-.218-.567-.47-.92-.762l-.585-.49-.608-.62c-1.793-1.672-4.048-4.488-6.092-8.382-2.065-3.885-3.651-8.952-4.473-14.701-.351-2.883-.564-5.932-.468-9.093a62.169 62.169 0 0 1 1.089-9.715c2.571-13.169 8.073-24.313 13.477-31.216 2.669-3.484 5.171-6.024 7.013-7.639.892-.841 1.672-1.393 2.165-1.808.504-.4.775-.602.788-.586.012.016-.234.249-.714.677-.466.444-1.221 1.021-2.086 1.884-1.786 1.66-4.227 4.228-6.836 7.72-5.282 6.92-10.678 17.997-13.234 31.081a62.487 62.487 0 0 0-1.09 9.618c-.103 3.13.097 6.15.43 9.006.785 5.696 2.311 10.718 4.308 14.586 1.974 3.873 4.154 6.698 5.885 8.409l.585.635c.2.178.387.346.563.505l.879.8c.473.436.716.673.704.689Z"/>
    <path fill="#F57F62" d="M255.587 354.74s-2.715-3.665-5.742-7.348c.172-2.8.283-4.852.315-5.928l4.444-.204.983 13.48Zm-6.126-7.812c-1.626-1.963-3.314-3.887-4.696-5.216l5.236-.24c-.124 1.017-.309 2.9-.54 5.456Z"/>
    <path fill="#461F1E" d="M249.845 347.392c-.128-.155-.254-.309-.384-.464.231-2.556.416-4.439.54-5.456l.159-.008c-.032 1.076-.143 3.128-.315 5.928Z"/>
    <path fill="#CC4341" d="M244.765 341.712a15.88 15.88 0 0 0-1.254-1.103c-3.742-2.877-13.606-47.4-13.606-47.4s-23.738-29.056-24.136-29.406c7.05 4.572 21.022 13.573 35.274 22.398l10.958 19.376 2.603 35.683-4.444.204-.159.008-5.236.24Z"/>
    <path fill="#F57F62" d="M205.608 262.684s-11.428-5.999-11.08-8.665c.349-2.667 15.324-17.732 22.2-19.159 6.876-1.428 12.695 17.2 12.695 17.2l-23.815 10.624Z"/>
    <path fill="#C25D43" d="M201.52 260.349c-3.163-1.932-7.004-4.609-7-6.212 0-.04.003-.08.008-.118.296-2.26 11.095-13.424 18.568-17.647.127 1.623.595 3.223 1.121 4.772a9.697 9.697 0 0 0-2.601-.349c-4.653 0-9.307 3.178-10.639 7.694-1.057 3.583.098 7.592 2.571 10.358a64.166 64.166 0 0 0-2.028 1.502Z"/>
    <path fill="#F2575D" d="M202.109 231.456c-4.39 6.903-2.354 16.059 4.548 20.449 6.903 4.391 16.058 2.356 20.45-4.546 4.39-6.903 2.354-16.059-4.548-20.45-6.903-4.392-16.058-2.356-20.45 4.547Z"/>
    <path fill="#F2575D" d="M221.609 225.148c-4.392 6.903-2.356 16.057 4.547 20.449 6.903 4.391 16.059 2.355 20.449-4.548 4.392-6.902 2.356-16.057-4.546-20.449-6.903-4.391-16.059-2.355-20.45 4.548Z"/>
    <path fill="#F2575D" d="M241.436 225.289c-4.392 6.903-2.356 16.059 4.547 20.45 6.902 4.39 16.058 2.354 20.449-4.547 4.392-6.903 2.356-16.059-4.547-20.449-6.902-4.392-16.058-2.356-20.449 4.546Z"/>
    <path fill="#33535F" d="M293.981 280.591c3.292 1.273 5.611 4.729 5.54 8.258-.072 3.531-2.528 6.89-5.869 8.03.581 2.156-.721 4.486-2.597 5.697-1.876 1.209-4.195 1.505-6.428 1.543-1.343.022-2.895-.147-3.644-1.26-.72-1.071-.358-2.503.03-3.734 2.21-7.01 4.419-14.022 6.628-21.034l6.34 2.5Z"/>
    <path fill="#33535F" d="M214.217 241.144c-.682-2.008-1.265-4.101-1.137-6.219.128-2.116 1.077-4.282 2.877-5.405 1.8-1.121 4.486-.863 5.703.875 3.816-5.594 12.652-6.848 17.875-2.54 1.628-3.423 5.325-5.755 9.116-5.751 3.79.005 7.482 2.348 9.101 5.775 3.652-3.119 7.845-6.427 12.635-6.078 4.758.348 9.473 2.99 12.63 6.567 2.714 3.075 4.556 7.917 3.98 11.977 4.078-.162 8.188 1.646 10.826 4.76 2.637 3.114 3.742 7.467 2.909 11.463 2.329-.636 4.901.944 5.805 3.181.906 2.238.347 4.882-1 6.884-1.346 2.003-3.388 3.443-5.529 4.556 3.196 1.888 4.355 6.543 2.416 9.71-1.937 3.165-6.611 4.249-9.745 2.261l-84.57-21.315c-5.338-1.669-8.714-7.992-7.132-13.356 1.583-5.365 7.851-8.842 13.24-7.345Z"/>
    <path fill="#17282F" d="M281.505 257.368c-.117-.137 2.204-2.232 5.496-4.212 3.286-1.992 6.22-3.071 6.288-2.903.082.186-2.69 1.534-5.929 3.498-3.245 1.95-5.729 3.776-5.855 3.617ZM268.181 246.989c-.177-.086 1.143-3.118 2.662-6.896 1.528-3.774 2.681-6.873 2.87-6.812.176.055-.688 3.271-2.226 7.072-1.531 3.804-3.139 6.719-3.306 6.636ZM247.372 229.067c.196-.03.724 2.541 1.453 5.684.724 3.145 1.378 5.686 1.188 5.746-.176.058-1.133-2.413-1.864-5.59-.737-3.175-.961-5.815-.777-5.84ZM223.443 236.912c.178-.083 1.406 2.2 3.009 4.955 1.597 2.76 2.969 4.958 2.807 5.073-.151.108-1.792-1.933-3.407-4.725-1.62-2.786-2.579-5.226-2.409-5.303ZM281.639 268.74c-.032-.075.817-.536 2.305-.972 1.484-.448 3.595-.796 5.904-1.101 2.311-.306 4.369-.666 5.819-1.096 1.452-.416 2.31-.814 2.362-.712.04.066-.753.628-2.209 1.178-1.451.564-3.557 1.012-5.877 1.318-2.319.306-4.398.572-5.88.889-1.484.307-2.383.599-2.424.496Z"/>
    <path fill="#F57F62" d="M284.433 309.44s25.552-45.564-16.744-68.695c0 0-15.937-8.42-37.249 2.406-21.312 10.826-29.395 17.576-29.395 17.576s79.767 52.248 83.388 48.713Z"/>
    <path fill="#C25D43" d="M284.331 283.416a1.76 1.76 0 1 1 .948-3.245 1.76 1.76 0 0 1-.948 3.245ZM243.453 261.605a1.76 1.76 0 1 1 .007-3.519 1.76 1.76 0 0 1-.007 3.519ZM271.955 289.132a.925.925 0 1 1 0-1.853.925.925 0 0 1 0 1.853ZM221.777 260.628a.925.925 0 1 1 0-1.849.926.926 0 0 1 0 1.849ZM275.311 267.24a.925.925 0 1 1 0-1.853.925.925 0 0 1 0 1.853ZM250.263 247.741a.926.926 0 1 1 .636-1.597.926.926 0 0 1-.636 1.597Z"/>
    <path fill="#FFBF9D" d="M282.269 321.551c.355-.863 5.92-13.571 4.446-25.075-1.475-11.503-17.994-40.357-25.074-44.956-7.078-4.599-7.964 3.071-7.964 3.071l7.08 11.504s-6.194-14.106-12.684-14.575c-6.489-.469-6.784 4.251-5.9 6.02.886 1.771 1.771 5.309 1.771 5.309s-2.655 1.18-4.425 5.311c-1.77 4.129 0 9.144-1.18 8.553-1.18-.589-4.424 4.606-4.13 8.498.295 3.892 2.95 15.396 2.95 15.396s3.993 22.249 6.353 26.968c2.36 4.72 2.504 5.366 6.635 13.036 4.129 7.668 31.837-5.027 31.837-5.027s-1.779-9.02.285-14.033Z"/>
    <path fill="#6F3530" d="M253.396 255.749c.08-.049 1.037 1.314 2.499 3.574 1.46 2.26 3.417 5.422 5.46 8.986 2.037 3.571 3.754 6.878 4.858 9.339.56 1.227.966 2.243 1.222 2.952.25.713.366 1.115.322 1.132-.098.037-.764-1.484-1.986-3.871-1.21-2.393-2.988-5.648-5.019-9.206l-5.276-9.075c-1.352-2.324-2.163-3.779-2.08-3.831ZM245.025 262.924c.043-.021.303.405.738 1.195.434.789 1.04 1.942 1.77 3.376a227.081 227.081 0 0 1 5.406 11.364c1.982 4.501 3.569 8.668 4.59 11.725.514 1.528.902 2.773 1.139 3.643.241.869.353 1.356.308 1.37-.1.032-.768-1.844-1.908-4.848a242.793 242.793 0 0 0-4.765-11.612c-1.975-4.485-3.866-8.505-5.211-11.428l-1.572-3.472c-.36-.825-.539-1.292-.495-1.313ZM238.339 276.713c.096-.028.664 1.594 1.573 4.212l3.604 10.218 3.727 10.174c.957 2.604 1.534 4.222 1.442 4.259-.085.036-.824-1.517-1.9-4.079a216.65 216.65 0 0 1-3.922-10.12c-1.436-3.988-2.628-7.637-3.418-10.301-.792-2.663-1.194-4.336-1.106-4.363ZM257.555 339.897c-.056-.073.88-.9 2.47-2.137a111.01 111.01 0 0 1 6.398-4.587c2.56-1.705 4.941-3.15 6.696-4.141 1.754-.991 2.876-1.537 2.922-1.457.05.085-.984.781-2.668 1.877l-6.566 4.299a15408.13 15408.13 0 0 1-6.494 4.405c-1.658 1.133-2.7 1.82-2.758 1.741Z"/>
    <path fill="#DADBD8" d="M145.087 272.216c0 .275-3.226 74.051-3.226 74.051l-35.771 5.957-23.568-72.325 30.817-3.784 31.748-3.899Z"/>
    <path fill="#F2575D" d="m142.435 297.048-2.091 47.875-33.177 5.525-15.295-46.937 50.563-6.463Z"/>
    <path fill="#F46F77" d="m107.167 350.448-15.295-46.937.004-.002c.3 1.258 4.347 1.918 10.42 1.918 4.297 0 9.607-.331 15.325-1.015 13.467-1.611 24.275-4.593 24.788-6.785-.813 18.661-1.82 41.68-2.065 47.296l-33.177 5.525ZM142.42 297.365a.72.72 0 0 0-.123-.3l.138-.017c-.006.105-.01.212-.015.317Z"/>
    <path fill="#DADBD8" d="M80.698 278.595c.342 2.853 15.232 3.418 33.259 1.261 18.027-2.156 32.364-6.216 32.023-9.069-.341-2.854-15.232-3.419-33.259-1.262-18.027 2.156-32.364 6.216-32.023 9.07Z"/>
    <path fill="#F2575D" d="M91.863 303.436c.264 2.209 11.797 2.647 25.758.976 13.962-1.669 25.067-4.815 24.802-7.024-.264-2.209-11.797-2.647-25.759-.977-13.961 1.67-25.066 4.814-24.801 7.025Z"/>
    <path fill="#F68B94" d="M102.296 305.427c-6.192 0-10.277-.687-10.433-1.991a.654.654 0 0 1-.005-.079c.001-2.205 11.008-5.296 24.807-6.946 5.718-.684 11.028-1.015 15.325-1.015 6.193 0 10.277.687 10.433 1.992a.498.498 0 0 1 .005.077c-.001 2.206-11.008 5.298-24.807 6.947-5.718.684-11.028 1.015-15.325 1.015Z"/>
    <path fill="#DADBD8" d="M106.032 352.013c.369 2.3 8.685 2.879 18.575 1.294 9.89-1.586 17.609-4.736 17.241-7.036-.369-2.299-8.685-2.879-18.576-1.294-9.89 1.586-17.609 4.736-17.24 7.036Z"/>
    <path fill="#F2575D" d="M107.117 350.14c.321 2 8.015 2.429 17.185.96 9.17-1.471 16.345-4.284 16.023-6.284-.32-2-8.013-2.429-17.184-.96-9.171 1.471-16.345 4.284-16.024 6.284Z"/>
    <path fill="#17282F" d="M86.152 289.331c.007-.048.847.012 2.36.16 1.511.161 3.704.332 6.413.474 2.71.154 5.943.2 9.529.116 3.584-.118 7.52-.386 11.626-.898a128.926 128.926 0 0 0 11.482-2.055c3.491-.82 6.609-1.677 9.193-2.508 2.586-.819 4.666-1.536 6.088-2.073 1.426-.523 2.225-.792 2.244-.747.018.044-.746.397-2.146.999-1.394.614-3.456 1.405-6.034 2.288-2.576.893-5.696 1.805-9.199 2.664a116.65 116.65 0 0 1-11.54 2.12 116.72 116.72 0 0 1-11.7.85c-3.606.048-6.854-.049-9.573-.266-2.717-.206-4.911-.452-6.415-.696-1.507-.231-2.335-.382-2.328-.428Z"/>
    <path fill="#33535F" d="m69.806 218.704 29.84 83.508-3.879 1.011-29.301-83.404 3.34-1.115Z"/>
    <path fill="#17282F" d="M80.698 278.595s-.042-.122.003-.356c.037-.243.24-.552.562-.879.663-.648 1.85-1.328 3.443-1.992 3.19-1.34 8.014-2.696 14.054-3.916 6.043-1.211 13.308-2.311 21.429-3.003 4.06-.337 8.335-.584 12.777-.572 2.221.011 4.483.076 6.775.308 1.147.12 2.3.278 3.455.547.575.147 1.152.304 1.719.56.529.26 1.224.589 1.409 1.449.028.879-.569 1.368-1.021 1.746-.491.382-1.015.672-1.539.95-1.059.534-2.143.96-3.229 1.347-2.174.767-4.358 1.364-6.514 1.897-4.314 1.06-8.528 1.83-12.553 2.459-8.057 1.244-15.376 1.888-21.534 2.136-6.157.24-11.165.059-14.581-.489-1.705-.271-3.018-.652-3.816-1.124-.39-.243-.659-.495-.753-.723-.099-.217-.086-.345-.086-.345.03-.022.079.537.909.946.789.416 2.09.751 3.786.978 3.397.462 8.384.569 14.519.266 6.135-.309 13.432-1.002 21.456-2.277 4.009-.645 8.205-1.424 12.489-2.487 2.142-.533 4.308-1.132 6.447-1.889 1.067-.38 2.131-.8 3.143-1.312.498-.264.996-.541 1.426-.879.431-.324.795-.77.762-1.116-.052-.342-.512-.689-1.008-.902-.498-.226-1.047-.378-1.594-.516-1.104-.259-2.236-.416-3.362-.534-2.256-.23-4.503-.301-6.708-.314-4.414-.023-8.674.21-12.722.528-8.097.654-15.351 1.701-21.386 2.846-6.033 1.155-10.856 2.435-14.048 3.684-1.594.622-2.78 1.254-3.449 1.844-.71.594-.626 1.148-.66 1.134ZM95.767 303.223c.092.348 1.032.404 2.102.122 1.069-.281 1.861-.79 1.77-1.14-.092-.348-1.033-.404-2.102-.122-1.07.28-1.862.79-1.77 1.14Z"/>
    <path fill="#FFBF9D" d="M43.624 324.651s-3.537 82.622-2.274 93.67c1.262 11.047 8.17 20.926 21.112 19.663 12.942-1.263 31.15-19.569 39.934-55.639l-21.984-17.421-13.188-33.911-23.6-6.362Z"/>
    <path fill="#FFBF9D" d="M100.96 291.66s-19.244 10.264-19.53 14.572c-.288 4.309 3.158 22.404 3.158 22.404s-2.01 6.319-1.723 10.052c.288 3.735 4.883 9.979 4.883 9.979l-15.107 26.36s10.781 14.212 18.545 14.5c7.763.286 10.348-1.15 11.21-7.182.862-6.032 6.894-19.53 6.894-19.53l7.467-6.607s15.51-5.317 18.382-7.541c2.872-2.224 6.032-5.56 4.309-8.056-1.724-2.498-4.883-2.675-7.181 0-2.298 2.673-13.787 4.497-18.957 4.16-5.169-.339 1.149-4.934 4.883-7.232s14.936-8.042 14.648-12.35c-.287-4.309-2.872-4.309-6.319-1.724-3.446 2.586-23.839 11.202-25.275 10.627-1.436-.573-2.872-1.148-2.585-4.02.287-2.872 20.393-15.957 20.68-17.744.287-1.787 1.723-7.244-3.734-5.808s-22.69 11.776-22.69 10.913c0-.861.862-6.892.862-6.892s9.478-8.33 10.627-10.914c1.149-2.586 1.149-7.891-3.447-7.967Z"/>
    <path fill="#6F3530" d="M62.773 390.221c-.04-.028.294-.62.923-1.67l2.646-4.47 8.752-14.733 8.835-14.691 2.736-4.417c.659-1.036 1.042-1.597 1.083-1.573.041.025-.264.632-.85 1.71l-2.546 4.53a984.376 984.376 0 0 1-8.661 14.796c-3.428 5.749-6.585 10.925-8.93 14.634a164.177 164.177 0 0 1-2.836 4.358c-.703 1.01-1.113 1.552-1.152 1.526Z"/>
    <path fill="#6F3530" d="M87.37 348.667c.148-.123 2.563 2.496 5.395 5.849 2.833 3.355 5.01 6.173 4.864 6.297-.147.124-2.561-2.494-5.395-5.849-2.832-3.353-5.01-6.173-4.863-6.297Z"/>
    <path fill="#DADBD8" d="M557.392 425.36c-.037.289-13.463 77.636-13.463 77.636l-38.524 1.42-15.02-79.457 33.006.197 34.001.204Z"/>
    <path fill="#F2575D" d="M551.221 451.181c-3.41 19.67-7.676 44.243-8.708 50.192l-35.73 1.317-9.748-51.566 54.186.057Z"/>
    <path fill="#F46F77" d="m506.737 502.454-9.702-51.33h.004c.249 2.332 12.244 4.316 27.021 4.451.531.004 1.059.006 1.581.006 13.694 0 24.671-1.634 25.476-3.794l-8.604 49.586h-.009a.679.679 0 0 0 .005-.09l-.001-.026c-.06-1.965-6.783-3.385-15.465-3.385-.824 0-1.667.012-2.523.039-9.829.302-17.752 2.28-17.748 4.422v.026l.005.07-.04.025ZM551.164 451.515a.787.787 0 0 0-.089-.335l.146.001-.057.334Z"/>
    <path fill="#DADBD8" d="M488.64 423.337c-.028 3.054 15.595 5.674 34.893 5.85 19.3.176 34.967-2.158 34.995-5.212.028-3.055-15.595-5.674-34.893-5.85-19.3-.176-34.968 2.158-34.995 5.212Z"/>
    <path fill="#F2575D" d="M497.035 451.044c-.022 2.365 12.078 4.393 27.025 4.531 14.948.136 27.083-1.672 27.104-4.038.021-2.365-12.079-4.393-27.025-4.529-14.948-.137-27.083 1.671-27.104 4.036Z"/>
    <path fill="#F68B94" d="M525.641 455.581c-.522 0-1.05-.002-1.581-.006-14.932-.136-27.023-2.162-27.025-4.524v-.007c.021-2.281 11.309-4.044 25.521-4.044.523 0 1.052.003 1.583.008 14.933.136 27.024 2.16 27.025 4.523v.006c-.021 2.283-11.309 4.044-25.523 4.044Z"/>
    <path fill="#DADBD8" d="M505.373 504.185c.076 2.475 8.766 4.216 19.41 3.888 10.642-.328 19.208-2.6 19.132-5.074-.076-2.475-8.766-4.216-19.408-3.888-10.644.327-19.21 2.6-19.134 5.074Z"/>
    <path fill="#F2575D" d="M506.772 502.359c.067 2.152 8.12 3.65 17.988 3.346 9.868-.303 17.815-2.294 17.748-4.448-.065-2.152-8.12-3.65-17.988-3.346-9.868.304-17.815 2.294-17.748 4.448Z"/>
    <path fill="#F46F77" d="M522.239 505.744c-8.683 0-15.407-1.42-15.467-3.385v-.026c-.004-2.142 7.919-4.12 17.748-4.422a80.08 80.08 0 0 1 2.523-.039c8.682 0 15.405 1.42 15.465 3.385l.001.026c.003 2.142-7.92 4.12-17.749 4.422-.856.027-1.697.039-2.521.039Z"/>
    <path fill="#17282F" d="M492.931 435.396c.005-.023.228.011.646.096l1.818.401c1.57.379 3.86.86 6.697 1.38 2.836.532 6.239 1.022 10.031 1.422 3.794.364 7.981.616 12.381.634 4.401-.009 8.591-.253 12.387-.608 3.793-.392 7.197-.874 10.034-1.4 2.839-.514 5.128-.99 6.699-1.365.724-.159 1.324-.289 1.819-.399.418-.082.641-.116.646-.093.007.024-.204.101-.61.229l-1.788.526c-1.555.456-3.835 1.006-6.674 1.585-2.837.589-6.25 1.125-10.061 1.553-3.813.394-8.025.658-12.452.667a124.607 124.607 0 0 1-12.449-.693c-3.808-.436-7.22-.979-10.056-1.575-2.838-.585-5.118-1.14-6.671-1.6l-1.788-.529c-.407-.128-.616-.207-.609-.231Z"/>
    <path fill="#33535F" d="m485.293 358.713 20.114 92.098-4.227.538-19.56-91.916 3.673-.72Z"/>
    <path fill="#17282F" d="M488.64 423.337s-.028-.133.052-.374c.073-.251.328-.548.712-.848.788-.591 2.131-1.146 3.901-1.628 3.546-.976 8.815-1.748 15.348-2.211 6.536-.455 14.344-.625 23-.249 4.326.196 8.866.517 13.547 1.134 2.339.311 4.715.69 7.1 1.246 1.191.281 2.385.604 3.564 1.044.585.233 1.173.476 1.733.821.522.344 1.202.785 1.278 1.701-.087.915-.776 1.348-1.303 1.683-.567.335-1.157.569-1.748.792-1.187.419-2.387.72-3.584.98-2.395.512-4.779.847-7.124 1.116-4.691.532-9.237.769-13.568.887-8.661.218-16.465-.095-22.992-.668-6.523-.583-11.777-1.451-15.305-2.492-1.76-.515-3.092-1.094-3.87-1.698-.378-.308-.628-.609-.696-.861-.076-.243-.045-.375-.045-.375.032-.02.005.579.825 1.124.776.548 2.103 1.079 3.86 1.55 3.519.952 8.763 1.745 15.272 2.262 6.511.51 14.299.771 22.934.519 4.314-.136 8.845-.387 13.508-.924 2.329-.272 4.696-.608 7.056-1.116 1.177-.256 2.356-.555 3.494-.957.562-.212 1.124-.436 1.627-.735.5-.284.951-.705.965-1.091-.01-.386-.456-.814-.95-1.108-.496-.306-1.056-.541-1.614-.762-1.13-.423-2.304-.743-3.476-1.02-2.349-.551-4.708-.93-7.032-1.244-4.65-.623-9.174-.956-13.486-1.17-8.627-.409-16.418-.289-22.936.1-6.519.399-11.778 1.096-15.314 1.983-1.765.439-3.101.947-3.886 1.48-.831.531-.816 1.129-.847 1.109ZM501.18 451.349c.049.38 1.035.567 2.2.416 1.165-.15 2.069-.581 2.02-.961-.048-.38-1.033-.567-2.199-.416-1.165.151-2.07.581-2.021.961Z"/>
    <path fill="#DADBD8" d="M391.639 492.454c0 24.73-40.814 44.778-91.162 44.778-50.346 0-91.161-20.048-91.161-44.778 0-24.731 40.815-44.779 91.161-44.779 50.348 0 91.162 20.048 91.162 44.779Z"/>
    <path fill="#17282F" d="M383.367 497.05s-.05.155-.16.453l-.502 1.317c-.196.591-.553 1.269-.954 2.083-.368.83-.939 1.71-1.548 2.718a36.344 36.344 0 0 1-5.52 6.546c-2.438 2.294-5.515 4.582-9.151 6.705-7.263 4.302-16.779 7.727-27.523 10.571a162.24 162.24 0 0 1-17.109 3.424c-5.993.865-12.253 1.365-18.672 1.505-12.845.265-25.096-1.051-35.964-3.443-10.877-2.369-20.336-6.015-27.643-10.203-.457-.259-.916-.505-1.357-.767-.436-.272-.865-.542-1.289-.809-.844-.539-1.691-1.026-2.452-1.593l-2.259-1.59-2.035-1.61c-.326-.262-.653-.512-.961-.77-.301-.27-.596-.533-.885-.794l-1.667-1.496a204.962 204.962 0 0 1-2.745-2.794l-2.032-2.378c-.591-.688-1.01-1.333-1.388-1.822l-.832-1.138c-.186-.257-.275-.393-.275-.393s.105.125.3.376l.855 1.119c.386.482.812 1.122 1.408 1.802.594.683 1.28 1.469 2.049 2.355.823.837 1.74 1.768 2.757 2.769l1.672 1.484c.29.258.586.519.886.787.309.256.637.504.964.762.656.516 1.334 1.047 2.036 1.597l2.258 1.577c.762.561 1.608 1.044 2.451 1.58l1.288.801c.441.261.9.504 1.357.762 14.572 8.423 37.858 14.04 63.496 13.53 6.407-.14 12.655-.636 18.638-1.495a163.012 163.012 0 0 0 17.082-3.402c10.73-2.824 20.235-6.222 27.484-10.487 3.632-2.102 6.706-4.37 9.143-6.645a36.414 36.414 0 0 0 5.537-6.487c.615-.998 1.191-1.87 1.567-2.695.408-.806.772-1.481.977-2.065.231-.568.407-1.004.528-1.305.122-.293.19-.442.19-.442Z"/>
    <path fill="#E8E9E6" d="M251.58 520.999s-39.389-14.638-28.181-39.963c0 0 2.71-7.91 14.161-15.445a14.526 14.526 0 0 0 .361 4.448c-5.849 1.672-9.958 6.862-10.358 12.82v.001a.23.23 0 0 0-.003.037l-.001.007-.002.033-.001.013-.001.027-.002.019-.001.023-.001.025v.016l-.003.036v.007a14.38 14.38 0 0 0 .177 3.078 14.281 14.281 0 0 0 .582 2.312l.006.02.007.018v.001a14.364 14.364 0 0 0 8.064 8.563 73.62 73.62 0 0 0-.169 4.776c.001 2.757.208 4.821.612 5.465l.001.001.003.004.001.003.003.003.002.003.002.004.002.003.002.002.004.006c.31.454 1.097.675 2.145.743.24.015.495.021.76.021.189 0 .385-.003.585-.01l.176-.007h.003l.02-.001h.025c.003-.002.006-.002.008-.002h.016l.01-.001h.024l.016-.001h.009c.004-.002.009-.002.015-.002h.01l.01-.001a.54.54 0 0 0 .056-.003h.005l.021-.001h.002l.02-.001h.005l.019-.002h.004l.02-.001h.004c1.422-.084 3.03-.312 4.518-.572 6.114 5.821 12.534 8.581 12.534 8.581l-6.307 4.894Z"/>
    <path fill="#F57F62" d="M250.445 506.452s-12.125 3.063-13.598.914c-1.474-2.15-.411-22.706 3.628-28.183 4.038-5.476 20.284 4.201 20.284 4.201l-10.314 23.068Z"/>
    <path fill="#C25D43" d="M240.513 508.112h.003-.003Zm.023-.001h.009-.009Zm-1.544-.003c-1.048-.068-1.835-.289-2.145-.743.31.454 1.098.675 2.145.743Zm1.748-.007.021-.001-.021.001Zm.023-.001.02-.001-.02.001Zm.025-.001.019-.002-.019.002Zm.047-.003c1.625-.096 3.494-.38 5.15-.685-1.654.305-3.525.589-5.15.685Zm-3.992-.737-.002-.002s0 .002.002.002Zm-.008-.012-.003-.003c.001.001.001.003.003.003Zm-.008-.011c-.404-.644-.611-2.708-.612-5.465a73.62 73.62 0 0 1 .17-4.775c-.33 4.993-.173 9.258.442 10.24Z"/>
    <path fill="#F2575D" d="M227.725 486.181c1.296 7.82 8.686 13.111 16.507 11.815 7.82-1.296 13.109-8.687 11.815-16.507-1.296-7.821-8.687-13.11-16.507-11.814-7.821 1.296-13.111 8.685-11.815 16.506Z"/>
    <path fill="#F2575D" d="M237.715 469.019c1.296 7.82 8.686 13.109 16.506 11.814 7.822-1.296 13.111-8.686 11.815-16.506-1.295-7.822-8.685-13.111-16.507-11.815-7.82 1.295-13.109 8.685-11.814 16.507Z"/>
    <path fill="#F2575D" d="M252.113 456.297c1.296 7.822 8.686 13.111 16.507 11.815 7.82-1.295 13.111-8.685 11.815-16.505-1.296-7.822-8.687-13.111-16.507-11.815-7.821 1.295-13.111 8.685-11.815 16.505Z"/>
    <path fill="#33535F" d="M325.795 462.219c3.198-1.211 7.106-.216 9.338 2.376 2.231 2.593 2.632 6.605.958 9.589 1.813 1.18 2.381 3.704 1.81 5.79-.572 2.087-2.053 3.801-3.64 5.271-.954.886-2.184 1.767-3.445 1.448-1.212-.308-1.876-1.574-2.392-2.713l-8.821-19.465 6.192-2.296Z"/>
    <path fill="#33535F" d="M242.727 485.341c-1.791-1.006-3.566-2.141-4.842-3.752-1.277-1.611-1.993-3.787-1.42-5.761.574-1.974 2.679-3.523 4.68-3.056-.864-6.504 4.7-13.125 11.256-13.393-1.04-3.523.12-7.598 2.859-10.046 2.739-2.448 6.916-3.145 10.301-1.72.618-4.612 1.506-9.712 5.187-12.556 3.659-2.826 8.768-3.97 13.36-3.43 3.947.462 8.408 2.766 10.619 6.069 2.837-2.755 6.972-4.109 10.889-3.568 3.917.541 7.529 2.968 9.512 6.389 1.271-1.964 4.147-2.488 6.248-1.458 2.1 1.029 3.407 3.297 3.729 5.614.324 2.316-.217 4.675-1.042 6.864 3.528-.705 7.374 1.904 8.022 5.443.65 3.537-2.021 7.343-5.569 7.935l-74.808 39.314c-4.932 2.248-11.457-.13-13.784-5.025-2.328-4.895-.053-11.457 4.803-13.863Z"/>
    <path fill="#17282F" d="M301.773 453.531c-.18-.026.136-3.039 1.231-6.598 1.083-3.564 2.507-6.237 2.671-6.157.184.083-.94 2.849-2.007 6.36-1.08 3.507-1.696 6.428-1.895 6.395ZM285.447 454.659c-.191.053-1.204-2.987-2.55-6.694-1.338-3.712-2.506-6.696-2.325-6.776.169-.077 1.629 2.8 2.977 6.539 1.356 3.735 2.076 6.881 1.898 6.931ZM258.84 455.184c.125-.152 2.172 1.357 4.731 3.152 2.556 1.803 4.668 3.217 4.568 3.387-.094.161-2.384-.998-4.967-2.819-2.587-1.813-4.453-3.579-4.332-3.72ZM246.647 476.321c.077-.181 2.441.667 5.38 1.619 2.936.959 5.346 1.663 5.302 1.855-.04.181-2.546-.226-5.517-1.195-2.972-.963-5.24-2.108-5.165-2.279ZM309.224 461.649c-.075-.034.239-.917 1.028-2.196.78-1.285 2.077-2.902 3.547-4.616 1.469-1.714 2.721-3.304 3.49-4.55.78-1.238 1.146-2.079 1.252-2.039.075.024-.132.943-.825 2.283-.681 1.346-1.912 3.034-3.388 4.756-1.475 1.72-2.804 3.254-3.669 4.442-.875 1.179-1.336 1.97-1.435 1.92Z"/>
    <path fill="#F57F62" d="M337.563 489.209s-11.031-49.402-56.51-38.737c0 0-16.945 4.229-25.321 25.825-8.377 21.596-9.844 31.693-9.844 31.693s91.348-13.888 91.675-18.781Z"/>
    <path fill="#A7A9A8" d="M239.693 459.08a14.316 14.316 0 0 0 .002 0h-.002Z"/>
    <path fill="#8F9192" d="M237.56 465.591a14.33 14.33 0 0 1 2.133-6.511h.002a14.32 14.32 0 0 0-2.135 6.511Z"/>
    <path fill="#78403A" d="M261.543 440.397Z"/>
    <path fill="#A7A9A8" d="M294.727 437.696c-2.115-3.159-6.287-5.403-10.099-5.999 3.813.596 7.984 2.84 10.099 5.999Z"/>
    <path fill="#989A9A" d="M240.644 508.107c.005-.002.009-.002.015-.002-.006 0-.011 0-.015.002Zm-12.341-19.626Zm-.752-5.437.001-.025-.001.025Zm.002-.048.002-.018-.002.018Zm.01-.136v-.001.001Z"/>
    <path fill="#7F3D2D" d="M239.752 508.129c-.265 0-.52-.006-.76-.021-1.047-.068-1.835-.289-2.145-.742l-.004-.007c-.002 0-.002-.002-.002-.002l-.002-.003-.002-.004-.002-.003c-.002 0-.002-.002-.003-.003l-.001-.003-.003-.004-.001-.001c-.615-.981-.772-5.246-.442-10.24.299.124.603.237.911.342.149.605.357 1.197.628 1.766 1.555 3.269 4.98 5.416 8.553 5.812a59.955 59.955 0 0 0-.492 2.395c-1.656.305-3.525.589-5.15.685h-.004l-.02.001h-.004l-.019.002h-.005l-.02.001h-.002l-.021.002h-.005a1.086 1.086 0 0 1-.056.002l-.01.001h-.01c-.006 0-.01 0-.015.002h-.009a.08.08 0 0 0-.016.001h-.024a.038.038 0 0 1-.01.001h-.016c-.002 0-.005 0-.008.002h-.025l-.02.001h-.003l-.176.007c-.2.007-.396.01-.585.01Z"/>
    <path fill="#CC4341" d="M237.296 497.438a15.069 15.069 0 0 1-.911-.342v-.004a14.36 14.36 0 0 1-8.065-8.56v-.001l-.007-.017-.006-.021-.004-.012a14.387 14.387 0 0 1-.578-2.3 14.38 14.38 0 0 1-.177-3.078v-.007l.003-.036v-.016l.001-.025.001-.023.002-.018.001-.028.001-.013.002-.033.001-.007a.24.24 0 0 1 .003-.037v-.001c.4-5.957 4.51-11.144 10.36-12.818a14.261 14.261 0 0 0 1.061 2.951c-1.177.505-2.156 1.587-2.519 2.836-.573 1.975.143 4.151 1.42 5.762 1.276 1.61 3.051 2.745 4.842 3.751-4.292 2.126-6.567 7.497-5.431 12.097Z"/>
    <path fill="#CC4341" d="M238.984 472.992a14.261 14.261 0 0 1-1.061-2.951l.004-.001c-.08-.336-.155-.675-.212-1.021a14.526 14.526 0 0 1-.155-3.428 14.32 14.32 0 0 1 2.135-6.511 14.316 14.316 0 0 1 12.188-6.759h.126a14.424 14.424 0 0 0 .047 3.604 9.53 9.53 0 0 0 .345 3.454c-6.556.268-12.12 6.889-11.256 13.393a3.189 3.189 0 0 0-.73-.084c-.491 0-.976.109-1.431.304Z"/>
    <path fill="#CC4341" d="M252.056 455.925a14.424 14.424 0 0 1-.047-3.604h.004c.614-5.38 4.25-10.038 9.419-11.884.007-.002.013-.005.02-.006.004-.003.011-.004.015-.007.009-.003.018-.005.026-.009a.056.056 0 0 1 .012-.004l.035-.012c.001 0 .003 0 .003-.002a14.462 14.462 0 0 1 5.853-.756c-1.029 2.467-1.477 5.302-1.835 7.972a9.576 9.576 0 0 0-3.709-.732c-2.397 0-4.803.852-6.592 2.452-1.869 1.671-3.003 4.099-3.204 6.592Z"/>
    <path fill="#20353D" d="M246.477 505.016c-3.573-.396-6.998-2.543-8.553-5.812a9.259 9.259 0 0 1-.628-1.765c-1.136-4.6 1.139-9.972 5.431-12.098-1.791-1.006-3.566-2.141-4.842-3.751-1.277-1.611-1.993-3.787-1.42-5.762.363-1.249 1.342-2.331 2.519-2.836.455-.195.94-.304 1.431-.304.242 0 .488.027.73.084-.864-6.504 4.7-13.125 11.256-13.393a9.53 9.53 0 0 1-.345-3.454c.201-2.493 1.335-4.921 3.204-6.592 1.789-1.6 4.195-2.452 6.592-2.452 1.269 0 2.537.239 3.709.732.358-2.67.806-5.505 1.835-7.972.003 0 .004 0 .005.002.734-1.755 1.756-3.324 3.254-4.514l.004-.002.012-.01.008-.006.01-.008.011-.008.008-.007.013-.011.007-.005.02-.015c.563-.434 1.16-.83 1.784-1.185 2.731-1.553 5.981-2.345 9.152-2.375h.215c.701 0 1.4.039 2.085.115l.032.004a.562.562 0 0 1 .045.005c.016.002.032.003.047.006.172.02.345.044.52.07 3.812.596 7.984 2.84 10.099 5.999 1.972-1.916 4.573-3.155 7.292-3.549.621-.09 1.249-.136 1.877-.136.575 0 1.149.038 1.72.117 3.917.541 7.529 2.968 9.512 6.389.844-1.305 2.397-1.974 3.961-1.974a5.4 5.4 0 0 1 .555.028 5.132 5.132 0 0 1 1.877.562c1.916 1.01 3.143 3.062 3.531 5.206a15.325 15.325 0 0 0-3.027-.684 19.074 19.074 0 0 0-2.238-.13c-3.954 0-8.05 1.187-11.122 3.56-1.292.998-2.24 2.274-2.952 3.708a38.945 38.945 0 0 0-2.877-.782c.239-.868.515-1.846.832-2.875 1.067-3.511 2.191-6.277 2.007-6.36l-.008-.003c-.198 0-1.596 2.648-2.663 6.16a36.407 36.407 0 0 0-.773 2.943c-2.746-.589-5.69-.912-8.844-.912-2.866 0-5.903.267-9.126.843a57.13 57.13 0 0 0-.712-2.079c-1.33-3.689-2.77-6.54-2.97-6.54l-.007.001c-.181.08.987 3.064 2.325 6.776.248.682.484 1.342.706 1.964-.838.159-1.687.34-2.55.543 0 0-7.55 1.884-15.062 9.56-.704-.495-1.536-1.072-2.42-1.696-2.44-1.712-4.414-3.163-4.702-3.163-.013 0-.024.003-.029.011-.121.141 1.745 1.907 4.332 3.72a38.824 38.824 0 0 0 2.397 1.565c-3.6 3.786-7.157 8.918-9.837 15.828-.333.86-.656 1.699-.968 2.523-.801-.257-1.739-.554-2.737-.88-2.668-.864-4.863-1.643-5.302-1.643-.045 0-.07.008-.078.024-.075.171 2.193 1.316 5.165 2.279.989.323 1.928.584 2.74.781-4.936 13.103-7.153 21.527-8.075 25.635Z"/>
    <path fill="#0F191D" d="M302.836 450.011c-.2-.047-.401-.091-.605-.135.194-.892.45-1.893.773-2.943 1.067-3.512 2.465-6.16 2.663-6.16l.008.003c.184.083-.94 2.849-2.007 6.36a98.783 98.783 0 0 0-.832 2.875ZM283.603 449.929c-.222-.622-.458-1.282-.706-1.964-1.338-3.712-2.506-6.696-2.325-6.776l.007-.001c.2 0 1.64 2.851 2.97 6.54.263.721.5 1.42.712 2.079-.218.04-.437.08-.658.122ZM265.569 460.469a38.824 38.824 0 0 1-2.397-1.565c-2.587-1.813-4.453-3.579-4.332-3.72.005-.008.016-.011.029-.011.288 0 2.262 1.451 4.702 3.163.884.624 1.716 1.201 2.42 1.696-.14.144-.282.289-.422.437ZM254.552 479.381a37.148 37.148 0 0 1-2.74-.781c-2.972-.963-5.24-2.108-5.165-2.279.008-.016.033-.024.078-.024.439 0 2.634.779 5.302 1.643.998.325 1.936.622 2.737.88l-.212.561Z"/>
    <path fill="#C25D43" d="M245.888 507.99v-.009c.007-.041.037-.233.097-.57.088-.487.243-1.283.492-2.395.922-4.108 3.139-12.532 8.075-25.635l.212-.561c.312-.824.635-1.663.968-2.523 2.68-6.91 6.237-12.042 9.837-15.828.14-.148.282-.293.422-.437 7.512-7.676 15.062-9.56 15.062-9.56a59.898 59.898 0 0 1 2.55-.543c.221-.042.44-.082.658-.122 3.223-.576 6.26-.843 9.126-.843 3.154 0 6.098.323 8.844.912a38.945 38.945 0 0 1 3.482.917c-.142.286-.274.578-.398.874a14.396 14.396 0 0 0-3.47.153c-7.697 1.275-12.942 8.452-11.872 16.133a9.51 9.51 0 0 0 .346 3.454c-6.556.267-12.12 6.889-11.256 13.393a3.204 3.204 0 0 0-.731-.084c-1.76 0-3.447 1.407-3.949 3.141-.574 1.974.142 4.151 1.418 5.76.292.368.61.712.948 1.035-.816 2.414-1.434 5.5-1.866 8.673-16.103 2.706-28.983 4.663-28.995 4.665Zm14.297-15.043a.897.897 0 0 0-.025 1.793h.025a.895.895 0 0 0 .026-1.792l-.026-.001Zm15.736-14.727a1.707 1.707 0 0 0-.004 3.412 1.707 1.707 0 0 0 1.686-1.985 1.708 1.708 0 0 0-1.682-1.427Zm-3.517-12.995a.897.897 0 1 0 .025 0h-.025Z"/>
    <path fill="#7F3D2D" d="M275.917 481.632a1.706 1.706 0 1 1 .005-3.413 1.706 1.706 0 0 1-.005 3.413ZM260.185 494.74h-.025a.897.897 0 1 1 .025 0ZM272.405 467.019c-.009 0-.017 0-.026-.002a.897.897 0 0 1 .025-1.792h.025a.897.897 0 0 1-.024 1.794Z"/>
    <path fill="#F57F62" d="M288.363 518.48s-12.127 3.063-13.599.913c-1.473-2.149-.412-22.705 3.628-28.182 4.039-5.476 20.284 4.201 20.284 4.201l-10.313 23.068Z"/>
    <path fill="#C25D43" d="M277.669 520.159c-1.421 0-2.522-.207-2.905-.766-.417-.609-.632-2.693-.632-5.494-.001-5.58.845-14.002 2.617-19.247 1.142 1.088 2.514 1.94 3.895 2.717-4.857 2.406-7.131 8.968-4.803 13.863 1.554 3.269 4.98 5.416 8.554 5.812a58.567 58.567 0 0 0-.492 2.394c-2.039.376-4.402.721-6.234.721Z"/>
    <path fill="#F2575D" d="M265.643 498.209c1.294 7.822 8.685 13.111 16.506 11.815 7.82-1.296 13.11-8.686 11.815-16.507-1.296-7.82-8.687-13.11-16.507-11.815-7.821 1.297-13.11 8.686-11.814 16.507Z"/>
    <path fill="#F2575D" d="M275.632 481.047c1.296 7.82 8.687 13.109 16.507 11.814 7.821-1.295 13.11-8.687 11.814-16.506-1.296-7.822-8.685-13.111-16.506-11.815-7.82 1.295-13.11 8.686-11.815 16.507Z"/>
    <path fill="#F2575D" d="M290.031 468.325c1.294 7.822 8.685 13.111 16.506 11.816 7.82-1.296 13.11-8.686 11.815-16.506-1.296-7.822-8.687-13.111-16.507-11.815-7.821 1.295-13.11 8.685-11.814 16.505Z"/>
    <path fill="#33535F" d="M363.711 474.247c3.2-1.211 7.108-.216 9.338 2.377 2.232 2.592 2.634 6.605.958 9.588 1.814 1.18 2.382 3.704 1.81 5.791-.57 2.086-2.052 3.8-3.64 5.27-.953.886-2.182 1.767-3.445 1.448-1.211-.306-1.875-1.574-2.391-2.713l-8.821-19.465 6.191-2.296Z"/>
    <path fill="#33535F" d="M280.644 497.369c-1.791-1.007-3.565-2.141-4.843-3.752-1.276-1.609-1.992-3.786-1.418-5.76.573-1.974 2.677-3.524 4.68-3.057-.864-6.504 4.7-13.126 11.256-13.393-1.04-3.523.12-7.598 2.857-10.046 2.739-2.448 6.917-3.145 10.303-1.718.617-4.612 1.504-9.712 5.186-12.558 3.659-2.826 8.768-3.969 13.36-3.43 3.947.462 8.408 2.766 10.618 6.069 2.837-2.755 6.973-4.109 10.89-3.568 3.918.543 7.53 2.968 9.512 6.389 1.271-1.964 4.147-2.488 6.247-1.458 2.1 1.03 3.407 3.298 3.731 5.614.324 2.316-.218 4.676-1.043 6.864 3.527-.705 7.373 1.904 8.023 5.443.649 3.537-2.022 7.342-5.57 7.935l-74.808 39.314c-4.932 2.248-11.457-.131-13.784-5.025-2.328-4.895-.054-11.457 4.803-13.863Z"/>
    <path fill="#17282F" d="M339.689 465.559c-.178-.026.136-3.039 1.232-6.598 1.083-3.562 2.507-6.237 2.67-6.157.184.084-.939 2.849-2.006 6.36-1.08 3.507-1.696 6.428-1.896 6.395ZM323.364 466.687c-.191.053-1.204-2.987-2.549-6.694-1.34-3.712-2.507-6.696-2.326-6.776.168-.077 1.63 2.802 2.978 6.539 1.356 3.735 2.076 6.881 1.897 6.931ZM296.757 467.212c.126-.152 2.172 1.357 4.731 3.153 2.556 1.802 4.667 3.216 4.568 3.385-.093.162-2.385-.996-4.968-2.818-2.585-1.813-4.452-3.577-4.331-3.72ZM284.564 488.349c.077-.181 2.441.667 5.379 1.619 2.937.959 5.348 1.663 5.302 1.855-.038.182-2.546-.226-5.517-1.195-2.971-.962-5.239-2.108-5.164-2.279ZM347.141 473.678c-.074-.034.238-.918 1.028-2.197.779-1.284 2.078-2.902 3.547-4.616 1.469-1.714 2.721-3.304 3.491-4.55.78-1.238 1.145-2.079 1.252-2.039.073.024-.134.943-.827 2.283-.68 1.346-1.911 3.034-3.387 4.756-1.476 1.721-2.804 3.254-3.67 4.442-.874 1.179-1.335 1.969-1.434 1.921Z"/>
    <path fill="#F57F62" d="M375.48 501.237s-11.031-49.402-56.511-38.737c0 0-16.945 4.229-25.321 25.825-8.376 21.596-9.844 31.694-9.844 31.694s91.348-13.888 91.676-18.782Z"/>
    <path fill="#C25D43" d="M357.436 482.96a1.706 1.706 0 1 1 .003-3.411 1.706 1.706 0 0 1-.003 3.411ZM313.835 493.66a1.707 1.707 0 1 1 .003-3.41 1.707 1.707 0 0 1-.003 3.41ZM352.744 494.884l-.027-.001a.897.897 0 0 1 .026-1.792h.025a.897.897 0 0 1-.024 1.793ZM298.103 506.768h-.026a.897.897 0 0 1 .024-1.794l.027.002a.896.896 0 0 1-.025 1.792ZM341.007 476.916h-.026a.897.897 0 1 1 .026 0ZM310.321 479.047h-.025a.898.898 0 0 1 .025-1.793h.026a.896.896 0 0 1-.026 1.793Z"/>
    <path fill="#16223C" d="M506.846 141.851c.841.41 1.64.875 2.348 1.395 3.069 2.249 4.119 5.193 3.322 9.272-1.109 5.66-3 9.655-5.771 12.218-3.519 3.242-8.437 4.191-15.039 2.898-4.132-.811-8.049-3.649-10.748-7.789-2.725-4.184-3.792-9.1-2.938-13.492.802-4.058 3.024-6.547 6.809-7.599 3.119-.866 7.247-.776 12.625.277 2.952.579 6.485 1.404 9.392 2.82Zm-19.697 26.831a16.583 16.583 0 0 0 4.076 1.381c7.335 1.438 13.122.259 17.197-3.508 3.178-2.93 5.309-7.367 6.527-13.559.974-4.993-.469-8.945-4.292-11.748-3.55-2.604-8.662-3.849-12.721-4.645-5.767-1.13-10.272-1.207-13.774-.236-4.707 1.309-7.591 4.509-8.569 9.512-.984 5.015.215 10.598 3.293 15.32 2.165 3.327 5.064 5.924 8.263 7.483ZM467.606 143.706c-.854 4.391-3.697 8.543-7.799 11.395-4.055 2.82-8.751 3.977-12.88 3.175-6.612-1.289-10.811-4.017-12.85-8.347-1.601-3.414-1.849-7.827-.747-13.488.79-4.082 2.879-6.412 6.566-7.342 3.794-.956 8.651-.227 12.456.511 5.38 1.048 9.239 2.516 11.809 4.494 3.106 2.398 4.234 5.539 3.445 9.602Zm-28.054 14.783c1.989.968 4.293 1.71 6.901 2.217 4.784.93 10.166-.372 14.768-3.571 4.627-3.216 7.842-7.937 8.813-12.957.977-5.001-.496-9.052-4.365-12.037-2.871-2.216-7.073-3.839-12.843-4.962-4.063-.791-9.271-1.56-13.535-.481-4.601 1.157-7.423 4.277-8.395 9.268-1.205 6.196-.894 11.11.94 15.018 1.523 3.236 4.109 5.747 7.716 7.505Z"/>
    <path fill="#16223C" d="M468.231 139.849c.242.118.53.16.813.095 5.603-1.252 9.485 1.139 9.528 1.165a1.228 1.228 0 0 0 1.701-.385 1.234 1.234 0 0 0-.369-1.703c-.191-.124-4.746-2.981-11.401-1.494a1.243 1.243 0 0 0-.941 1.478c.089.384.344.686.669.844ZM514.005 150.262c.327.404.862.627 1.449.551 6.129-.853 16.902-1.457 19.717.557.718.511 1.758.324 2.325-.419.567-.742.446-1.759-.277-2.277-4.742-3.386-20.268-1.344-22.026-1.103-.911.128-1.594.953-1.524 1.847.024.321.146.61.336.844Z"/>
  </g>
  <defs>
    <clipPath id="a">
      <path fill="#fff" d="M0 0h617.16v604.773H0z"/>
    </clipPath>
  </defs>
</svg>
