<svg xmlns="http://www.w3.org/2000/svg" width="483" height="462" fill="none">
  <path fill="#EBEBEB" d="M109.596 119.398c-.38 1.285-6.916 11.581-16.337 15.086-9.421 3.505-16.432 7.372-13.814 11.988 2.618 4.617 14.193 2.098 14.193 2.098s-23.484 25.532-1.376 40.12c26.963 17.792 55.138-45.893 55.138-45.893l-37.804-23.399Z"/>
  <path fill="#FECFB1" fill-opacity=".4" d="M109.596 119.398c-.38 1.285-6.916 11.581-16.337 15.086-9.421 3.505-16.432 7.372-13.814 11.988 2.618 4.617 14.193 2.098 14.193 2.098s-23.484 25.532-1.376 40.12c26.963 17.792 55.138-45.893 55.138-45.893l-37.804-23.399Z"/>
  <path fill="#E0E0E0" d="M142.962 151.539c-.073.12-8.963-5.177-19.852-11.83-10.893-6.656-19.661-12.147-19.587-12.267.073-.12 8.961 5.176 19.854 11.831 10.889 6.653 19.659 12.146 19.585 12.266ZM138.788 159.175c-.073.121-9.675-5.514-21.444-12.584-11.773-7.073-21.255-12.902-21.183-13.023.072-.121 9.672 5.513 21.446 12.586 11.77 7.07 21.254 12.901 21.181 13.021ZM133.75 166.412c-.073.121-10.854-6.223-24.079-14.167-13.23-7.947-23.89-14.485-23.818-14.606.073-.121 10.852 6.221 24.081 14.169 13.224 7.944 23.888 14.484 23.816 14.604ZM127.46 175.367c-.075.119-8.431-4.977-18.661-11.381-10.234-6.407-18.467-11.695-18.392-11.815.075-.12 8.429 4.975 18.663 11.382 10.231 6.404 18.465 11.694 18.39 11.814ZM120.07 184.014c-.078.117-7.859-4.903-17.377-11.212-9.521-6.311-17.174-11.521-17.096-11.639.078-.118 7.857 4.902 17.378 11.213 9.518 6.31 17.173 11.521 17.095 11.638ZM110.634 190.013c-.017.031-.436-.168-1.178-.554-.743-.385-1.806-.964-3.108-1.699a212.184 212.184 0 0 1-10.004-6.04 212.93 212.93 0 0 1-9.666-6.571 108.314 108.314 0 0 1-2.841-2.115c-.66-.513-1.016-.811-.995-.839.02-.029.415.214 1.11.678l2.933 1.981a456.536 456.536 0 0 0 9.734 6.437 453.426 453.426 0 0 0 9.911 6.158l3.024 1.838c.712.438 1.097.695 1.08.726ZM88.522 149.152c-.038.122-2.522-.666-5.211-2.388-2.698-1.708-4.463-3.626-4.368-3.712.105-.113 1.996 1.607 4.642 3.281 2.637 1.69 4.995 2.676 4.937 2.819Z"/>
  <path fill="#E0E0E0" d="M145.649 141.471c.014.01-.102.2-.337.552l-1.048 1.525a317.142 317.142 0 0 1-3.964 5.532 565.232 565.232 0 0 1-13.615 17.855 563.73 563.73 0 0 1-14.312 17.307 317.688 317.688 0 0 1-4.491 5.113l-1.248 1.366c-.29.309-.448.465-.461.453-.013-.012.119-.191.384-.521l1.176-1.429 4.366-5.217a914.568 914.568 0 0 0 14.187-17.391 914.547 914.547 0 0 0 13.725-17.753l4.093-5.434 1.125-1.469c.261-.33.405-.499.42-.489ZM138.006 136.023c.111.087-9.254 12.308-20.915 27.293-11.665 14.991-21.209 27.069-21.32 26.982-.111-.087 9.252-12.305 20.917-27.296 11.661-14.985 21.206-27.065 21.318-26.979ZM127.344 129.981c.015.009-.09.217-.304.607l-.959 1.69a146.7 146.7 0 0 1-3.76 6.078c-3.272 5.072-8.14 11.854-13.878 19.054-5.734 7.208-11.156 13.537-15.069 18.125l-4.662 5.41-1.287 1.454c-.299.329-.462.496-.475.484-.014-.011.123-.201.397-.551l1.214-1.516 4.538-5.514c3.842-4.648 9.219-11.012 14.945-18.21 5.73-7.191 10.633-13.923 13.976-18.935a242.854 242.854 0 0 0 3.891-5.982l1.041-1.639c.242-.373.377-.564.392-.555ZM118.596 124.97c.112.086-7.87 10.652-17.825 23.597-9.959 12.949-18.12 23.374-18.232 23.288-.112-.086 7.868-10.65 17.827-23.599 9.955-12.946 18.118-23.372 18.23-23.286ZM112.015 120.684c.03.019-.27.52-.84 1.41-.28.449-.635.989-1.085 1.591-.445.605-.928 1.313-1.535 2.038-1.164 1.492-2.667 3.175-4.439 4.943a61.185 61.185 0 0 1-6.193 5.28 61.213 61.213 0 0 1-6.892 4.332c-2.217 1.162-4.273 2.094-6.045 2.758-.874.363-1.694.612-2.404.856-.708.249-1.33.426-1.842.559-1.02.277-1.587.413-1.596.38-.01-.034.539-.235 1.538-.57a29.957 29.957 0 0 0 1.807-.639c.698-.268 1.504-.539 2.364-.922 1.743-.703 3.768-1.661 5.955-2.837a65.92 65.92 0 0 0 6.813-4.329 65.831 65.831 0 0 0 6.167-5.205c1.775-1.735 3.295-3.38 4.487-4.834.622-.706 1.122-1.394 1.586-1.98.469-.583.846-1.104 1.15-1.534.618-.852.974-1.316 1.004-1.297ZM157.761 106.613H32.355v13.241h125.406v-13.241Z"/>
  <path fill="#F4BF3C" fill-opacity=".2" d="M157.761 106.613H32.355v13.241h125.406v-13.241Z"/>
  <path fill="#F5F5F5" d="M72.113 119.398c-.38 1.285-6.917 11.581-16.337 15.086-9.421 3.505-16.432 7.372-13.814 11.988 2.618 4.617 14.193 2.098 14.193 2.098s-23.484 25.532-1.376 40.12c26.963 17.792 55.138-45.893 55.138-45.893l-37.804-23.399Z"/>
  <path fill="#F4BF3C" fill-opacity=".2" d="M72.113 119.398c-.38 1.285-6.917 11.581-16.337 15.086-9.421 3.505-16.432 7.372-13.814 11.988 2.618 4.617 14.193 2.098 14.193 2.098s-23.484 25.532-1.376 40.12c26.963 17.792 55.138-45.893 55.138-45.893l-37.804-23.399Z"/>
  <path fill="#E0E0E0" d="M105.479 151.539c-.074.12-8.963-5.177-19.852-11.83-10.893-6.656-19.661-12.147-19.587-12.267.074-.12 8.961 5.176 19.854 11.831 10.889 6.653 19.659 12.146 19.585 12.266ZM101.305 159.175c-.073.121-9.674-5.514-21.444-12.584-11.773-7.073-21.255-12.902-21.183-13.023.073-.121 9.673 5.513 21.446 12.586 11.769 7.07 21.254 12.901 21.181 13.021ZM96.267 166.412c-.073.121-10.854-6.223-24.079-14.167-13.229-7.947-23.89-14.485-23.818-14.606.073-.121 10.852 6.221 24.081 14.169 13.224 7.944 23.888 14.484 23.816 14.604ZM89.977 175.367c-.075.119-8.43-4.977-18.66-11.381-10.235-6.407-18.468-11.695-18.393-11.815.075-.12 8.43 4.975 18.663 11.382 10.23 6.404 18.465 11.694 18.39 11.814ZM82.587 184.014c-.078.117-7.86-4.903-17.377-11.212-9.521-6.311-17.174-11.521-17.096-11.639.078-.118 7.857 4.902 17.378 11.213 9.518 6.31 17.173 11.521 17.095 11.638ZM73.151 190.013c-.017.031-.436-.168-1.178-.554-.743-.385-1.805-.964-3.108-1.699a212.137 212.137 0 0 1-10.004-6.04 212.93 212.93 0 0 1-9.666-6.571 108.314 108.314 0 0 1-2.841-2.115c-.66-.513-1.016-.811-.995-.839.021-.029.415.214 1.111.678l2.932 1.981a456.536 456.536 0 0 0 9.734 6.437 453.211 453.211 0 0 0 9.911 6.158l3.024 1.838c.712.438 1.097.695 1.08.726ZM51.039 149.152c-.038.122-2.522-.666-5.21-2.388-2.698-1.708-4.463-3.626-4.368-3.712.105-.113 1.996 1.607 4.642 3.281 2.636 1.69 4.994 2.676 4.936 2.819Z"/>
  <path fill="#E0E0E0" d="M108.166 141.471c.014.01-.102.2-.337.552l-1.048 1.525a317.142 317.142 0 0 1-3.964 5.532 562.016 562.016 0 0 1-13.615 17.855 565.37 565.37 0 0 1-14.31 17.307 317.688 317.688 0 0 1-4.492 5.113l-1.248 1.366c-.29.309-.448.465-.46.453-.014-.012.118-.191.383-.521l1.176-1.429 4.366-5.217a914.568 914.568 0 0 0 14.187-17.391 910.125 910.125 0 0 0 13.725-17.753l4.093-5.434 1.126-1.469c.259-.33.403-.499.418-.489ZM100.523 136.023c.111.087-9.254 12.308-20.915 27.293-11.665 14.991-21.209 27.069-21.32 26.982-.11-.087 9.252-12.305 20.917-27.296 11.661-14.985 21.206-27.065 21.318-26.979ZM89.86 129.981c.016.009-.09.217-.303.607l-.96 1.69a146.7 146.7 0 0 1-3.76 6.078c-3.271 5.072-8.14 11.854-13.877 19.054-5.734 7.208-11.156 13.537-15.07 18.125l-4.661 5.41c-.531.6-.96 1.083-1.287 1.454-.3.329-.462.496-.475.484-.013-.011.124-.201.397-.551l1.214-1.516 4.538-5.514c3.842-4.648 9.219-11.012 14.945-18.21 5.73-7.191 10.633-13.923 13.977-18.935a242.854 242.854 0 0 0 3.89-5.982l1.042-1.639c.24-.373.376-.564.39-.555ZM81.113 124.97c.112.086-7.87 10.652-17.825 23.597-9.959 12.949-18.12 23.374-18.232 23.288-.112-.086 7.868-10.65 17.827-23.599 9.955-12.946 18.118-23.372 18.23-23.286ZM74.532 120.684c.03.019-.27.52-.84 1.41-.28.449-.635.989-1.085 1.591-.445.605-.928 1.313-1.535 2.038-1.164 1.492-2.667 3.175-4.439 4.943a61.195 61.195 0 0 1-6.193 5.28 61.213 61.213 0 0 1-6.892 4.332c-2.217 1.162-4.273 2.094-6.045 2.758-.874.363-1.694.612-2.403.856-.709.249-1.331.426-1.842.559-1.02.277-1.587.413-1.596.38-.009-.034.539-.235 1.538-.57a29.957 29.957 0 0 0 1.807-.639c.697-.268 1.504-.539 2.363-.922 1.743-.703 3.768-1.661 5.955-2.837a65.92 65.92 0 0 0 6.813-4.329 65.83 65.83 0 0 0 6.167-5.205c1.776-1.735 3.295-3.38 4.487-4.834.622-.706 1.122-1.394 1.586-1.98.469-.583.846-1.104 1.15-1.534.618-.852.974-1.316 1.004-1.297ZM99.141 40.357h-8.02v8.02h8.02v-8.02Z"/>
  <path fill="#F4BF3C" fill-opacity=".2" d="M99.141 40.357h-8.02v8.02h8.02v-8.02Z"/>
  <path fill="#F4BF3C" d="M132.692 59.05h-74.75v47.177h74.75V59.05Z"/>
  <path fill="#fff" fill-opacity=".5" d="M132.692 59.05h-74.75v47.177h74.75V59.05Z"/>
  <path fill="#F4BF3C" d="M57.943 59.05s11.443-11.953 40.134-11.475c28.691.477 34.614 11.475 34.614 11.475H57.943Z"/>
  <path fill="#fff" fill-opacity=".5" d="M57.943 59.05s11.443-11.953 40.134-11.475c28.691.477 34.614 11.475 34.614 11.475H57.943Z"/>
  <path fill="#E0E0E0" d="M132.403 59.819c0 .14-16.804.255-37.528.255-20.731 0-37.531-.114-37.531-.255 0-.142 16.8-.256 37.531-.256 20.724 0 37.528.114 37.528.255ZM149.233 66.276h-16.83v-6.458h16.83a2.764 2.764 0 0 1 2.764 2.763v.931a2.763 2.763 0 0 1-2.764 2.764Z"/>
  <path fill="#F4BF3C" fill-opacity=".2" d="M149.233 66.276h-16.83v-6.458h16.83a2.764 2.764 0 0 1 2.764 2.763v.931a2.763 2.763 0 0 1-2.764 2.764Z"/>
  <path fill="#E0E0E0" d="M41.39 59.818h16.83v6.458H41.39a2.764 2.764 0 0 1-2.764-2.764v-.93a2.763 2.763 0 0 1 2.764-2.764Z"/>
  <path fill="#F4BF3C" fill-opacity=".2" d="M41.39 59.818h16.83v6.458H41.39a2.764 2.764 0 0 1-2.764-2.764v-.93a2.763 2.763 0 0 1 2.764-2.764Z"/>
  <path fill="#E0E0E0" d="M103.453 42.67H87.181a1.979 1.979 0 0 1-1.98-1.979v-.667c0-1.093.887-1.979 1.98-1.979h16.273c1.093 0 1.979.886 1.979 1.98v.666a1.98 1.98 0 0 1-1.98 1.98Z"/>
  <path fill="#F4BF3C" fill-opacity=".2" d="M103.453 42.67H87.181a1.979 1.979 0 0 1-1.98-1.979v-.667c0-1.093.887-1.979 1.98-1.979h16.273c1.093 0 1.979.886 1.979 1.98v.666a1.98 1.98 0 0 1-1.98 1.98Z"/>
  <path fill="#F5F5F5" d="M459.676 345.302H27.922v115.819h431.754V345.302Z"/>
  <path fill="#F5CD7D" fill-opacity=".4" d="M459.676 345.302H27.922v115.819h431.754V345.302Z"/>
  <path fill="#E0E0E0" d="M462.66 340.495H22.429v14.093H462.66v-14.093Z"/>
  <path fill="#FECFB1" fill-opacity=".7" d="M462.66 340.495H22.429v14.093H462.66v-14.093Z"/>
  <path fill="#F4DEA7" fill-opacity=".5" d="M158.555 373.478H44.995v35.07h113.56v-35.07Z"/>
  <path fill="#E0E0E0" d="M101.775 393.939a2.926 2.926 0 1 0 .001-5.853 2.926 2.926 0 0 0-.001 5.853Z"/>
  <path fill="#FECFB1" fill-opacity=".7" d="M101.775 393.939a2.926 2.926 0 1 0 .001-5.853 2.926 2.926 0 0 0-.001 5.853Z"/>
  <path fill="#F4DEA7" fill-opacity=".5" d="M158.555 415.941H44.995v35.07h113.56v-35.07Z"/>
  <path fill="#E0E0E0" d="M101.775 436.403a2.926 2.926 0 1 0 .001-5.853 2.926 2.926 0 0 0-.001 5.853Z"/>
  <path fill="#FECFB1" fill-opacity=".7" d="M101.775 436.403a2.926 2.926 0 1 0 .001-5.853 2.926 2.926 0 0 0-.001 5.853Z"/>
  <path fill="#F4DEA7" fill-opacity=".5" d="M436.722 373.478h-113.56v35.07h113.56v-35.07Z"/>
  <path fill="#E0E0E0" d="M379.942 393.939a2.926 2.926 0 1 0 .001-5.853 2.926 2.926 0 0 0-.001 5.853Z"/>
  <path fill="#FECFB1" fill-opacity=".7" d="M379.942 393.939a2.926 2.926 0 1 0 .001-5.853 2.926 2.926 0 0 0-.001 5.853Z"/>
  <path fill="#F4DEA7" fill-opacity=".5" d="M436.722 415.941h-113.56v35.07h113.56v-35.07Z"/>
  <path fill="#E0E0E0" d="M379.942 436.403a2.926 2.926 0 1 0 .001-5.853 2.926 2.926 0 0 0-.001 5.853Z"/>
  <path fill="#FECFB1" fill-opacity=".7" d="M379.942 436.403a2.926 2.926 0 1 0 .001-5.853 2.926 2.926 0 0 0-.001 5.853Z"/>
  <path fill="#E0E0E0" d="M95.243 298.434c0 6.123-4.964 11.087-11.087 11.087-6.123 0-11.088-4.964-11.088-11.087 0-6.124 4.964-11.087 11.088-11.087 6.123 0 11.087 4.964 11.087 11.087Z"/>
  <path fill="#FECFB1" fill-opacity=".8" d="M95.243 298.434c0 6.123-4.964 11.087-11.087 11.087-6.123 0-11.088-4.964-11.088-11.087 0-6.124 4.964-11.087 11.088-11.087 6.123 0 11.087 4.964 11.087 11.087Z"/>
  <path fill="#F5F5F5" d="M105.788 309.339c6.124 0 11.088-4.965 11.088-11.088 0-6.124-4.964-11.088-11.088-11.088-6.123 0-11.088 4.964-11.088 11.088 0 6.123 4.965 11.088 11.088 11.088ZM62.523 309.338c6.123 0 11.087-4.964 11.087-11.087 0-6.124-4.964-11.087-11.087-11.087-6.123 0-11.087 4.963-11.087 11.087 0 6.123 4.964 11.087 11.087 11.087Z"/>
  <path fill="#EBEBEB" d="M47.786 300.637h72.42s-.745 29.864-20.188 33.517l-.303 6.342H67.101v-6.456s-19.316-4.945-19.315-33.403Z"/>
  <path fill="#FECFB1" fill-opacity=".5" d="M47.786 300.637h72.42s-.745 29.864-20.188 33.517l-.303 6.342H67.101v-6.456s-19.316-4.945-19.315-33.403Z"/>
  <path fill="#fff" d="M100.018 334.154c0 .104-7.392.189-16.509.189-9.12 0-16.511-.084-16.511-.189 0-.104 7.391-.189 16.511-.189 9.117 0 16.509.085 16.509.189ZM117.402 316.026s-.157.026-.464.057l-1.365.117c-1.195.067-3 .224-5.258-.255-1.12-.24-2.358-.651-3.541-1.416-1.17-.762-2.318-1.867-3.003-3.38a5.944 5.944 0 0 1-.506-2.498c.037-.886.324-1.803.916-2.552a3.107 3.107 0 0 1 1.129-.901c.454-.2.974-.271 1.478-.196 1.01.171 1.908.86 2.425 1.781.524.935.611 2.071.416 3.141-.192 1.079-.654 2.109-1.247 3.07a10.93 10.93 0 0 1-5.393 4.356c-2.284.869-4.974.859-7.401-.079a10.941 10.941 0 0 1-3.362-2.048c-.969-.905-1.895-1.975-2.282-3.344a3.729 3.729 0 0 1 .011-2.109c.208-.685.662-1.334 1.328-1.684 1.355-.693 3.053-.179 4.028.915 1.006 1.098 1.454 2.557 1.69 3.99.233 1.45.172 2.953-.133 4.411-.614 2.909-2.222 5.703-4.685 7.584a11.717 11.717 0 0 1-4.16 2.038c-1.517.385-3.11.487-4.682.314-3.145-.328-6.135-1.847-8.134-4.212-.992-1.18-1.733-2.591-1.995-4.11-.273-1.513.058-3.132.926-4.381.836-1.253 2.273-2.186 3.821-2.106 1.506.089 2.942.994 3.561 2.365.324.679.344 1.478.147 2.183-.208.709-.627 1.336-1.144 1.827-1.035.993-2.354 1.582-3.671 1.931-5.306 1.448-10.95-.162-14.404-3.599-.854-.867-1.554-1.881-1.953-3.001a5.902 5.902 0 0 1-.196-3.443c.27-1.108.88-2.134 1.78-2.79.892-.671 2.035-.891 3.073-.749 1.044.14 2.012.669 2.643 1.454.631.78.97 1.749.98 2.697.016.952-.324 1.861-.849 2.572-.523.719-1.206 1.263-1.907 1.686-1.412.854-2.9 1.259-4.248 1.598a27.126 27.126 0 0 1-3.762.625 26.211 26.211 0 0 1-5.268-.031c-1.198-.133-1.816-.276-1.816-.276s.158.011.464.051c.305.042.761.096 1.36.149a27.37 27.37 0 0 0 5.246-.039c1.133-.12 2.388-.32 3.734-.654 1.337-.347 2.807-.76 4.181-1.603.682-.417 1.34-.949 1.834-1.638.497-.683.811-1.541.791-2.436a4.153 4.153 0 0 0-.935-2.54c-.595-.733-1.499-1.223-2.483-1.351-.978-.129-2.045.082-2.87.71-.836.614-1.411 1.58-1.663 2.634a5.607 5.607 0 0 0 .197 3.271c.385 1.069 1.06 2.045 1.892 2.885 3.369 3.338 8.915 4.91 14.09 3.483 1.281-.34 2.546-.915 3.515-1.849.484-.461.862-1.035 1.048-1.67.174-.639.157-1.332-.132-1.939-.546-1.226-1.885-2.073-3.249-2.147-.686-.047-1.37.169-1.979.505a4.782 4.782 0 0 0-1.519 1.445c-.812 1.176-1.122 2.677-.863 4.111.249 1.437.956 2.792 1.915 3.931 1.931 2.282 4.83 3.76 7.888 4.078 1.527.167 3.075.069 4.545-.304a11.344 11.344 0 0 0 4.025-1.97c2.385-1.818 3.953-4.536 4.552-7.362.297-1.417.358-2.875.134-4.279-.225-1.392-.666-2.793-1.593-3.802-.883-1.005-2.438-1.447-3.597-.848-.57.298-.971.859-1.16 1.475a3.375 3.375 0 0 0-.011 1.913c.351 1.262 1.238 2.306 2.175 3.183a10.615 10.615 0 0 0 3.253 1.99c2.355.916 4.956.932 7.173.096a10.638 10.638 0 0 0 5.255-4.218c.579-.932 1.031-1.932 1.218-2.965.191-1.023.106-2.099-.374-2.961-.476-.859-1.317-1.504-2.233-1.661a2.449 2.449 0 0 0-1.338.171c-.412.185-.764.48-1.042.826-.557.696-.839 1.571-.878 2.412a5.751 5.751 0 0 0 .473 2.404c.653 1.467 1.767 2.559 2.909 3.314 1.154.759 2.367 1.174 3.475 1.423 2.227.497 4.027.366 5.221.323l1.367-.079c.307-.02.466-.02.466-.02Z"/>
  <path fill="#F5F5F5" d="M378.399.364h-77.212V59.3h77.212V.364Z"/>
  <path fill="#FECFB1" fill-opacity=".3" d="M378.399.364h-77.212V59.3h77.212V.364Z"/>
  <path fill="#F5F5F5" d="m209.908 123.619 91.279-64.32h77.212l95.212 64.32v8.965H209.908v-8.965Z"/>
  <path fill="#FECFB1" fill-opacity=".3" d="m209.908 123.619 91.279-64.32h77.212l95.212 64.32v8.965H209.908v-8.965Z"/>
  <path fill="#EBEBEB" d="M473.611 123.618H209.908v8.965h263.703v-8.965Z"/>
  <path fill="#F4BF3C" fill-opacity=".2" d="M473.611 123.618H209.908v8.965h263.703v-8.965Z"/>
  <path fill="#E0E0E0" d="M377.302 59.87c0 .144-17.286.26-38.604.26-21.326 0-38.608-.117-38.608-.26 0-.144 17.282-.26 38.608-.26 21.318-.001 38.604.116 38.604.26Z"/>
  <path fill="#F4BF3C" d="M27.922 210.905H.937v26.985h26.985v-26.985ZM27.922 241.13H.937v26.985h26.985V241.13ZM58.326 210.905H31.341v26.985h26.985v-26.985ZM58.326 241.13H31.341v26.985h26.985V241.13ZM88.731 210.905H61.746v26.985h26.985v-26.985ZM88.731 241.13H61.746v26.985h26.985V241.13ZM119.135 210.905H92.15v26.985h26.985v-26.985ZM119.135 241.13H92.15v26.985h26.985V241.13ZM149.074 210.905h-26.985v26.985h26.985v-26.985ZM149.074 241.13h-26.985v26.985h26.985V241.13Z"/>
  <path fill="#FAFAFA" d="M179.478 210.905h-26.985v26.985h26.985v-26.985ZM179.478 241.13h-26.985v26.985h26.985V241.13ZM209.883 210.905h-26.985v26.985h26.985v-26.985ZM209.883 241.13h-26.985v26.985h26.985V241.13ZM240.287 210.905h-26.985v26.985h26.985v-26.985ZM240.287 241.13h-26.985v26.985h26.985V241.13Z"/>
  <path fill="#F4BF3C" d="M270.226 210.905h-26.985v26.985h26.985v-26.985ZM270.226 241.13h-26.985v26.985h26.985V241.13ZM300.63 210.905h-26.985v26.985h26.985v-26.985ZM300.63 241.13h-26.985v26.985h26.985V241.13ZM331.035 210.905H304.05v26.985h26.985v-26.985ZM331.035 241.13H304.05v26.985h26.985V241.13ZM361.439 210.905h-26.985v26.985h26.985v-26.985ZM361.439 241.13h-26.985v26.985h26.985V241.13ZM391.378 210.905h-26.985v26.985h26.985v-26.985ZM391.378 241.13h-26.985v26.985h26.985V241.13ZM421.782 210.905h-26.985v26.985h26.985v-26.985ZM421.782 241.13h-26.985v26.985h26.985V241.13ZM452.187 210.905h-26.985v26.985h26.985v-26.985ZM452.187 241.13h-26.985v26.985h26.985V241.13ZM482.591 210.905h-26.985v26.985h26.985v-26.985ZM482.591 241.13h-26.985v26.985h26.985V241.13Z"/>
  <path fill="#263238" d="m236.086 128.475-75.393 4.497c-4.698 16.736-5.371 32.895-.241 49.477 1.464 4.733 3.626 9.731 8.601 12.484 4.45 2.463 10.227 2.609 15.645 2.551 26.272-.28 52.528-3.362 77.87-9.141-4.993-2.774-7.862-7.846-7.203-12.736 2.159 4.786 8.288 8.061 14.608 8.259 6.32.198 12.569-2.469 16.439-6.539-21.439-9.759-49.815-28.912-50.326-48.852Z"/>
  <path fill="#263238" d="M285.965 160.133c-.001.018-.226.023-.656.017-.429-.011-1.063-.013-1.877-.062a78.557 78.557 0 0 1-6.878-.65c-5.751-.789-13.801-2.555-21.62-6.96-3.883-2.22-7.254-4.888-9.943-7.675-2.69-2.789-4.729-5.657-6.117-8.234-1.396-2.574-2.233-4.804-2.674-6.376-.256-.776-.355-1.407-.462-1.822-.093-.419-.133-.641-.115-.645.049-.012.266.864.771 2.407.497 1.544 1.38 3.733 2.802 6.258 1.415 2.528 3.461 5.339 6.139 8.078 2.678 2.737 6.018 5.362 9.856 7.557 7.734 4.358 15.702 6.171 21.417 7.049 2.873.44 5.217.674 6.838.812l1.868.159c.427.039.651.069.651.087ZM299.013 306.007c-.278.075-22.236-6.906-22.236-6.906l-6.904 5.447 18.829 8.18s8.311.947 12.296 3.297c3.985 2.35-1.985-10.018-1.985-10.018Z"/>
  <path fill="#263238" d="M295.638 307.359s.036.219.145.61c.637 2.289 3.767 10.473 16.764 15.189 15.219 5.522 48.404 7.065 53.905 6.2 10.656-1.676 20.605-9.989 20.193-12.069"/>
  <path fill="#455A64" d="M386.646 317.289c-.369 3.384-21.041 3.905-46.172 1.163-25.131-2.742-45.204-7.708-44.835-11.092.369-3.384 21.041-3.905 46.172-1.163 25.13 2.742 45.204 7.708 44.835 11.092Z"/>
  <path fill="#FF725E" d="M354.732 314.932c1.671-1.681 4.041-2.678 2.801-4.629-.338.657-2.009.643-2.591 1.153-.581.51-2.192-.097-2.983-.305-.977-.256-1.508-1.241-1.448-2.13.059-.889.569-1.7 1.081-2.469a85.232 85.232 0 0 1 3.296-4.614c.419-.547.857-1.116.957-1.768.1-.653-.255-1.412-.977-1.604-.647-.172-1.317.149-1.884.47-2.493 1.411-4.931 3.2-5.844 5.671-.574 1.554-.495 3.263-1.189 4.779-.694 1.516-2.695 2.823-4.37 2.091-1.031-.45-1.524-1.489-1.794-2.468-.27-.979-.425-2.024-1.102-2.839s-2.123-1.261-2.993-.604c-1.486 1.121.412 3.584-.862 4.889-.542.555-1.513.665-2.311.444-.798-.22-1.459-.709-2.072-1.207-4.192-3.405-7.273-7.843-8.791-12.66-.194-.616-.37-1.252-.778-1.782-.408-.53-1.113-.941-1.837-.857-1.152.135-1.67 1.353-1.672 2.368-.006 2.869 2.103 5.374 4.117 7.646l6.953 7.844 3.161 3.651 13.583 2.988 9.195-1.898.354-2.16Z"/>
  <path fill="#fff" d="M354.732 314.932c1.671-1.681 4.041-2.678 2.801-4.629-.338.657-2.009.643-2.591 1.153-.581.51-2.192-.097-2.983-.305-.977-.256-1.508-1.241-1.448-2.13.059-.889.569-1.7 1.081-2.469a85.232 85.232 0 0 1 3.296-4.614c.419-.547.857-1.116.957-1.768.1-.653-.255-1.412-.977-1.604-.647-.172-1.317.149-1.884.47-2.493 1.411-4.931 3.2-5.844 5.671-.574 1.554-.495 3.263-1.189 4.779-.694 1.516-2.695 2.823-4.37 2.091-1.031-.45-1.524-1.489-1.794-2.468-.27-.979-.425-2.024-1.102-2.839s-2.123-1.261-2.993-.604c-1.486 1.121.412 3.584-.862 4.889-.542.555-1.513.665-2.311.444-.798-.22-1.459-.709-2.072-1.207-4.192-3.405-7.273-7.843-8.791-12.66-.194-.616-.37-1.252-.778-1.782-.408-.53-1.113-.941-1.837-.857-1.152.135-1.67 1.353-1.672 2.368-.006 2.869 2.103 5.374 4.117 7.646l6.953 7.844 3.161 3.651 13.583 2.988 9.195-1.898.354-2.16Z" opacity=".6"/>
  <path fill="#FF725E" d="M358.582 320.245c.299-1.831 1.961-3.432 4.018-3.87.693-.148 1.437-.18 2.056-.489.619-.31 1.048-1.047.649-1.565-.393-.511-1.253-.469-1.947-.369l-4.757.684 3.833-3.851c.505-.508 1.04-1.203.673-1.796-.355-.573-1.283-.59-2.013-.461-2.495.442-4.783 1.716-6.294 3.505-1.35 1.599-2.115 3.599-3.833 4.901-1.552 1.177-3.799 1.613-5.78 1.122-1.981-.491-3.635-1.894-4.256-3.609-.263-.728-.372-1.54-.948-2.115-1.092-1.091-3.314-.623-4.269.558-.955 1.181-.972 2.743-.837 4.186-4.365-5.685-9.239-11.63-16.529-14.137-1.281-.441-2.672-.767-4.026-.558-1.354.209-2.65 1.077-2.868 2.263-.254 1.379.954 2.643 2.26 3.453 2.488 1.543 5.539 2.212 8.228 3.472 2.689 1.26 5.611 3.143 5.442 5.801 0 0 13.121 1.991 19.62 2.161 6.5.169 11.578.714 11.578.714Z"/>
  <path fill="#fff" d="M358.582 320.245c.299-1.831 1.961-3.432 4.018-3.87.693-.148 1.437-.18 2.056-.489.619-.31 1.048-1.047.649-1.565-.393-.511-1.253-.469-1.947-.369l-4.757.684 3.833-3.851c.505-.508 1.04-1.203.673-1.796-.355-.573-1.283-.59-2.013-.461-2.495.442-4.783 1.716-6.294 3.505-1.35 1.599-2.115 3.599-3.833 4.901-1.552 1.177-3.799 1.613-5.78 1.122-1.981-.491-3.635-1.894-4.256-3.609-.263-.728-.372-1.54-.948-2.115-1.092-1.091-3.314-.623-4.269.558-.955 1.181-.972 2.743-.837 4.186-4.365-5.685-9.239-11.63-16.529-14.137-1.281-.441-2.672-.767-4.026-.558-1.354.209-2.65 1.077-2.868 2.263-.254 1.379.954 2.643 2.26 3.453 2.488 1.543 5.539 2.212 8.228 3.472 2.689 1.26 5.611 3.143 5.442 5.801 0 0 13.121 1.991 19.62 2.161 6.5.169 11.578.714 11.578.714Z" opacity=".8"/>
  <path fill="#263238" d="M310.51 328.461c-.01.06-.748.009-1.892-.319-1.142-.324-2.678-.974-4.175-2.017-1.494-1.048-2.632-2.267-3.329-3.228-.701-.962-1.003-1.637-.95-1.667.136-.102 1.647 2.449 4.578 4.469 2.902 2.057 5.818 2.6 5.768 2.762ZM308.026 330.821c-.01.06-.748.008-1.893-.32-1.142-.324-2.678-.974-4.175-2.017-1.494-1.048-2.632-2.267-3.33-3.228-.701-.962-1.003-1.637-.95-1.667.136-.102 1.647 2.449 4.578 4.469 2.903 2.058 5.819 2.601 5.77 2.763ZM395.954 320.876c.033.014-.059.289-.254.775-.188.488-.516 1.173-.969 1.993-.899 1.642-2.4 3.789-4.459 5.79-2.066 1.995-4.26 3.426-5.93 4.272-.834.426-1.529.732-2.023.904-.492.179-.769.262-.782.229-.034-.082 1.026-.534 2.628-1.456a29.8 29.8 0 0 0 5.744-4.323 29.815 29.815 0 0 0 4.504-5.602c.974-1.573 1.461-2.618 1.541-2.582ZM400.755 322.936c.059.024-.145.721-.662 1.772-.514 1.05-1.373 2.438-2.556 3.785-1.186 1.344-2.454 2.373-3.431 3.016-.977.646-1.643.936-1.674.881-.091-.139 2.408-1.596 4.713-4.241 2.332-2.621 3.461-5.286 3.61-5.213Z"/>
  <path fill="#FFBF9D" d="m376.677 257.049 9.285-2.573s7.668 1.156 9.645-.315c1.976-1.471 1.044-2.317 1.044-2.317 4.176-1.578 2.687-3.432 2.687-3.432s4.153-.318 4.227-3.594c.043-1.905-15.834-5.067-15.834-5.067s.148-2.053 1.768-3.214c1.62-1.16 10.978 1.086 13.851.212 2.873-.873 2.666-3.7 2.666-3.7s-19.638-3.992-23.775-2.269c-4.137 1.723-23.994 9.996-27.017 14.006l6.604 13.774s.405.205 3.691 1.102c3.287.897 11.158-2.613 11.158-2.613Z"/>
  <path fill="#FF9A6C" d="M366.007 253.648c.002-.075.765-.061 2.112-.245a16.61 16.61 0 0 0 5.426-1.743 15.682 15.682 0 0 0 3.219-2.24c.534-.462 1.027-1.001 1.515-1.569.486-.576.955-1.233 1.589-1.825.604-.592 1.526-1.111 2.502-1.069.92.012 1.781.189 2.658.369 1.758.364 3.481.958 5.242.695 1.144-.155 2.243-.601 3.048-1.323.815-.675 1.32-1.8.898-2.504l.254.185c-5.59-1.354-10.58-1.95-14.102-2.468l-4.138-.604c-.964-.156-1.485-.265-1.479-.314.006-.05.538-.035 1.512.033s2.392.187 4.168.362c3.547.375 8.557.861 14.239 2.185l.164.038.091.147c.387.627.335 1.405.094 2.008-.239.621-.647 1.144-1.129 1.568-.959.864-2.217 1.366-3.506 1.542-.986.144-1.966.041-2.9-.121l-2.632-.603c-.849-.182-1.7-.355-2.482-.371-.753-.035-1.401.316-1.963.832-.564.509-1.034 1.138-1.547 1.729-.524.589-1.053 1.144-1.622 1.616a15.61 15.61 0 0 1-3.415 2.247 15.325 15.325 0 0 1-5.666 1.533c-1.391.082-2.153-.047-2.15-.09Z"/>
  <path fill="#FF9A6C" d="M384.997 245.96c.22.076-.229 1.932-1.242 4.04-1.008 2.112-2.173 3.625-2.37 3.501-.207-.127.608-1.808 1.593-3.873.991-2.061 1.79-3.749 2.019-3.668ZM395.775 251.458c-.046.239-2.619-.067-5.784-.416-3.165-.356-5.742-.624-5.734-.867.006-.232 2.625-.349 5.83.011 3.204.353 5.734 1.044 5.688 1.272ZM400.547 248.583c-.033.236-3.32-.036-7.339-.607-4.021-.571-7.252-1.225-7.219-1.46.033-.235 3.319.036 7.34.608 4.02.57 7.252 1.224 7.218 1.459ZM387.373 235.239c.235.002.412 1.199.235 2.659-.174 1.461-.63 2.582-.859 2.528-.235-.054-.164-1.22.004-2.631.171-1.409.379-2.559.62-2.556Z"/>
  <path fill="#FFBF9D" d="m277.014 239.736 27.204 14.434 53.096-10.303 7.543 15.614s-48.526 21.264-62.079 21.496c-13.553.232-38.187-15.745-38.187-15.745l12.423-25.496Z"/>
  <path fill="#FF725E" d="M342.609 254.88s-6.448-1.251-7.615 3.568c-1.167 4.819 4.616 6.031 4.616 6.031s-1.065 3.331 4.509 5.073c5.575 1.742 6.663-4.312 6.663-4.312s5.242 1.719 5.637-1.657c.592-5.005-3.483-5.411-3.483-5.411s4.019-4.898-2.548-6.843c-6.567-1.944-7.779 3.551-7.779 3.551Zm6.967-1.426c3.794.8 1.296 5.53 1.296 5.53s4.289.975 3.444 3.506c-.845 2.531-5.073.879-5.073.879s1.55 4.323-3.647 4.374c-5.197.051-3.049-4.425-3.049-4.425s-4.216.395-5.112-3.619c-.896-4.013 6.392-2.818 6.392-2.818.219-3.398 1.95-4.233 5.749-3.427Z"/>
  <path fill="#000" d="M342.609 254.88s-6.448-1.251-7.615 3.568c-1.167 4.819 4.616 6.031 4.616 6.031s-1.065 3.331 4.509 5.073c5.575 1.742 6.663-4.312 6.663-4.312s5.242 1.719 5.637-1.657c.592-5.005-3.483-5.411-3.483-5.411s4.019-4.898-2.548-6.843c-6.567-1.944-7.779 3.551-7.779 3.551Zm6.967-1.426c3.794.8 1.296 5.53 1.296 5.53s4.289.975 3.444 3.506c-.845 2.531-5.073.879-5.073.879s1.55 4.323-3.647 4.374c-5.197.051-3.049-4.425-3.049-4.425s-4.216.395-5.112-3.619c-.896-4.013 6.392-2.818 6.392-2.818.219-3.398 1.95-4.233 5.749-3.427Z" opacity=".3"/>
  <path fill="#FF725E" d="M342.705 253.635s-6.448-1.257-7.615 3.562c-1.167 4.819 4.616 6.031 4.616 6.031s-1.065 3.331 4.509 5.073c5.575 1.742 6.668-4.306 6.668-4.306s5.242 1.719 5.637-1.657c.592-5.011-3.483-5.411-3.483-5.411s4.019-4.898-2.548-6.843c-6.567-1.945-7.784 3.551-7.784 3.551Zm6.967-1.432c3.799.806 1.296 5.535 1.296 5.535s4.29.975 3.444 3.5c-.845 2.525-5.073.879-5.073.879s1.55 4.323-3.647 4.38c-5.197.056-3.049-4.43-3.049-4.43s-4.216.395-5.112-3.613c-.896-4.008 6.392-2.818 6.392-2.818.197-3.399 1.95-4.234 5.749-3.433ZM345.642 208.924s-6.488 1.024-5.941 5.952c.548 4.928 6.397 4.094 6.397 4.094s.135 3.495 5.97 3.23c5.834-.265 4.792-6.327 4.792-6.327s5.514-.173 4.733-3.481c-1.152-4.907-5.121-3.898-5.121-3.898s2.107-5.976-4.73-5.563c-6.836.413-6.1 5.993-6.1 5.993Zm6.063-3.718c3.839-.542 3.105 4.756 3.105 4.756s4.365-.547 4.434 2.121c.069 2.667-4.469 2.557-4.469 2.557s2.932 3.535-1.936 5.356c-4.868 1.821-4.376-3.119-4.376-3.119s-3.829 1.81-6.04-1.657c-2.212-3.467 5.047-4.83 5.047-4.83-.954-3.271.388-4.645 4.235-5.184Z"/>
  <path fill="#000" d="M345.642 208.924s-6.488 1.024-5.941 5.952c.548 4.928 6.397 4.094 6.397 4.094s.135 3.495 5.97 3.23c5.834-.265 4.792-6.327 4.792-6.327s5.514-.173 4.733-3.481c-1.152-4.907-5.121-3.898-5.121-3.898s2.107-5.976-4.73-5.563c-6.836.413-6.1 5.993-6.1 5.993Zm6.063-3.718c3.839-.542 3.105 4.756 3.105 4.756s4.365-.547 4.434 2.121c.069 2.667-4.469 2.557-4.469 2.557s2.932 3.535-1.936 5.356c-4.868 1.821-4.376-3.119-4.376-3.119s-3.829 1.81-6.04-1.657c-2.212-3.467 5.047-4.83 5.047-4.83-.954-3.271.388-4.645 4.235-5.184Z" opacity=".3"/>
  <path fill="#FF725E" d="M345.307 207.72s-6.49 1.019-5.943 5.947c.548 4.928 6.397 4.094 6.397 4.094s.135 3.495 5.97 3.23c5.834-.265 4.799-6.323 4.799-6.323s5.514-.173 4.733-3.481c-1.153-4.912-5.121-3.898-5.121-3.898s2.107-5.976-4.73-5.563c-6.835.413-6.105 5.994-6.105 5.994Zm6.061-3.723c3.846-.539 3.107 4.761 3.107 4.761s4.365-.547 4.432 2.115c.067 2.662-4.469 2.557-4.469 2.557s2.932 3.535-1.934 5.361c-4.866 1.826-4.378-3.124-4.378-3.124s-3.829 1.809-6.039-1.652c-2.21-3.461 5.047-4.83 5.047-4.83-.974-3.262.389-4.644 4.234-5.188Z"/>
  <path fill="#E0E0E0" d="M335.493 232.656s-4.097.178-4.342 3.147c-.245 2.969.902 7.833 8.017 8.894 7.115 1.061 7.974-7.796 7.974-7.796s-2.056-4.643-11.649-4.245Z"/>
  <path fill="#263238" d="M339.529 240.661c3.938.184 6.281-1.515 7.452-2.766.123-.613.166-.994.166-.994s-2.061-4.643-11.654-4.245c0 0-4.097.178-4.342 3.146 0 .202 0 .411-.031.613 1.497 1.639 4.361 4.049 8.409 4.246Z" opacity=".21"/>
  <path fill="#E0E0E0" d="m336.278 230.718-1.172 5.134s2.043 2.411 5.017 2.245c2.974-.166 2.969-1.282 2.969-1.282l1.227-5.256s-2.631-1.926-5.52-2.006c-2.889-.08-2.521 1.165-2.521 1.165ZM314.112 267.232s-2.599 3.173-.549 5.335c2.049 2.162 6.44 4.549 11.973-.047 5.534-4.596-.496-11.14-.496-11.14s-4.831-1.565-10.928 5.852Z"/>
  <path fill="#263238" d="M322.769 269.559c2.762-2.813 3.057-5.692 2.906-7.399-.376-.5-.63-.786-.63-.786s-4.835-1.559-10.932 5.858c0 0-2.599 3.173-.549 5.334.151.135.306.274.437.432 2.217-.024 5.923-.552 8.768-3.439Z" opacity=".21"/>
  <path fill="#E0E0E0" d="m313.19 265.355 3.046 4.295s3.158.084 5.018-2.244c1.859-2.328 1.023-3.068 1.023-3.068l-3.101-4.418s-3.19.678-5.175 2.778c-1.984 2.101-.811 2.657-.811 2.657ZM360.13 267.009s2.775 1.956 4.433.139c1.658-1.818 3.372-5.592-.763-9.893-4.135-4.301-9.172 1.082-9.172 1.082s-.992 4.085 5.502 8.672Z"/>
  <path fill="#263238" d="M361.524 259.724a7.63 7.63 0 0 0-6.286-1.956 8.513 8.513 0 0 0-.611.569s-.992 4.086 5.502 8.672c0 0 2.775 1.956 4.433.139.111-.125.222-.257.333-.402a10.238 10.238 0 0 0-3.371-7.022Z" opacity=".21"/>
  <path fill="#E0E0E0" d="m358.631 267.917 3.365-2.775a5.548 5.548 0 0 0-2.158-4.01c-2.04-1.388-2.595-.659-2.595-.659l-3.469 2.831a9.366 9.366 0 0 0 2.602 4.114c1.874 1.478 2.255.499 2.255.499Z"/>
  <path fill="#AE7461" d="M343.941 301.366s-7.068 2.812-11.789-6.145c-4.722-8.957-4.009-17.335 2.398-19.245 6.408-1.91 8.508 1.303 9.823 3.62 1.315 2.317 4.453 7.502 5.017 12.185.294 2.641-1.171 8.259-5.449 9.585Z"/>
  <path fill="#6F4439" d="M343.826 298.775a6.768 6.768 0 0 0 3.211-3.001l-.035.054.048-.075.109-.17c.072-.112.115-.247.167-.372l.063-.098-.054.085a7.445 7.445 0 0 0 .303-3.668 7.571 7.571 0 0 0-.544-2.139 2.984 2.984 0 0 0-1.483-1.554 2.643 2.643 0 0 0-2.337.225 3.808 3.808 0 0 0-1.518 1.846c-.288.696-.412 1.449-.671 2.159a2.894 2.894 0 0 1-1.374 1.718c-.568.258-1.23.217-1.819.433a2.26 2.26 0 0 0-1.344 2.628c.269.991 1.198 1.663 2.154 2.031a6.76 6.76 0 0 0 5.124-.102ZM336.577 277.004a6.758 6.758 0 0 0-3.894 2.013l.035-.054-.048.075-.137.147c-.074.115-.18.206-.262.311l-.063.098.054-.085a7.449 7.449 0 0 0-1.33 3.412 7.67 7.67 0 0 0-.075 2.192 2.98 2.98 0 0 0 1.002 1.901c.66.493 1.512.652 2.305.429a3.837 3.837 0 0 0 1.969-1.361c.469-.59.793-1.282 1.22-1.903a2.876 2.876 0 0 1 1.796-1.271c.611-.087 1.244.127 1.866.076a2.253 2.253 0 0 0 2.017-2.154c.012-1.026-.685-1.918-1.513-2.545a6.778 6.778 0 0 0-4.942-1.281ZM337.733 288.724a2.204 2.204 0 0 0-.817.17l-1.621.55c-.418.144-.892.338-1.029.776a.716.716 0 0 0 .265.773.962.962 0 0 0 .82.147l-.069.004a5.143 5.143 0 0 0 2.499-.792c.217-.124.403-.293.548-.496a.754.754 0 0 0 .081-.709.781.781 0 0 0-.677-.423Z" opacity=".3"/>
  <path fill="#fff" d="M330.866 280.359c.03.02-.173.531-.392 1.395a12.838 12.838 0 0 0 .17 6.882c.26.856.494 1.365.459 1.375a1.504 1.504 0 0 1-.194-.34 8.505 8.505 0 0 1-.406-.988 11.57 11.57 0 0 1-.171-6.969c.098-.342.217-.678.358-1.006a1.26 1.26 0 0 1 .176-.349ZM332.776 277.961c.047.03-.163.322-.457.631-.294.309-.562.511-.623.472-.061-.039.163-.321.463-.632.299-.311.576-.512.617-.471ZM334.482 296.754a2.894 2.894 0 0 1-1.326-1.836c.239.293.456.603.649.928.247.286.474.589.677.908Z"/>
  <path fill="#AE7461" d="M353.056 233.113s-5.545-2.599-2.889-10.305c2.656-7.706 7.967-11.904 12.618-9.195 4.651 2.709 3.922 5.712 3.287 7.76-.635 2.048-1.95 6.747-4.388 9.658-1.388 1.627-5.493 3.862-8.628 2.082Z"/>
  <path fill="#6F4439" d="M354.513 231.618a5.446 5.446 0 0 0 3.531.231l-.051.01.07-.013.16-.03c.105-.02.208-.068.31-.107l.092-.017-.08.015a5.993 5.993 0 0 0 2.32-1.844c.39-.45.712-.954.956-1.497a2.401 2.401 0 0 0 .095-1.727 2.123 2.123 0 0 0-1.42-1.247 3.066 3.066 0 0 0-1.92.126c-.567.214-1.078.557-1.637.796a2.33 2.33 0 0 1-1.766.14c-.464-.191-.805-.603-1.256-.829a1.82 1.82 0 0 0-2.283.659c-.433.704-.316 1.619-.006 2.383a5.453 5.453 0 0 0 2.885 2.951ZM363.299 215.368a5.442 5.442 0 0 0-3.327-1.177l.051-.009-.07.013h-.162c-.109.02-.22.008-.327.018l-.092.017.08-.015a6 6 0 0 0-2.736 1.099 6.167 6.167 0 0 0-1.328 1.164 2.398 2.398 0 0 0-.564 1.636c.074.659.45 1.246 1.018 1.589a3.087 3.087 0 0 0 1.884.406c.604-.05 1.189-.241 1.789-.333a2.313 2.313 0 0 1 1.735.354c.388.311.611.801.983 1.137.682.59 1.694.589 2.375-.003.609-.559.748-1.459.66-2.29a5.457 5.457 0 0 0-1.969-3.606ZM357.056 222.504a1.794 1.794 0 0 0-.55-.386l-1.216-.648c-.315-.166-.69-.337-1.023-.176a.58.58 0 0 0-.308.582c.03.233.164.44.365.562l-.04-.039a4.13 4.13 0 0 0 1.841 1.03c.192.059.394.075.593.048a.605.605 0 0 0 .461-.343.624.624 0 0 0-.123-.63Z" opacity=".3"/>
  <path fill="#fff" d="M358.182 213.865c.005.029-.407.191-1.035.539a10.341 10.341 0 0 0-3.946 3.891c-.359.624-.529 1.042-.555 1.027.018-.104.049-.205.092-.301.102-.268.221-.529.356-.782a9.323 9.323 0 0 1 3.996-3.94c.255-.131.518-.246.787-.344.098-.046.2-.076.305-.09ZM360.643 213.665c.008.045-.279.081-.622.079-.344-.002-.609-.048-.62-.106-.011-.057.279-.081.626-.077.347.005.617.057.616.104ZM350.551 225.02a2.332 2.332 0 0 1 .347-1.79c-.04.302-.103.6-.187.893a6.22 6.22 0 0 1-.16.897Z"/>
  <path fill="#FF9A6C" d="M329.992 233.477a6.67 6.67 0 1 1 .038-.021l-.038.021Z"/>
  <path fill="#FF725E" d="M329.992 233.477a6.67 6.67 0 1 1 .038-.021l-.038.021Z" opacity=".5"/>
  <path fill="#FF9A6C" d="M329.372 232.334a6.67 6.67 0 1 1 .038-.021l-.038.021Z"/>
  <path fill="#fff" d="M328.067 229.952a3.888 3.888 0 0 1-3.71-6.832 3.888 3.888 0 0 1 5.271 1.561l.001.002a3.887 3.887 0 0 1-1.562 5.269Z" opacity=".3"/>
  <path fill="#FF9A6C" d="M327.4 228.685c-1.873.366-3.377-.081-3.358-.998a2.477 2.477 0 1 1 4.356-2.36l.002.004a2.468 2.468 0 0 1-.988 3.347l-.012.007ZM365.78 237.274a5.945 5.945 0 1 1 5.26 10.663 5.945 5.945 0 0 1-5.26-10.663Z"/>
  <path fill="#FF725E" d="M365.78 237.274a5.945 5.945 0 1 1 5.26 10.663 5.945 5.945 0 0 1-5.26-10.663Z" opacity=".5"/>
  <path fill="#FF9A6C" d="M370.689 246.846a5.929 5.929 0 1 1 .033-.019l-.033.019Z"/>
  <path fill="#fff" d="M364.59 240.681a3.447 3.447 0 1 1 6.604 1.978 3.447 3.447 0 0 1-6.604-1.978Z" opacity=".3"/>
  <path fill="#FF9A6C" d="M368.936 243.602a2.201 2.201 0 1 1-2.09-3.875 2.201 2.201 0 0 1 2.09 3.875Z"/>
  <path fill="#455A64" d="M311.364 279.303a10.162 10.162 0 0 0 3.269 8.469 9.46 9.46 0 0 0 8.385 2.405c.265-5.757-4.187-10.638-9.944-10.902a10.391 10.391 0 0 0-1.71.062v-.034Z"/>
  <path fill="#263238" d="M313.973 281.496c.102-.076 1.897 2.261 4.514 4.76 2.617 2.498 5.005 4.235 4.929 4.328a7.087 7.087 0 0 1-1.651-1.008 32.879 32.879 0 0 1-6.716-6.47 6.52 6.52 0 0 1-1.076-1.61Z"/>
  <path fill="#455A64" d="M332.964 200.413a10.162 10.162 0 0 0-2.438 8.745 9.46 9.46 0 0 0 5.287 6.938c3.651-4.458 2.997-11.032-1.461-14.684a10.456 10.456 0 0 0-1.408-.972l.02-.027Z"/>
  <path fill="#263238" d="M333.746 203.73c.127 0 .17 2.947.776 6.514s1.484 6.386 1.367 6.415a7.143 7.143 0 0 1-.722-1.795 32.888 32.888 0 0 1-1.52-9.201 6.533 6.533 0 0 1 .099-1.933Z"/>
  <path fill="#455A64" d="M394.983 256.75a13.152 13.152 0 0 0-11.491-2.278 12.278 12.278 0 0 0-8.431 7.508c6.129 4.271 14.559 2.766 18.831-3.363.413-.592.778-1.217 1.091-1.867Z"/>
  <path fill="#263238" d="M390.814 258.093c.021.172-3.767.489-8.309 1.647s-8.084 2.559-8.149 2.401a9.062 9.062 0 0 1 2.256-1.102 41.661 41.661 0 0 1 5.754-1.856 42.052 42.052 0 0 1 5.957-1.067 8.883 8.883 0 0 1 2.491-.023Z"/>
  <path fill="#455A64" d="M327.856 251.294c-.022 1.423-2.23 2.539-4.93 2.496-2.7-.043-4.872-1.233-4.851-2.638a10.536 10.536 0 0 0-.028 1.628c-.022 1.423 2.148 2.609 4.845 2.654 2.697.045 4.911-1.075 4.933-2.497.045-.546.055-1.095.031-1.643Z"/>
  <path fill="#263238" d="M322.983 250.268c2.162.033 3.981.801 4.608 1.836.165-.238.257-.52.265-.81.022-1.423-2.148-2.609-4.845-2.654-2.697-.045-4.911 1.075-4.935 2.512-.001.29.082.574.24.817.669-1.023 2.508-1.736 4.667-1.701Z"/>
  <path fill="#455A64" d="M356.692 238.63c.565.544.184 1.852-.849 2.923-1.032 1.071-2.328 1.498-2.886.961.199.224.414.433.645.624.565.544 1.858.116 2.89-.953s1.414-2.381.849-2.925a6.895 6.895 0 0 0-.649-.63Z"/>
  <path fill="#263238" d="M354.447 240.206c.826-.858 1.819-1.302 2.472-1.165a.828.828 0 0 0-.226-.411c-.565-.544-1.858-.116-2.89.953s-1.414 2.381-.844 2.932a.824.824 0 0 0 .419.21c-.161-.654.243-1.663 1.069-2.519Z"/>
  <path fill="#455A64" d="M364.222 188.124c.382 1.105-1.01 2.586-3.108 3.31-2.097.724-4.109.415-4.486-.677.112.432.258.855.435 1.266.382 1.105 2.391 1.413 4.487.691 2.096-.721 3.492-2.207 3.109-3.313-.119-.434-.265-.86-.437-1.277Z"/>
  <path fill="#263238" d="M360.17 188.699c1.679-.581 3.3-.498 4.074.125.06-.23.053-.474-.022-.7-.382-1.105-2.391-1.413-4.487-.691-2.096.721-3.491 2.207-3.107 3.325.081.224.225.42.414.564.23-.978 1.45-2.045 3.128-2.623Z"/>
  <path fill="#FF725E" d="m368.496 269.894-13.844 11.158a1.04 1.04 0 0 0-.201 1.406c.895 1.276 2.261 2.497 4.228 3.586 10 5.534 16.28-4.835 14.891-10.879-.446-1.939-1.833-3.92-3.826-5.317a1.042 1.042 0 0 0-1.248.046Z"/>
  <path fill="#000" d="m368.496 269.894-13.844 11.158a1.04 1.04 0 0 0-.201 1.406c.895 1.276 2.261 2.497 4.228 3.586 10 5.534 16.28-4.835 14.891-10.879-.446-1.939-1.833-3.92-3.826-5.317a1.042 1.042 0 0 0-1.248.046Z" opacity=".3"/>
  <path fill="#FF725E" d="m367.763 269.224-13.844 11.158a1.04 1.04 0 0 0-.201 1.407c.895 1.276 2.261 2.497 4.228 3.586 10 5.534 16.28-4.835 14.891-10.879-.446-1.939-1.833-3.92-3.826-5.317a1.039 1.039 0 0 0-1.248.045Z"/>
  <path fill="#000" d="M366.599 270.557c.358-.518 4.871 1.104 4.852 4.867-.018 3.763-1.079 6.572-2.748 6.662-1.669.09-3.757-2.979-3.841-5.793-.085-2.815 1.309-5.116 1.737-5.736ZM355.361 280.188c.026-.731 3.827-2.807 6.352-2.34 2.525.467 5.448 4.643 5.343 5.752-.109 1.148-4.816 1.759-7.168.963-2.352-.797-4.566-3.295-4.527-4.375Z" opacity=".3"/>
  <path fill="#FF725E" d="M359.965 279.046c-.304-.321-3.207 1.604-2.556 2.261.652.658 3.211-1.568 2.556-2.261ZM363.733 280.592c.408-.115 1.838 2.993.776 3.038-1.062.045-1.183-2.922-.776-3.038ZM362.015 279.712c.505.1.045 4.163-1.321 4.022-1.367-.141.816-4.123 1.321-4.022ZM366.426 275.047c-.246-.772 3.489-1.691 3.6-.883.111.808-3.273 1.907-3.6.883ZM366.399 273.55c.416.345 2.331-1.2 1.782-1.681-.55-.481-2.197 1.336-1.782 1.681ZM366.207 276.62c-.035.308 3.318 1.081 3.215.423-.103-.657-3.128-1.194-3.215-.423ZM365.764 277.897c-.368.587 1.653 2.834 2.172 2.357.521-.476-1.646-3.195-2.172-2.357Z"/>
  <path fill="#fff" d="M364.996 271.935c.006.006-.075.102-.228.271-.152.169-.379.408-.665.698a34.252 34.252 0 0 1-4.877 4.072c-.336.23-.611.41-.805.53-.193.12-.302.183-.307.176-.005-.007.095-.084.28-.216l.781-.562a48 48 0 0 0 2.504-1.947 47.361 47.361 0 0 0 2.362-2.116l.692-.668c.164-.16.257-.245.263-.238Z"/>
  <path fill="#FF725E" d="M234.146 190.074s13.939 11.076 18.372 17.971 39.894 31.045 39.401 31.899c-.493.854-21.671 35.822-21.671 35.822l-11.768-5.945-24.335-78.522M184.607 319.278s-26.437 41.716-29.11 57.608l29.11 11.919v-69.527Z"/>
  <path fill="#FF725E" d="M167.046 184.307c0 1.048-4.98 14.154-4.98 14.154l-25.949 28.57 50.063 81.516 4.98 12.319 77.06-4.456s-11.009-58.451-11.795-68.149c-.786-9.698-22.279-58.189-22.279-58.189l-25.949 2.883-7.601-2.621-33.55-6.027Z"/>
  <path fill="#263238" d="M183.246 319.943c-.972-.389-6.013 16.477-14.583 47.318-8.569 30.841-2.706 93.864-2.706 93.864H299s-8.8-69.773-20.294-103.697c-11.344-33.48-10.746-54.52-13.265-54.301-2.52.217-82.195 16.816-82.195 16.816ZM260.26 272.694c-.009.001-.032-.074-.069-.223l-.15-.663a98.357 98.357 0 0 0-3.202-11.777c-1.304-3.831-3.023-8.365-5.523-13.089-2.628-4.657-5.871-9.595-9.547-14.565-7.345-9.963-15.088-18.132-21.129-23.53-2.995-2.734-5.603-4.729-7.391-6.123l-2.113-1.534-.543-.41c-.121-.095-.18-.147-.175-.155.005-.007.074.03.205.11l.572.368 2.174 1.458c1.83 1.346 4.481 3.304 7.517 6.011 6.123 5.345 13.935 13.502 21.303 23.496 3.689 4.989 6.925 9.941 9.551 14.646 2.5 4.781 4.185 9.339 5.451 13.201a85.972 85.972 0 0 1 2.488 9.299 45.23 45.23 0 0 1 .469 2.575l.099.673c.016.152.022.231.013.232Z"/>
  <path fill="#FF725E" d="M136.117 227.031s-4.893 5.637-3.105 18.35c1.788 12.713 22.484 70.295 22.484 70.295l45.364-15.296-24.036-47.794-16.657-20.879-24.05-4.676Z"/>
  <path fill="#263238" d="M258.473 260.494c-.017.004-.072-.151-.161-.449l-.363-1.31-1.294-4.825a308.768 308.768 0 0 0-4.741-15.775 308.522 308.522 0 0 0-5.615-15.488l-1.843-4.643-.491-1.267c-.107-.292-.155-.449-.139-.456.016-.007.097.136.235.414l.581 1.229a138.989 138.989 0 0 1 1.998 4.585c1.633 3.895 3.738 9.342 5.768 15.463 2.025 6.12 3.587 11.746 4.603 15.846a137.38 137.38 0 0 1 1.134 4.871l.268 1.333c.057.305.078.468.06.472ZM155.496 315.677c-.002-.007.069-.038.211-.093l.635-.235 2.477-.876 9.338-3.222a974259.5 974259.5 0 0 1 32.625-11.1l-.139.339-12.59-24.806-6.891-13.611c-1.066-2.227-2.331-4.28-3.484-6.355a405.927 405.927 0 0 0-3.475-6.02c-2.301-3.894-4.602-7.529-7.019-10.735-1.221-1.592-2.475-3.07-3.788-4.383-1.307-1.321-2.752-2.369-4.2-3.264a29.129 29.129 0 0 0-8.448-3.52 29.552 29.552 0 0 0-6.879-.87c-1.911-.033-3.386.171-4.386.277l-1.131.179c-.256.038-.388.053-.39.044-.002-.009.127-.041.379-.096l1.126-.23c.998-.14 2.478-.377 4.402-.376a29.026 29.026 0 0 1 6.946.789 29.19 29.19 0 0 1 8.572 3.49c1.467.893 2.954 1.958 4.288 3.291 1.339 1.323 2.613 2.81 3.85 4.408 2.449 3.217 4.771 6.857 7.089 10.752a393.452 393.452 0 0 1 3.495 6.019c1.154 2.066 2.435 4.139 3.501 6.36l6.903 13.61 12.562 24.83.127.25-.265.089-32.685 10.921-9.382 3.091-2.502.803-.648.197c-.146.041-.222.06-.224.053ZM198.483 217.076c-.066.128-8.235-3.952-18.244-9.11-10.013-5.161-18.073-9.446-18.008-9.574.066-.128 8.233 3.951 18.246 9.111 10.01 5.158 18.072 9.445 18.006 9.573ZM208.336 193.615c.143-.011.585 4.305.986 9.639.401 5.335.61 9.668.467 9.679-.143.011-.585-4.304-.986-9.64-.402-5.334-.611-9.667-.467-9.678ZM220.429 211.577c.003.009-.105.05-.319.122l-.949.308c-.837.259-2.065.665-3.64 1.202-3.149 1.077-7.67 2.747-13.168 5.027-5.498 2.28-11.981 5.153-19.078 8.555-1.764.895-3.725 1.51-5.402 2.617-.817.563-1.554 1.294-1.852 2.237-.33.932-.213 1.991.172 2.932.81 1.921 2.497 3.382 3.98 5.017l2.279 2.457 2.2 2.586c2.898 3.513 5.578 7.068 7.966 10.635 2.428 3.54 4.599 7.067 6.605 10.46 3.984 6.805 7.227 13.124 9.837 18.48a362.735 362.735 0 0 1 5.923 12.807l1.518 3.523.381.922c.083.209.122.318.113.321-.008.004-.063-.098-.162-.3l-.428-.901-1.607-3.482a486.455 486.455 0 0 0-6.069-12.728c-2.649-5.33-5.922-11.622-9.92-18.399-2.013-3.379-4.187-6.892-6.614-10.416-2.386-3.552-5.059-7.091-7.944-10.589l-2.189-2.574-2.266-2.445c-1.461-1.624-3.194-3.099-4.076-5.18-.42-1.028-.557-2.22-.178-3.286.349-1.086 1.186-1.896 2.051-2.488 1.783-1.164 3.73-1.757 5.475-2.639 7.117-3.382 13.622-6.223 19.145-8.463 5.524-2.239 10.071-3.859 13.244-4.878 1.587-.508 2.826-.883 3.674-1.11l.964-.258c.219-.056.331-.08.334-.072Z"/>
  <path fill="#000" d="M198.703 247.331a3.465 3.465 0 1 0 0-6.93 3.465 3.465 0 0 0 0 6.93ZM231.206 233.889a3.465 3.465 0 1 0 0-6.93 3.465 3.465 0 0 0 0 6.93ZM220.429 277.514a3.465 3.465 0 1 1-6.93 0 3.466 3.466 0 0 1 6.93 0ZM249.118 269.932a3.465 3.465 0 1 0 0-6.93 3.465 3.465 0 0 0 0 6.93Z" opacity=".3"/>
  <path fill="#FF9A6C" d="M273.408 320.453c.061-.135 1.093.209 2.376.555 1.282.352 2.346.578 2.33.725-.012.139-1.138.141-2.466-.222-1.33-.36-2.3-.932-2.24-1.058Z"/>
  <path fill="#FFBF9D" d="M162.661 313.261c.169.901 14.771 21.605 26.453 21.605 11.681 0 69.244-17.253 69.244-17.253l-6.66-17.84-57.603 8.656-2.84-4.809-28.594 9.641Z"/>
  <path fill="#FFBF9D" d="M251.698 299.773c.297-.248 10.986-4.871 16.891-6.162 5.905-1.291 9.756-.752 13.648 1.307 3.892 2.059 12.41 4.379 14.264 6.274 1.404 1.435.117 3.939-2.502 3.684-2.619-.254-12.688-2.504-12.901-2.48-.043.005-.096.11-.154.275-.453 1.291-.063 2.73.936 3.665l6.822 6.393s.096 2.862-1.789 3.391c-1.886.529-3.416 1.344-3.416 1.344s-.767 3.862-3.754 4.188c-2.987.326-12.048-2.573-12.486-2.633-.438-.06-8.898-1.405-8.898-1.405l-6.661-17.841Z"/>
  <path fill="#FF9A6C" d="M276.775 315.955c.064-.137 1.512.432 3.354.91 1.841.489 3.381.705 3.369.855-.005.136-1.606.151-3.501-.352-1.897-.492-3.284-1.291-3.222-1.413Z"/>
  <path fill="#FFBF9D" d="m263.992 318.009 9.701 4.517c.693.323 1.447.654 2.197.503 1.123-.226 1.747-1.401 2.217-2.446"/>
  <path fill="#263238" d="M169.389 103.831c10.038-7.701 20.183-9.054 33.017-8.858 7.241.111 8.364-4.039 13.532-2.477 5.167 1.562 9.782 4.489 12.752 8.972 3.528 5.324 6.445 11.254 6.942 17.608.511 6.527 1.021 13.098.32 19.607l-.021.195c-1.144 10.24-9.196 18.35-19.4 19.78l-4.109.576c-9.239.02-18.606.023-27.531-2.354-8.925-2.377-13.136 21.538-16.507 12.991-11.403-28.914-9.153-58.248 1.005-66.04Z"/>
  <path fill="#FFBF9D" d="m206.422 97.744-6.673-.991-25.96 9.377a7.145 7.145 0 0 0-6.995 6.668l2.009 72.113 31.974 20.162v11.023l8.189-2.73-3.757-9.393c.027-6.795-.035-15.415-.035-15.415s17.205-1.129 22.175-21.088c2.471-9.926 3.398-26.473 3.718-40.036.288-12.209-9.578-29.16-24.645-29.69Z"/>
  <path fill="#263238" d="M221.418 144.036c-.071 1.376-1.293 2.449-2.731 2.402-1.434-.047-2.543-1.197-2.472-2.572.07-1.375 1.293-2.45 2.727-2.403 1.438.046 2.546 1.198 2.476 2.573ZM226.258 134.066c-.351.31-2.191-1.315-4.985-1.551-2.787-.275-4.962.985-5.235.616-.136-.164.246-.746 1.194-1.319.935-.571 2.488-1.07 4.227-.912 1.739.161 3.147.928 3.931 1.657.802.734 1.04 1.372.868 1.509ZM207.582 155.439c0-.16 1.763-.309 4.607-.425.719-.012 1.407-.095 1.57-.571.212-.501-.019-1.295-.293-2.155l-1.638-5.614c-2.257-7.986-3.827-14.529-3.505-14.616.323-.088 2.415 6.314 4.673 14.3.539 1.968 1.056 3.844 1.546 5.638.2.834.584 1.794.127 2.832-.239.516-.795.857-1.264.941-.469.1-.87.072-1.225.063-2.844-.093-4.602-.233-4.598-.393Z"/>
  <path fill="#FF9A6C" d="M205.207 188.536s-13.691-.303-26.477-9.582c0 0 6.003 14.655 26.424 14.518l.053-4.936Z"/>
  <path fill="#263238" d="M225.616 124.237c-.528.641-2.628 0-5.145-.009-2.516-.09-4.644.469-5.14-.193-.219-.321.112-.962 1.038-1.573.913-.609 2.443-1.113 4.173-1.08 1.729.036 3.233.598 4.114 1.243.895.647 1.193 1.3.96 1.612ZM190.334 142.034c-.116 1.372.949 2.601 2.38 2.748 1.427.148 2.682-.842 2.798-2.214.116-1.372-.95-2.603-2.377-2.75-1.431-.147-2.685.845-2.801 2.216ZM188.428 131.783c.306.355 2.349-1.006 5.149-.862 2.799.105 4.783 1.647 5.104 1.318.157-.144-.143-.773-1.005-1.469-.849-.692-2.321-1.397-4.065-1.475-1.745-.076-3.244.494-4.119 1.109-.894.619-1.216 1.218-1.064 1.379ZM190.394 122.871c.52.663 2.713.11 5.312.206 2.602.015 4.777.663 5.315.023.238-.312-.077-.966-1.009-1.616-.918-.646-2.477-1.214-4.265-1.254-1.787-.037-3.363.463-4.298 1.07-.949.608-1.282 1.249-1.055 1.571Z"/>
  <path fill="#FFBF9D" d="M169.195 146.978c.127-1.507-1.306-5.212-2.775-5.574-3.921-.964-11.113-1.267-12.056 8.822-1.288 13.791 14.777 11.996 14.838 11.603.049-.307-.446-9.646-.007-14.851Z"/>
  <path fill="#FF9A6C" d="M163.916 156.679c-.056-.05-.256.146-.679.294a2.412 2.412 0 0 1-1.8-.131c-1.407-.671-2.417-3.098-2.251-5.59a7.975 7.975 0 0 1 .993-3.378c.516-.969 1.234-1.613 1.98-1.674a1.23 1.23 0 0 1 1.357.79c.149.403.035.671.106.701.035.039.318-.203.26-.782a1.547 1.547 0 0 0-.462-.916c-.305-.3-.779-.482-1.296-.475-1.071-.025-2.119.863-2.709 1.904a8.204 8.204 0 0 0-1.192 3.766c-.171 2.787 1.008 5.52 2.949 6.283.946.343 1.783.127 2.231-.16.457-.3.558-.602.513-.632Z"/>
  <path fill="#263238" d="m165.855 141.813 3.395 3.753c15.621-14.031 46.403-49.425 44.681-47.313 0 0-10.251-4.601-21.585-3.038-11.334 1.563-32.895 6.527-32.989 19.833-.093 13.306 6.498 26.765 6.498 26.765Z"/>
  <path fill="#FF725E" d="M231.878 109.713c-1.172-2.555.111-5.646 2.292-7.53 2.181-1.884 5.076-2.82 7.896-3.656 2.821-.836 5.732-1.658 8.057-3.382 4.612-3.42 5.834-9.608 5.192-15.1-1.227-10.493-8.082-19.973-17.18-26.117-9.098-6.144-20.25-9.185-31.407-10.11-23.205-1.925-44.109 6.102-61.893 20.322-2.919 2.334-4.755 5.92-4.916 9.522-.128 2.857 1.551 5.48 3.289 7.82 5.352 7.208 11.626 12.195 18.995 17.592l-2.067 11.783 71.742-1.144Z"/>
  <path fill="#263238" d="M248.745 74.964c.022.021-.219.348-.728.875-.508.528-1.296 1.242-2.341 2.032-1.045.789-2.351 1.643-3.824 2.537-1.47.898-3.105 1.847-4.734 2.958-1.626 1.113-3.082 2.31-4.205 3.581-1.128 1.267-1.928 2.588-2.431 3.765-1.012 2.381-.818 4.057-.931 4.043-.024.002-.102-.401-.074-1.138.026-.735.192-1.805.663-3.043.475-1.234 1.269-2.619 2.411-3.943 1.139-1.329 2.622-2.565 4.272-3.694 1.653-1.127 3.303-2.067 4.782-2.94 1.482-.87 2.794-1.682 3.854-2.424 2.129-1.478 3.223-2.671 3.286-2.609ZM237.455 63.195c.06.093-1.635 1.079-4.001 3.137-.588.518-1.228 1.089-1.859 1.76-.666.637-1.294 1.395-1.975 2.173a38.513 38.513 0 0 0-3.781 5.553 38.51 38.51 0 0 0-2.654 6.173c-.29.993-.592 1.93-.772 2.833-.228.893-.365 1.74-.486 2.514-.465 3.1-.386 5.06-.497 5.059-.036 0-.064-.486-.085-1.37-.017-.443-.021-.984.031-1.611.044-.627.058-1.346.186-2.128.099-.787.217-1.647.429-2.556.164-.92.454-1.874.736-2.885a36.42 36.42 0 0 1 2.655-6.28 36.418 36.418 0 0 1 3.87-5.611c.701-.781 1.35-1.538 2.038-2.17.653-.667 1.315-1.23 1.925-1.735.591-.528 1.19-.926 1.695-1.3.501-.38.96-.668 1.343-.891.757-.458 1.183-.696 1.202-.665ZM211.435 57.835c.036.005.011.46-.065 1.276-.08.816-.184 1.997-.294 3.456a106.254 106.254 0 0 0-.242 11.422c.158 4.462.609 8.484 1.032 11.38.21 1.448.396 2.619.532 3.427.132.809.188 1.26.153 1.268-.035.007-.159-.43-.352-1.228a55.574 55.574 0 0 1-.697-3.409c-.518-2.892-1.03-6.932-1.189-11.42-.152-4.487.079-8.552.396-11.473a55.63 55.63 0 0 1 .459-3.449c.139-.81.232-1.255.267-1.25ZM194.459 52.699c.036.002.047.574.037 1.605a156.15 156.15 0 0 0 .006 4.365c.045 3.683.293 8.771 1.015 14.344a125.753 125.753 0 0 0 2.695 14.127c.448 1.786.833 3.228 1.113 4.22.274.994.41 1.55.375 1.561-.034.011-.235-.524-.569-1.502-.34-.976-.78-2.405-1.275-4.186-.994-3.559-2.121-8.554-2.855-14.154-.725-5.599-.916-10.715-.867-14.41.023-1.848.081-3.343.16-4.373.072-1.03.129-1.598.165-1.597ZM162.4 64.446c.027-.024.406.36 1.068 1.077a87.049 87.049 0 0 1 2.719 3.109c2.248 2.667 5.218 6.47 8.215 10.873 2.993 4.407 5.438 8.569 7.091 11.64a86.872 86.872 0 0 1 1.891 3.672c.423.879.641 1.372.609 1.389-.032.016-.311-.446-.788-1.295l-2.033-3.587a183.01 183.01 0 0 0-7.2-11.527 182.447 182.447 0 0 0-8.07-10.933l-2.588-3.21c-.614-.754-.941-1.184-.914-1.208Z"/>
  <path fill="#FF725E" d="M160.693 132.972c-3.814-13.042-1.81-22.116.693-31.421 0 0 30.869-18.42 56.312-12.6 0 0 15.892 3.193 17.941 11.438l.447 28.086s-1.734-11.114-24.874-11.994c-23.14-.88-50.519 16.491-50.519 16.491Z"/>
  <path fill="#FF9A6C" d="M195.694 162.149c.189-.919.764-1.703 1.462-2.219 1.397-1.033 3.33-1.004 4.669.069 1.34 1.073 2.005 3.124 1.607 4.957-.869 1.03-2.132 1.676-3.479 1.696a5.513 5.513 0 0 1-.629-.025c-1.014-.099-2.023-.516-2.745-1.321-.722-.804-1.118-2.023-.885-3.157Z"/>
  <path fill="#263238" d="M197.744 157.638c.4.028.069 2.678 2.101 4.848 2.026 2.176 4.891 2.238 4.865 2.61.016.171-.695.435-1.892.316-1.176-.109-2.838-.702-4.08-2.029-1.239-1.329-1.639-2.944-1.592-4.043.04-1.121.419-1.74.598-1.702ZM234.978 100.497c-.016.007-.158-.237-.412-.706-.135-.23-.264-.535-.48-.86l-.743-1.116c-1.178-1.626-3.302-3.737-6.505-5.407-3.18-1.701-7.357-2.961-12.09-3.6a57.894 57.894 0 0 0-15.501 0c-2.736.358-5.378.912-7.897 1.565-2.519.65-4.904 1.459-7.18 2.215a216.773 216.773 0 0 0-11.945 4.43c-3.366 1.355-6.061 2.522-7.926 3.322l-2.149.92c-.493.207-.756.307-.763.291-.007-.016.24-.149.72-.386l2.11-1.009a210.174 210.174 0 0 1 7.87-3.478 193.446 193.446 0 0 1 11.93-4.544c2.275-.77 4.665-1.591 7.204-2.254 2.536-.664 5.199-1.227 7.958-1.587 5.516-.745 10.866-.642 15.637.04 4.773.67 8.991 1.982 12.198 3.75 3.23 1.738 5.355 3.93 6.496 5.614l.711 1.156c.203.336.32.65.44.89.224.489.333.747.317.754Z"/>
</svg>
