<svg xmlns="http://www.w3.org/2000/svg" width="450" height="505" fill="none">
  <path fill="#DBDBDB" d="m307.889 120.833-.845 4.208c.067-.334.092-.668.075-1.001-.373-6.899-19.302-15.12-45.879-15.873-25.295-.718-42.909 5.744-44.228 12.317l.844-4.208c1.318-6.572 18.932-13.033 44.228-12.317 26.577.754 45.506 8.974 45.879 15.873.018.334-.007.667-.074 1.001Z"/>
  <path fill="#EBEBEB" d="M261.809 98.875c28.731.814 51.699 10.101 52.295 21.132.596 11.039-21.437 19.049-50.169 18.235-28.719-.814-51.698-10.101-52.295-21.14-.595-11.031 21.45-19.04 50.169-18.227Zm1.852 34.274c26.577.753 44.675-6.409 44.302-13.317-.373-6.898-19.302-15.119-45.879-15.872-26.577-.754-44.675 6.417-44.302 13.316.373 6.907 19.302 15.119 45.879 15.873Z"/>
  <path fill="#DBDBDB" d="m313.96 122.014-.844 4.207c-2.004 9.988-23.066 16.992-50.024 16.228-28.72-.813-51.699-10.1-52.295-21.14a7.922 7.922 0 0 1 .143-2.003l.844-4.208a7.93 7.93 0 0 0-.144 2.003c.597 11.04 23.575 20.326 52.296 21.141 26.959.764 48.021-6.241 50.024-16.228ZM375.762 99.352l-2.884 4.108c.23-.326.413-.672.551-1.037 2.848-7.563-13.554-25.276-41.66-38.592-26.751-12.674-48.655-14.046-53.16-7.629l2.884-4.108c4.505-6.418 26.409-5.046 53.16 7.628 28.106 13.317 44.507 31.03 41.659 38.592-.136.366-.32.713-.55 1.038Z"/>
  <path fill="#EBEBEB" d="M336.753 54.148c30.385 14.396 50.61 35.15 46.056 47.244-4.558 12.102-31.924 10.31-62.307-4.086-30.373-14.39-50.61-35.15-46.052-47.253 4.553-12.093 31.93-10.295 62.303 4.095Zm-14.149 37.573c28.106 13.317 50.858 14.166 53.71 6.592 2.848-7.563-13.554-25.275-41.659-38.592-28.106-13.316-50.862-14.155-53.71-6.593-2.852 7.574 13.552 25.278 41.659 38.593Z"/>
  <path fill="#DBDBDB" d="m381.709 103.474-2.884 4.108c-6.847 9.752-32.698 7.34-61.209-6.168-30.373-14.39-50.609-35.15-46.051-47.253a9.266 9.266 0 0 1 1.097-2.078l2.884-4.108a9.262 9.262 0 0 0-1.097 2.078c-4.558 12.102 15.679 32.863 46.051 47.253 28.51 13.508 54.362 15.919 61.209 6.168ZM113.77 229.571l.154 5.018a4.696 4.696 0 0 0-.182-1.16c-2.252-7.761-25.998-12.11-56.478-5.923-29.01 5.888-47.366 17.917-47.125 25.755l-.154-5.018c-.239-7.838 18.116-19.868 47.126-25.756 30.48-6.186 54.225-1.837 56.478 5.924.109.375.169.762.181 1.16Z"/>
  <path fill="#EBEBEB" d="M55.45 216.768c32.95-6.688 61.58-2.196 65.183 10.214 3.606 12.42-19.375 27.386-52.325 34.074-32.937 6.684-61.58 2.195-65.185-10.224-3.603-12.41 19.39-27.38 52.328-34.064Zm11.194 38.557c30.48-6.185 49.201-19.142 46.945-26.914-2.254-7.761-25.998-12.11-56.478-5.923-30.48 6.187-49.199 19.153-46.945 26.914 2.256 7.77 25.998 12.109 56.478 5.923Z"/>
  <path fill="#DBDBDB" d="m121 229.307.154 5.018c.364 11.91-21.776 25.473-52.693 31.748-32.937 6.684-61.58 2.196-65.185-10.224a9.33 9.33 0 0 1-.367-2.321l-.153-5.018c.023.781.145 1.556.367 2.32 3.606 12.42 32.248 16.909 65.185 10.225 30.915-6.274 53.055-19.839 52.692-31.748ZM388.92 382.119c-11.859 40.302-39.582 69.512-74.962 86.324-33.244 15.792-90.558 16.24-144.368.407-53.798-15.83-101.737-47.249-121.13-78.529-20.636-33.296-28.122-72.865-16.263-113.168L388.92 382.119Z"/>
  <path fill="#fff" d="M388.92 382.119c-11.859 40.302-39.582 69.512-74.962 86.324-33.244 15.792-90.558 16.24-144.368.407-53.798-15.83-101.737-47.249-121.13-78.529-20.636-33.296-28.122-72.865-16.263-113.168L388.92 382.119Z" opacity=".3"/>
  <path fill="#455A64" d="M359.935 434.46a136.293 136.293 0 0 1-7.282 7.526c-36.332 8.795-78.991 9.591-122.547 2.364a382.818 382.818 0 0 1-46.312-10.684c-52.779-15.65-111.101-36.774-154.108-89.117a129.009 129.009 0 0 1-1.983-11.314c16.69 22.445 37.173 40.909 62.063 56.012 30.75 18.667 64.105 29.871 95.577 39.206 61.523 18.248 124.976 20.218 174.592 6.007Z"/>
  <path fill="#455A64" d="M346.265 447.72a103.374 103.374 0 0 1-3.624 2.961c-34.749 6.829-74.614 6.876-115.304.125a395.796 395.796 0 0 1-47.096-10.814c-49.052-14.447-102.824-33.482-145.072-76.777a104.726 104.726 0 0 1-1.693-4.814c14.238 15.288 30.69 28.463 49.61 39.796 31.51 18.871 65.611 30.242 97.765 39.712 57.622 16.972 116.879 20.231 165.414 9.811Z"/>
  <path fill="#000" d="M388.921 382.122c-11.859 40.302-39.582 69.513-74.963 86.324-33.243 15.792-90.559 16.24-144.367.407a288.45 288.45 0 0 1-25.835-8.954c45.348 8.805 89.988 6.337 117.791-6.874 35.38-16.813 63.104-46.023 74.962-86.325l52.412 15.422Z" opacity=".1"/>
  <path fill="#EBEBEB" d="M388.921 382.118c-21.885 74.377-166.444 43.324-203.352 32.464-36.918-10.864-175.257-63.053-153.37-137.43 23.963-81.442 162.652-52.484 205.539-39.864 42.877 12.616 175.146 63.388 151.183 144.83Z"/>
  <path fill="#fff" d="M388.921 382.118c-21.885 74.377-166.444 43.324-203.352 32.464-36.918-10.864-175.257-63.053-153.37-137.43 23.963-81.442 162.652-52.484 205.539-39.864 42.877 12.616 175.146 63.388 151.183 144.83Z" opacity=".5"/>
  <path fill="#A6A6A6" d="M372.17 376.705c-19.252 65.427-150.047 37.041-183.463 27.209-33.424-9.835-158.75-56.814-139.498-122.241 21.08-71.642 146.561-45.144 185.389-33.719 38.819 11.424 158.653 57.109 137.572 128.751Z" opacity=".4"/>
  <path fill="#A6A6A6" d="M359.063 398.096c-39.227 36.813-141.385 14.337-170.355 5.814-29.821-8.775-132.758-47.096-140.966-101.716 40.557-44.565 139.319-23.888 172.948-13.996 34.448 10.138 132.551 47.811 138.373 109.898Z" opacity=".4"/>
  <path fill="#455A64" d="M220.763 244.261s.063-10.008 1.375-15.708c1.312-5.7 6.337-14.105 7.468-15.983 1.131-1.877 1.025-3.054 1.025-3.054s.457 7.829.202 9.019c-.256 1.191-1.392 3.674-1.392 3.674s7.377-6.302 10.781-6.807c3.402-.506 17.449 1.384 17.822 1.594.373.209-.991 2.151-1.525 3-.535.849-7.949 7.776-10.82 9.817-2.87 2.04-12.27 3.657-13.527 4.601-1.255.944-9.683 13.196-9.683 13.196l-1.726-3.349ZM197.366 227.405s2.76-18.275 4.509-24.914c1.749-6.639 9.201-18.474 9.873-19.811.672-1.338.526 7.446-.317 9.379-.842 1.931 8.525-12.635 13.232-19.691 4.708-7.055 21.703-23.782 22.386-25.005.684-1.223 1.05 6.933.162 8.408 0 0 6.183-5.013 14.46-8.738 8.276-3.725 19.76-8.814 20.776-9.033 1.016-.218-2.335 12.237-4.169 15.77-1.833 3.533-23.167 28.661-26.351 31.407-3.183 2.747-13.135 8.143-13.135 8.143s7.513-2.148 7.492-1.222c-.021.925-6.149 5.355-11.925 7.557-5.778 2.202-21.999 8.349-23.849 9.46-1.849 1.111-13.324 26.753-13.324 26.753l.18-8.463Z"/>
  <path fill="#37474F" d="M203.808 212.281c4.119-7.18 8.162-14.513 13.575-20.824 2.833-3.057 5.871-5.865 8.875-8.72 7.62-7.029 15.164-14.183 23.596-20.252 5.024-3.273 10.498-7.037 15.385-10.464l10.208-7.07c-8.238 6.261-16.509 12.51-25.113 18.268-5.03 3.563-9.612 7.8-14.248 11.872-7.528 7.021-15.808 13.425-22.023 21.669-3.635 5.023-6.965 10.262-10.255 15.521Z"/>
  <path fill="#37474F" d="M241.883 156.419c-2.927 4.512-7.508 10.82-10.672 15.267-2.674 3.561-4.903 8.03-7.144 11.919-.783 1.343-1.528 2.704-2.325 4.041 1.825-4.3 3.829-8.513 6.08-12.608 4.088-6.632 9.1-12.631 14.061-18.619ZM234.165 195.193c-8.104 2.591-16.725 3.568-24.398 7.378 7.042-5.066 16.027-6.155 24.398-7.378Z"/>
  <path fill="#455A64" d="M132.993 347.076s-22.417-19.605-28.449-25.223c-6.033-5.618-14.165-9.765-18.499-15.333-4.333-5.569-9.242-8.712-14.92-12.444-5.677-3.731-18.452-8.381-18.018-7.195.434 1.184 8.527 9.567 11.866 12.85 3.338 3.284 15.129 9.495 15.129 9.495s-24.312-5.852-34.332-5.897c-10.02-.045-36.473 4.588-34.288 6.991 2.185 2.401 20.46 9.978 28.793 11.352 8.333 1.375 42.36-1.368 46.57-.34 4.212 1.026 16.574 6.445 16.574 6.445s-9.919-2.637-17.94-2.189c-8.02.449-23.21 6.687-24.01 7.416-.8.728 17.145 4.274 24.102 3.622 6.957-.653 20.604-3.439 26.951-.902 6.346 2.538 23.063 16.514 23.063 16.514l-2.592-5.162Z"/>
  <path fill="#37474F" d="M23.83 309.927c6.535-.166 13.065-.221 19.593-.26a904.05 904.05 0 0 1 7.348-.01c4.118.044 8.194.625 12.26 1.117 6.478.921 12.939 1.93 19.355 3.233 3.232.535 6.427 1.627 9.278 3.249 2.896 1.521 5.774 3.069 8.61 4.694-2.943-1.421-5.866-2.881-8.83-4.248-2.93-1.535-5.928-2.474-9.207-2.928a420.17 420.17 0 0 0-19.34-2.995c-4.82-.663-9.695-1.319-14.56-1.252l-4.904-.082c-6.538-.124-13.074-.265-19.604-.518ZM74.859 331.241c5.999-1.167 11.904-2.238 18.042-2.603 6.121.226 12.08 1.3 18.04 2.57l-4.528-.422c-4.351-.412-9.201-1.031-13.514-1.134-5.8.295-12.228 1.233-18.04 1.589ZM60.685 291.489c4.915 3.574 9.656 7.569 14.334 11.452 2.77 2.142 6.025 4.436 8.715 6.704-1.842-1.042-4.445-2.714-6.254-3.877-6.157-4.017-11.523-9.178-16.795-14.279Z"/>
  <path fill="#455A64" d="M152.36 281.404s-12.629-13.388-14.647-17.173c-2.019-3.786-3.838-16.028-4.645-16.927-.807-.898.415 8.146-2.643 6.185-3.058-1.961-6.379-5.389-9.655-9.671-3.275-4.281-4.768-15.553-4.84-18.513-.072-2.96.467-6.609-.174-7.413-.641-.804-1.977 3.472-1.977 3.472s-2.251-6.465-2.09-9.449c.161-2.985.396-8.93-1.332-13.868-1.729-4.939-13.392-17-14.222-17.472-.83-.473-.455 2.085-.71 5.236-.256 3.15-1.216 14.614-1.133 17.298.083 2.684 3.206 10.834 3.206 10.834s-4.931-3.687-6.355-5.303c-1.424-1.616-4.536-7.856-5.459-11.896-.922-4.039.317-10.074-.73-12.867-1.046-2.793-2.394-6.344-2.774-6.706-.38-.363-1.872 4.061-1.808 4.976.064.917-.359-7.089-1.77-11.555-1.413-4.466-13.57-13.731-13.901-13.919-.332-.189-1.737 9.997-1.147 13.848.59 3.852 6.245 15.274 6.245 15.274s-4.428-4.572-5.473-6.339c-1.045-1.767-5.183-12.765-6.451-15.684-1.268-2.919-3.798-5.678-4.289-6.104-.49-.425-.495 6.017-.811 5.543-.317-.474-2.125-6.043-4.15-8.661-2.026-2.618-12.501-7.116-12.501-7.116s4.818 21.639 6.15 25.473c1.333 3.835 4.634 10.385 4.634 10.385s-6.237-6.025-6.569-6.214c-.331-.19 4.644 11.14 6.877 15.194 2.232 4.054 9.384 13.106 10.869 14.098 1.485.992 7.176 4.378 7.176 4.378l-8.876-1.391s8.746 9.081 13.09 10.968c4.346 1.888 15.91 6.275 16.67 7 .758.725-2.302 2.498-2.76 2.531-.457.032-7.784-.478-8.938-1.28-1.153-.804 1.806 3.518 18.905 13.107 17.099 9.589 32.433 21.248 35.751 23.137 3.316 1.889 23.257 16.584 23.257 16.584Z"/>
  <path fill="#37474F" d="M129.906 262.495c-9.047-8.811-20.353-19.738-28.957-28.765-3.022-3.385-5.904-6.822-9.352-9.817-4.452-4.065-9.11-7.919-13.987-11.454-2.49-1.763-4.724-3.882-6.804-6.084-5.165-5.479-9.779-11.622-14.215-17.703-.717-1.049-2.015-2.611-2.547-3.799-5.278-10.917-9.926-22.065-14.678-33.188l7.521 16.502c2.527 5.486 4.995 11.022 7.732 16.382.348.693.69 1.235 1.193 1.863 4.899 6.633 9.892 13.414 15.58 19.387 2.077 2.181 4.26 4.23 6.713 5.958 4.898 3.583 9.554 7.468 14.012 11.572 2.774 2.545 5.48 5.266 7.83 8.232l1.517 1.671c8.47 9.073 19.693 20.266 28.442 29.243Z"/>
  <path fill="#37474F" d="M66.794 213.883c3.27 1.579 6.564 3.246 10.06 4.233 1.145.292 2.44.486 3.572.909 4.644 1.65 9.017 3.871 13.267 6.33-3.984-1.655-9.528-4.153-13.536-5.529-1.163-.45-2.305-.598-3.516-.941-3.536-1.118-6.781-2.967-9.847-5.002ZM115.268 248.42c-3.464-9.466-6.68-18.97-9.831-28.553-2.675-9.74-4.446-19.649-6.013-29.606 1.978 8.682 4.376 20.949 6.821 29.363 2.708 8.452 6.588 20.385 9.023 28.796ZM68.214 165.186c2.192 7.542 5.368 17.985 7.865 25.303 2.48 8.336 4.923 17.124 6.966 25.584-2.273-7.028-5.608-18.184-7.773-25.337-2.765-8.399-5.216-16.898-7.058-25.55Z"/>
  <path fill="#455A64" d="M123.423 278.428s-6.425-8.041-11.068-11.654c-4.642-3.612-9.149-6.298-9.427-6.509-.278-.21-3.23-5.402-4.84-7.594-1.608-2.194-7.22-6.601-7.698-6.939-.479-.337 2.224 6.675 3.356 8.45 1.131 1.775 7.037 7.408 7.037 7.408s-8.367-1.473-10.057-2.086c-1.689-.612-9.444-5.346-11.53-6.306-1.125-.516-4.628-3.204-5.19-3.462-.561-.259 2.896 4.216 4.886 5.81 1.989 1.594 5.668 3.8 5.668 3.8s-7.753-1.661-9.978-3.504c-2.227-1.844-9.03-8.84-15.035-12.161-6.005-3.321-23.112-7.497-21.86-5.678 1.252 1.819 13.708 19.516 20.647 24.405 6.939 4.888 19.456 4.398 23.223 4.78 3.766.381 16.246-.232 18.669.317 0 0-.82.304-4.105 1.762-3.286 1.458-7.92 3.247-7.526 3.745.392.497 5.004 4.35 8.561 4.93 3.558.578 7.987-9.011 9.098-9.592 1.111-.58 6.646 2.078 7.836 3.165 1.19 1.086 11.944 11.823 11.944 11.823l-2.611-4.91Z"/>
  <path fill="#37474F" d="M44.066 241.434c7.215 3.426 14.477 6.399 20.558 11.706 3.103 2.314 6.041 5.113 9.632 6.617 3.74 1.143 7.685 1.739 11.538 2.462-3.93-.415-7.851-.868-11.715-1.905-1.95-.599-3.54-1.878-5.187-3.005-3.215-2.292-6.26-4.83-9.38-7.23-4.904-3.212-10.373-5.696-15.446-8.645ZM93.892 272.825c2.687-2.308 5.787-4.222 9.245-5.096-3.039 1.843-5.984 3.662-9.245 5.096ZM93.044 249.896c1.253 1.803 2.277 3.906 3.681 5.539 1.54 1.637 3.039 3.314 4.37 5.152-1.767-1.423-3.365-3.006-4.922-4.629-1.514-1.802-2.353-3.894-3.13-6.062Z"/>
  <path fill="#455A64" d="M309.738 111.016s-9.674-3.516-15.519-4.179c-5.845-.664-11.091-.609-11.438-.643-.347-.035-5.572-2.928-8.087-3.962-2.515-1.033-9.601-1.872-10.186-1.91-.584-.039 5.377 4.539 7.267 5.464 1.891.926 9.865 2.656 9.865 2.656s-7.909 3.101-9.669 3.46c-1.761.358-10.848.357-13.128.626-1.228.145-5.619-.325-6.234-.251-.614.072 4.669 2.089 7.198 2.414 2.528.324 6.817.29 6.817.29s-7.483 2.622-10.344 2.208c-2.861-.414-12.313-2.84-19.169-2.546-6.856.294-23.634 5.644-21.617 6.544 2.017.899 21.869 9.515 30.339 10.072 8.469.557 18.898-6.384 22.311-8.021 3.413-1.637 13.747-8.663 16.1-9.456 0 0-.542.687-2.586 3.643-2.045 2.957-5.068 6.898-4.474 7.118.595.22 6.539 1.107 9.877-.253 3.338-1.359 2.122-11.852 2.768-12.927.646-1.074 6.755-1.688 8.337-1.382 1.582.308 16.356 3.87 16.356 3.87l-4.784-2.835Z"/>
  <path fill="#37474F" d="M222.729 120.789c7.942-.835 15.691-2.081 23.647-.719 3.853.358 7.82 1.216 11.669.629 3.788-.973 7.465-2.519 11.131-3.91-3.57 1.694-7.154 3.349-10.992 4.478-1.975.504-3.999.242-5.992.139-3.939-.282-7.859-.862-11.772-1.285-5.861-.187-11.824.542-17.691.668ZM281.615 121.621c1.091-3.371 2.74-6.619 5.235-9.167-1.634 3.158-3.199 6.243-5.235 9.167ZM268.942 102.491c2.01.886 3.979 2.147 6.029 2.81 2.168.595 4.321 1.245 6.414 2.121-2.249-.294-4.439-.812-6.612-1.386-2.232-.75-4.038-2.098-5.831-3.545Z"/>
  <path fill="#FFC727" d="M232.462 279.987c6.291 7.378 16.569 7.879 25.505 9.173 27.149 4.027 60.853 3.755 79.212 28.037l-.487.551c-16.201-9.651-34.13-13.46-51.926-19.075-8.995-2.451-18.212-3.988-27.519-5.866-8.974-2.233-19.704-3.875-25.348-12.364l.563-.456Z"/>
  <path fill="#fff" d="M232.462 279.987c6.291 7.378 16.569 7.879 25.505 9.173 27.149 4.027 60.853 3.755 79.212 28.037l-.487.551c-16.201-9.651-34.13-13.46-51.926-19.075-8.995-2.451-18.212-3.988-27.519-5.866-8.974-2.233-19.704-3.875-25.348-12.364l.563-.456Z" opacity=".8"/>
  <path fill="#FFC727" d="M220.352 273.501c-2.404 4.884 4.337 6.792 7.646 8.189 3.311 1.397 5.106 5.201 7.856 3.825 2.749-1.376 2.355-7.042-3.905-11.166-6.258-4.125-10.369-3.344-11.597-.848Z"/>
  <path fill="#fff" d="M227.569 279.26c-.498.912-2.397.836-4.241-.171-1.843-1.007-2.934-2.564-2.436-3.476.499-.912 2.397-.836 4.241.171 1.844 1.008 2.935 2.564 2.436 3.476Z" opacity=".4"/>
  <path fill="#FFC727" d="M360.615 303.045c-7.569-6.295-17.73-5.143-26.728-4.992-27.356.366-60.308 6.036-82.921-15.059l.37-.624c17.708 6.957 35.993 7.855 54.49 10.561 9.278.984 18.597 1.029 28.069 1.396 9.214.772 20.035.677 27.183 8.177l-.463.541Z"/>
  <path fill="#fff" d="M360.615 303.045c-7.569-6.295-17.73-5.143-26.728-4.992-27.356.366-60.308 6.036-82.921-15.059l.37-.624c17.708 6.957 35.993 7.855 54.49 10.561 9.278.984 18.597 1.029 28.069 1.396 9.214.772 20.035.677 27.183 8.177l-.463.541Z" opacity=".8"/>
  <path fill="#FFC727" d="M370.707 304.192c.733-5.394-6.264-5.068-9.847-5.344-3.583-.276-6.491-3.315-8.663-1.138-2.172 2.176-.002 7.425 7.241 9.353 7.244 1.929 10.895-.114 11.269-2.871Z"/>
  <path fill="#fff" d="M362.038 301.015c.183-1.024 2.009-1.552 4.077-1.182 2.068.371 3.595 1.502 3.411 2.525-.183 1.024-2.009 1.553-4.077 1.182-2.067-.371-3.594-1.501-3.411-2.525Z" opacity=".4"/>
  <path fill="#FFC727" d="M375.988 275.913c-6.519-7.377-16.737-7.791-25.651-9.014-27.091-3.817-60.524-3.244-79.649-27.545l.461-.56c16.439 9.579 34.372 13.259 52.239 18.758 9.019 2.389 18.222 3.857 27.527 5.665 8.987 2.17 19.696 3.729 25.615 12.233l-.542.463Z"/>
  <path fill="#fff" d="M375.988 275.913c-6.519-7.377-16.737-7.791-25.651-9.014-27.091-3.817-60.524-3.244-79.649-27.545l.461-.56c16.439 9.579 34.372 13.259 52.239 18.758 9.019 2.389 18.222 3.857 27.527 5.665 8.987 2.17 19.696 3.729 25.615 12.233l-.542.463Z" opacity=".8"/>
  <path fill="#FFC727" d="M385.787 278.587c1.547-5.218-5.418-5.966-8.916-6.786-3.498-.819-5.908-4.267-8.387-2.448-2.479 1.819-1.136 7.338 5.729 10.349 6.862 3.014 10.783 1.552 11.574-1.115Z"/>
  <path fill="#fff" d="M377.703 274.124c.338-.984 2.222-1.227 4.21-.545 1.987.682 3.324 2.032 2.986 3.016-.338.984-2.222 1.227-4.21.546-1.987-.683-3.323-2.034-2.986-3.017Z" opacity=".4"/>
  <path fill="#FFC727" d="M315.432 201.886c-13.288 17.673-27.178 34.96-45.96 45.66-12.488 4.534-27.491 2.589-41.195 3.898l-.356-.647c3.644-2.364 7.971-3.594 12.289-4.609 8.34-2.025 17.626-2.993 25.873-5.092 11.805-4.311 21.193-13.547 30.623-21.682 6.342-5.676 12.576-11.534 18.235-18.073l.491.545Z"/>
  <path fill="#fff" d="M315.432 201.886c-13.288 17.673-27.178 34.96-45.96 45.66-12.488 4.534-27.491 2.589-41.195 3.898l-.356-.647c3.644-2.364 7.971-3.594 12.289-4.609 8.34-2.025 17.626-2.993 25.873-5.092 11.805-4.311 21.193-13.547 30.623-21.682 6.342-5.676 12.576-11.534 18.235-18.073l.491.545Z" opacity=".7"/>
  <path fill="#FFC727" d="M320.118 191.957c-4.846-2.478-6.857 4.232-8.304 7.521-1.447 3.289-5.277 5.026-3.944 7.796 1.334 2.77 7.006 2.462 11.225-3.733 4.219-6.197 3.501-10.318 1.023-11.584Z"/>
  <path fill="#fff" d="M314.249 199.085c-.904-.511-.799-2.41.236-4.238 1.034-1.827 2.608-2.894 3.512-2.382.904.511.799 2.41-.236 4.237-1.034 1.829-2.606 2.895-3.512 2.383Z" opacity=".4"/>
  <path fill="#FFC727" d="M295.512 273.298c-7.142 3.131-15.844 11.737-22.095 16.807-11.894 9.745-24.886 20.021-40.097 22.6-12.515 1.318-25.502.95-37.519-3.569l.118-.734c11.269-.816 22.34-2.075 33.452-3.073 6.4-.334 12.701-1.403 18.75-4.239 11.811-5.125 23.881-14.598 34.86-22.016 3.894-2.549 7.856-5.212 12.355-6.496l.176.72Z"/>
  <path fill="#fff" d="M295.512 273.298c-7.142 3.131-15.844 11.737-22.095 16.807-11.894 9.745-24.886 20.021-40.097 22.6-12.515 1.318-25.502.95-37.519-3.569l.118-.734c11.269-.816 22.34-2.075 33.452-3.073 6.4-.334 12.701-1.403 18.75-4.239 11.811-5.125 23.881-14.598 34.86-22.016 3.894-2.549 7.856-5.212 12.355-6.496l.176.72Z" opacity=".7"/>
  <path fill="#FFC727" d="M182.157 314.31c1.923 5.093 7.922 1.477 11.204.015 3.282-1.461 7.286-.173 8.161-3.12s-3.531-6.531-10.819-4.782c-7.289 1.75-9.528 5.285-8.546 7.887Z"/>
  <path fill="#fff" d="M191.294 312.979c.326.987-1.028 2.321-3.023 2.979-1.995.657-3.876.391-4.202-.598-.326-.988 1.028-2.32 3.024-2.979 1.994-.657 3.875-.389 4.201.598Z" opacity=".4"/>
  <path fill="#FFC727" d="M213.263 315.076c30.244-5.783 60.866-10.888 91.687-7.752 18.336 4.131 34.189 14.95 51.249 22.388l-.126.733c-6.219-.381-12.289-2.082-18.167-3.949-11.409-3.552-23.036-8.529-34.398-11.966-17.355-3.885-36.007-2.374-53.787-1.761-12.13.576-24.286 1.36-36.341 3.041l-.117-.734Z"/>
  <path fill="#fff" d="M213.263 315.076c30.244-5.783 60.866-10.888 91.687-7.752 18.336 4.131 34.189 14.95 51.249 22.388l-.126.733c-6.219-.381-12.289-2.082-18.167-3.949-11.409-3.552-23.036-8.529-34.398-11.966-17.355-3.885-36.007-2.374-53.787-1.761-12.13.576-24.286 1.36-36.341 3.041l-.117-.734Z" opacity=".7"/>
  <path fill="#FFC727" d="M202.354 318.517c1.922 5.093 7.921 1.477 11.204.015 3.282-1.461 7.285-.173 8.16-3.12s-3.531-6.531-10.819-4.782c-7.289 1.75-9.527 5.285-8.545 7.887Z"/>
  <path fill="#fff" d="M211.49 317.186c.326.987-1.028 2.321-3.023 2.979-1.995.658-3.876.39-4.202-.598-.326-.988 1.028-2.321 3.023-2.979 1.995-.657 3.877-.39 4.202.598Z" opacity=".4"/>
  <path fill="#FFC727" d="M349.553 262.929c-19.922 3.607-40.209 7.066-59.568 13.125-3.929 1.497-9.032 2.889-11.876 6.05 1.733 1.709 4.73 3.172 7.711 4.174 9.204 3.309 19.409 5.104 29.202 8.822l-.104.737c-10.297.326-20.478.232-30.942-2.39-4.312-1.363-9.315-2.756-11.888-7.975-2.281-4.732 1.075-9.641 4.958-11.211 13.357-5.901 27.948-7.175 41.95-9.286 10.156-1.174 20.318-2.05 30.481-2.787l.076.741Z"/>
  <path fill="#fff" d="M349.553 262.929c-19.922 3.607-40.209 7.066-59.568 13.125-3.929 1.497-9.032 2.889-11.876 6.05 1.733 1.709 4.73 3.172 7.711 4.174 9.204 3.309 19.409 5.104 29.202 8.822l-.104.737c-10.297.326-20.478.232-30.942-2.39-4.312-1.363-9.315-2.756-11.888-7.975-2.281-4.732 1.075-9.641 4.958-11.211 13.357-5.901 27.948-7.175 41.95-9.286 10.156-1.174 20.318-2.05 30.481-2.787l.076.741Z" opacity=".7"/>
  <path fill="#FFC727" d="M354.121 257.312c-2.67-4.742-8.054-.26-11.077 1.683-3.023 1.942-7.176 1.274-7.594 4.32-.419 3.047 4.479 5.921 11.418 3.088 6.941-2.834 8.619-6.667 7.253-9.091Z"/>
  <path fill="#fff" d="M345.291 260.012c-.471-.927.665-2.451 2.538-3.403 1.873-.952 3.773-.973 4.244-.045.471.927-.665 2.45-2.538 3.402-1.872.952-3.772.974-4.244.046Z" opacity=".4"/>
  <path fill="#FFC727" d="M247.53 253.744c11.752 3.561 17.628 17.651 27.062 24.256 4.814 2.507 11.319 2.629 16.846 3.095 15.138 1.063 30.407-.436 45.561 1.267 9.33 1.313 17.563 7.747 25.03 12.965 4.945 3.397 9.556 7.471 15.213 9.371l-.08.74c-12.355-.521-22.595-9.145-33.625-13.219-10.88-4.097-22.959-3.507-34.517-4.754-12.213-1.354-25.046-.506-36.303-6.282-5.267-4.207-8.367-9.769-12.119-14.729-3.63-4.974-7.736-9.741-13.306-12.004l.238-.706Z"/>
  <path fill="#fff" d="M247.53 253.744c11.752 3.561 17.628 17.651 27.062 24.256 4.814 2.507 11.319 2.629 16.846 3.095 15.138 1.063 30.407-.436 45.561 1.267 9.33 1.313 17.563 7.747 25.03 12.965 4.945 3.397 9.556 7.471 15.213 9.371l-.08.74c-12.355-.521-22.595-9.145-33.625-13.219-10.88-4.097-22.959-3.507-34.517-4.754-12.213-1.354-25.046-.506-36.303-6.282-5.267-4.207-8.367-9.769-12.119-14.729-3.63-4.974-7.736-9.741-13.306-12.004l.238-.706Z" opacity=".8"/>
  <path fill="#FFC727" d="M238.031 250.292c-1.622 5.195 5.332 6.042 8.817 6.911 3.487.87 5.847 4.35 8.351 2.568 2.505-1.784 1.24-7.321-5.579-10.43-6.82-3.11-10.761-1.705-11.589.951Z"/>
  <path fill="#fff" d="M246.05 254.869c-.352.978-2.239 1.195-4.216.485-1.977-.711-3.294-2.08-2.942-3.059.352-.978 2.24-1.196 4.216-.485 1.977.711 3.293 2.08 2.942 3.059Z" opacity=".4"/>
  <path fill="#FFC727" d="M258.562 273.599c5.149 10.869 12.3 21.168 20.137 29.849 3.994 4.176 8.303 8.379 13.29 9.017 19.692 3.029 40.447-5.553 60.097 1.925 8.266 3.915 15.111 10.625 20.565 18.259l-.469.535c-9.601-6.734-19.326-13.707-29.757-13.841-10.851-.465-22.315-.404-33.781-.553-7.143-.308-15.105.097-22.023-3.267-9.097-5.621-15.064-15.582-20.609-24.916-2.993-5.432-5.988-10.768-8.101-16.814l.651-.194Z"/>
  <path fill="#fff" d="M258.562 273.599c5.149 10.869 12.3 21.168 20.137 29.849 3.994 4.176 8.303 8.379 13.29 9.017 19.692 3.029 40.447-5.553 60.097 1.925 8.266 3.915 15.111 10.625 20.565 18.259l-.469.535c-9.601-6.734-19.326-13.707-29.757-13.841-10.851-.465-22.315-.404-33.781-.553-7.143-.308-15.105.097-22.023-3.267-9.097-5.621-15.064-15.582-20.609-24.916-2.993-5.432-5.988-10.768-8.101-16.814l.651-.194Z" opacity=".8"/>
  <path fill="#FFC727" d="M248.828 266.983c-3.228 4.382 3.068 7.451 6.079 9.41 3.013 1.96 4.108 6.02 7.057 5.152 2.949-.868 3.561-6.515-1.871-11.68-5.431-5.165-9.615-5.122-11.265-2.882Z"/>
  <path fill="#fff" d="M254.915 273.926c-.652.81-2.507.399-4.145-.918-1.636-1.317-2.436-3.041-1.784-3.852.652-.81 2.507-.399 4.145.918 1.636 1.317 2.435 3.042 1.784 3.852Z" opacity=".4"/>
  <path fill="#FFC727" d="M319.99 340.504c-8.275-3.599-11.596-17.677-17.991-24.305-3.319-2.521-8.022-2.669-11.994-3.156-10.891-1.121-22.048.311-32.91-1.448-6.669-1.347-12.205-7.8-17.266-13.035-3.356-3.41-6.426-7.491-10.396-9.41l.107-.737c8.912.57 15.756 9.213 23.473 13.322 7.608 4.131 16.394 3.592 24.682 4.881 8.754 1.401 18.103.606 25.873 6.414 3.536 4.217 5.412 9.778 7.8 14.742 2.3 4.976 4.957 9.747 8.841 12.028l-.219.704Z"/>
  <path fill="#fff" d="M319.99 340.504c-8.275-3.599-11.596-17.677-17.991-24.305-3.319-2.521-8.022-2.669-11.994-3.156-10.891-1.121-22.048.311-32.91-1.448-6.669-1.347-12.205-7.8-17.266-13.035-3.356-3.41-6.426-7.491-10.396-9.41l.107-.737c8.912.57 15.756 9.213 23.473 13.322 7.608 4.131 16.394 3.592 24.682 4.881 8.754 1.401 18.103.606 25.873 6.414 3.536 4.217 5.412 9.778 7.8 14.742 2.3 4.976 4.957 9.747 8.841 12.028l-.219.704Z" opacity=".8"/>
  <path fill="#FFC727" d="M332.414 344.375c1.593-5.205-5.365-6.013-8.856-6.864-3.491-.85-5.87-4.319-8.365-2.521-2.495 1.797-1.2 7.326 5.636 10.4 6.837 3.072 10.769 1.644 11.585-1.015Z"/>
  <path fill="#fff" d="M324.37 339.841c.347-.981 2.233-1.208 4.214-.508 1.981.701 3.306 2.063 2.96 3.043-.347.981-2.233 1.208-4.214.508-1.981-.701-3.307-2.063-2.96-3.043Z" opacity=".4"/>
  <path fill="#FFC727" d="M340.794 290.848c-18.671 11.482-37.773 22.384-59.166 25.379-13.322-.402-26.738-7.736-40.073-11.574l-.108-.731c4.252-.847 8.748-.393 13.161.258 8.546 1.198 17.61 3.725 26.094 4.818 12.602.356 24.655-4.742 36.361-8.807 7.946-2.923 15.854-6.055 23.461-10.03l.27.687Z"/>
  <path fill="#fff" d="M340.794 290.848c-18.671 11.482-37.773 22.384-59.166 25.379-13.322-.402-26.738-7.736-40.073-11.574l-.108-.731c4.252-.847 8.748-.393 13.161.258 8.546 1.198 17.61 3.725 26.094 4.818 12.602.356 24.655-4.742 36.361-8.807 7.946-2.923 15.854-6.055 23.461-10.03l.27.687Z" opacity=".7"/>
  <path fill="#FFC727" d="M351.86 284.638c-3.121-4.46-8.042.527-10.86 2.756-2.819 2.228-7.017 1.969-7.136 5.042-.118 3.073 5.036 5.455 11.666 1.957 6.629-3.498 7.925-7.476 6.33-9.755Z"/>
  <path fill="#fff" d="M343.336 288.187c-.559-.877.422-2.503 2.193-3.634 1.77-1.131 3.66-1.337 4.22-.46.559.877-.422 2.504-2.193 3.634-1.772 1.131-3.661 1.337-4.22.46Z" opacity=".4"/>
  <path fill="#FFC727" d="M319.551 290.991c-9.665-1.872-18.016 4.029-25.828 8.496-23.799 13.493-49.95 34.331-79.925 26.732l.024-.725c18.87-2.431 35.327-10.448 52.841-16.985 8.605-3.604 16.794-8.053 25.273-12.292 8.446-3.76 17.885-9.054 27.76-5.923l-.145.697Z"/>
  <path fill="#fff" d="M319.551 290.991c-9.665-1.872-18.016 4.029-25.828 8.496-23.799 13.493-49.95 34.331-79.925 26.732l.024-.725c18.87-2.431 35.327-10.448 52.841-16.985 8.605-3.604 16.794-8.053 25.273-12.292 8.446-3.76 17.885-9.054 27.76-5.923l-.145.697Z" opacity=".8"/>
  <path fill="#FFC727" d="M328.947 287.136c-1.955-5.08-7.931-1.425-11.204.058-3.272 1.483-7.284.22-8.14 3.173-.855 2.954 3.574 6.509 10.85 4.711 7.277-1.797 9.494-5.346 8.494-7.942Z"/>
  <path fill="#fff" d="M319.819 288.527c-.332-.985 1.013-2.327 3.004-2.998 1.991-.671 3.874-.416 4.206.57.332.985-1.013 2.327-3.004 2.998-1.991.671-3.874.415-4.206-.57Z" opacity=".4"/>
  <path fill="#FF725E" d="M329.756 97.234c20.658 22.372 19.298 57.298-3.074 77.956-22.403 20.687-57.327 19.267-77.985-3.105l81.059-74.851Z"/>
  <path fill="#fff" d="M324.468 102.116c6.024 6.524 7.893 14.382 9.643 22.482 1.676 7.75 3.413 15.713 1.234 23.33-2.334 8.159-5.464 17.33-12.151 23.505-6.515 6.016-16.579 7.92-24.658 9.673-9.411 2.043-18.799 3.046-27.773-.585-6.359-2.573-11.82-7.948-16.779-13.318l70.484-65.087Z" opacity=".2"/>
  <path fill="#FF725E" d="M318.894 107.38c5.585 6.049 4.648 13.337 5.872 20.903 1.572 9.729 3.017 16.906-2.482 25.404-1.797 2.78-6.886 5.14-9.43 7.49-5.417 5.002-8.213 7.759-14.925 9.258-8.059 1.8-13.727.967-21.407-2.187-5.276-2.167-12.817-1.637-16.938-6.099l59.31-54.769Z"/>
  <g fill="#fff" opacity=".4">
    <path d="M277.904 145.114s-4.968 9.289-2.044 11.669c2.923 2.38 7.554-.202 11.581-.294 4.029-.091 4.532 6.217 9.081 5.644 4.55-.573 4.828-9.296 6.982-12.011 2.156-2.716 9.934-.841 12.789-5.346 2.855-4.504-3.654-8.41-4.438-10.831-.784-2.42 4.92-6.72 2.087-11.36-2.833-4.641-12.408.708-12.408.708l-23.63 21.821ZM273.01 153.562s.362.743-1.346 3.89c-.416.796-.732 1.663-1.179 2.367a6.783 6.783 0 0 1-1.695 1.579c-1.16.802-2.337 1.044-2.337 1.044l-.294-.215s-.132-1.194.276-2.543a6.77 6.77 0 0 1 .984-2.098c.532-.642 1.26-1.209 1.89-1.849 2.472-2.593 3.407-2.389 3.407-2.389l.294.214ZM285.285 160.283s.59.579.034 4.116c-.126.889-.132 1.812-.319 2.625a6.753 6.753 0 0 1-1.068 2.056c-.824 1.145-1.852 1.766-1.852 1.766l-.349-.103s-.523-1.081-.592-2.49a6.72 6.72 0 0 1 .225-2.306c.287-.783.783-1.562 1.163-2.374 1.46-3.271 2.41-3.392 2.41-3.392l.348.102Z"/>
    <path d="M290.035 160.916s.769.301 1.643 3.774c.234.867.589 1.72.735 2.54a6.74 6.74 0 0 1-.177 2.309c-.31 1.376-1.013 2.35-1.013 2.35l-.362.042s-.906-.79-1.52-2.059a6.725 6.725 0 0 1-.697-2.209c-.043-.833.109-1.744.139-2.64.063-3.582.889-4.066.889-4.066l.363-.041ZM306.111 152.313s.823-.066 3.127 2.678c.587.677 1.28 1.29 1.77 1.963.441.706.701 1.462.85 2.155.323 1.373.117 2.556.117 2.556l-.307.195s-1.159-.315-2.267-1.188a6.755 6.755 0 0 1-1.592-1.682c-.403-.73-.664-1.616-1.029-2.436-1.508-3.249-.976-4.046-.976-4.046l.307-.195ZM314.318 131.785s.57-.598 4.116-.091c.89.112 1.814.107 2.629.282a6.782 6.782 0 0 1 2.071 1.038c1.156.809 1.791 1.827 1.791 1.827l-.098.351s-1.073.539-2.481.626a6.757 6.757 0 0 1-2.308-.191c-.787-.275-1.572-.761-2.391-1.129-3.291-1.414-3.427-2.362-3.427-2.362l.098-.351ZM310.382 118.448s-.127-.817 2.435-3.32c.632-.637 1.191-1.373 1.826-1.912.671-.493 1.406-.807 2.085-1.009 1.346-.424 2.54-.306 2.54-.306l.219.292s-.228 1.18-1.015 2.349a6.765 6.765 0 0 1-1.559 1.714c-.698.456-1.562.783-2.353 1.207-3.126 1.747-3.96 1.277-3.96 1.277l-.218-.292Z"/>
  </g>
  <path fill="#FF725E" d="M149.348 251.764c6.077 29.839-13.185 59.006-43.024 65.082-29.88 6.086-59.014-13.227-65.09-43.065l108.114-22.017Z"/>
  <path fill="#fff" d="M142.296 253.2c1.772 8.702-.703 16.391-3.402 24.225-2.584 7.497-5.224 15.207-11.033 20.593-6.224 5.77-13.654 11.992-22.573 13.807-8.69 1.77-18.283-1.817-26.102-4.504-9.107-3.129-17.657-7.136-23.45-14.891-4.107-5.495-5.991-12.922-7.45-20.084l94.01-19.146Z" opacity=".2"/>
  <path fill="#FF725E" d="M134.801 254.815c1.642 8.067-2.935 13.815-5.809 20.92-3.697 9.136-6.179 16.022-15.286 20.441-2.978 1.446-8.553.829-11.946 1.52-7.226 1.471-11.047 2.38-17.564.185-7.825-2.637-12.24-6.286-17.175-12.962-3.39-4.587-10.114-8.042-11.326-13.995l79.106-16.109Z"/>
  <g fill="#fff" opacity=".4">
    <path d="M80.19 265.848s-9.062 5.37-7.795 8.921c1.267 3.551 6.566 3.741 10.057 5.751 3.493 2.008.654 7.665 4.843 9.532 4.188 1.868 8.945-5.448 12.195-6.655 3.251-1.206 8.931 4.428 13.708 2.055 4.775-2.373 1.233-9.086 1.817-11.563.583-2.476 7.69-3.198 7.672-8.635-.019-5.437-10.98-5.823-10.98-5.823l-31.517 6.417ZM71.627 270.536s-.075.822-3.167 2.63c-.767.465-1.488 1.043-2.235 1.413a6.73 6.73 0 0 1-2.268.473c-1.408.085-2.539-.317-2.539-.317l-.14-.336s.506-1.089 1.554-2.032a6.718 6.718 0 0 1 1.928-1.285c.788-.273 1.706-.381 2.575-.602 3.458-.936 4.152-.278 4.152-.278l.14.334ZM78.644 282.645s.205.801-2.104 3.539c-.568.695-1.053 1.482-1.634 2.079a6.73 6.73 0 0 1-1.978 1.205c-1.299.552-2.5.55-2.5.55l-.245-.269s.113-1.195.785-2.436a6.74 6.74 0 0 1 1.386-1.855c.651-.521 1.48-.931 2.226-1.429 2.944-2.04 3.819-1.653 3.819-1.653l.245.269Z"/>
    <path d="M82.379 285.648s.502.656-.55 4.08c-.25.862-.388 1.775-.687 2.553a6.778 6.778 0 0 1-1.348 1.884c-.979 1.016-2.084 1.485-2.084 1.485l-.331-.152s-.365-1.145-.232-2.549a6.728 6.728 0 0 1 .548-2.25c.395-.735.997-1.435 1.488-2.186 1.91-3.031 2.867-3.016 2.867-3.016l.329.151ZM100.584 286.621s.738.371 1.288 3.911c.152.884.427 1.766.496 2.596a6.748 6.748 0 0 1-.389 2.284c-.436 1.341-1.226 2.246-1.226 2.246l-.364.008s-.828-.87-1.323-2.19a6.748 6.748 0 0 1-.49-2.264c.035-.833.27-1.727.383-2.617.393-3.56 1.26-3.965 1.26-3.965l.365-.009ZM118.242 273.317s.798-.216 3.568 2.054c.702.558 1.496 1.032 2.103 1.603a6.751 6.751 0 0 1 1.233 1.962c.57 1.29.586 2.491.586 2.491l-.267.25s-1.197-.095-2.446-.75c-.634-.319-1.302-.758-1.875-1.36-.531-.644-.952-1.466-1.461-2.205-2.082-2.915-1.706-3.796-1.706-3.796l.265-.249ZM121.787 259.87s.314-.764 3.803-1.577c.871-.218 1.729-.558 2.553-.691a6.73 6.73 0 0 1 2.306.219 7.07 7.07 0 0 1 2.332 1.054l.036.362s-.805.891-2.086 1.483a6.791 6.791 0 0 1-2.221.658c-.833.028-1.741-.14-2.638-.186-3.579-.127-4.049-.961-4.049-.961l-.036-.361Z"/>
  </g>
  <path fill="#FF725E" d="M185.47 200.51c-25.985 15.875-59.968 7.699-75.843-18.286-15.898-26.022-7.664-59.991 18.321-75.866l57.522 94.152Z"/>
  <path fill="#fff" d="M181.719 194.37c-7.578 4.63-15.649 4.922-23.936 5.051-7.928.124-16.077.269-23.118-3.36-7.544-3.887-15.925-8.754-20.67-16.521-4.623-7.567-4.518-17.81-4.654-26.075-.16-9.628.696-19.032 6.014-27.12 3.768-5.732 10.109-10.034 16.346-13.844l50.018 81.869Z" opacity=".2"/>
  <path fill="#FF725E" d="M177.648 187.872c-7.026 4.292-13.988 1.946-21.648 1.663-9.848-.364-17.17-.353-24.425-7.41-2.373-2.308-3.692-7.76-5.497-10.714-3.843-6.292-5.999-9.575-6.155-16.45-.188-8.255 1.741-13.65 6.338-20.563 3.158-4.75 4.115-12.249 9.3-15.416l42.087 68.89Z"/>
  <g fill="#fff" opacity=".4">
    <path d="M148.675 140.284s-8.136-6.691-11.042-4.291c-2.906 2.401-1.281 7.447-1.981 11.415-.699 3.968-6.984 3.225-7.314 7.799-.329 4.574 8.17 6.556 10.411 9.201 2.241 2.645-1.121 9.905 2.737 13.587 3.858 3.682 8.964-1.936 11.491-2.231 2.527-.295 5.627 6.142 10.731 4.272 5.106-1.869 1.736-12.305 1.736-12.305l-16.769-27.447ZM141.351 133.829s-.8.21-3.551-2.082c-.699-.564-1.488-1.044-2.09-1.621a6.712 6.712 0 0 1-1.217-1.971c-.56-1.295-.566-2.496-.566-2.496l.268-.246s1.197.104 2.441.769a6.746 6.746 0 0 1 1.864 1.374c.526.648.939 1.474 1.444 2.216 2.058 2.931 1.676 3.81 1.676 3.81l-.269.247ZM132.356 144.55s-.683.466-4.044-.773c-.847-.297-1.751-.485-2.511-.827-.734-.394-1.333-.923-1.807-1.45a7.078 7.078 0 0 1-1.368-2.163l.169-.322s1.163-.301 2.558-.092a6.73 6.73 0 0 1 2.216.671c.712.435 1.378 1.075 2.102 1.605 2.921 2.073 2.855 3.028 2.855 3.028l-.17.323Z"/>
    <path d="M130.806 149.085s-.445.696-4.024.872c-.895.059-1.801.241-2.634.224a6.777 6.777 0 0 1-2.231-.626c-1.289-.573-2.106-1.453-2.106-1.453l.031-.364s.951-.733 2.316-1.087a6.785 6.785 0 0 1 2.303-.251c.825.122 1.689.449 2.563.654 3.499.764 3.812 1.668 3.812 1.668l-.03.363ZM136.09 166.534s-.097.821-3.238 2.543c-.779.444-1.515 1.002-2.272 1.352a6.79 6.79 0 0 1-2.28.412c-1.409.047-2.53-.387-2.53-.387l-.131-.339s.536-1.075 1.61-1.99a6.769 6.769 0 0 1 1.962-1.232c.795-.251 1.715-.334 2.591-.531 3.481-.843 4.157-.166 4.157-.166l.131.338ZM154.613 178.605s.475.676-.716 4.053c-.284.851-.46 1.758-.791 2.523a6.766 6.766 0 0 1-1.425 1.827 7.09 7.09 0 0 1-2.142 1.4l-.325-.166s-.318-1.158-.128-2.555a6.796 6.796 0 0 1 .639-2.227c.425-.718 1.055-1.393 1.576-2.124 2.031-2.949 2.987-2.897 2.987-2.897l.325.166ZM168.464 177.357s.825.035 2.778 3.038c.5.745 1.113 1.437 1.517 2.165.352.755.517 1.536.581 2.243a7.085 7.085 0 0 1-.197 2.551l-.329.156s-1.113-.453-2.104-1.455a6.752 6.752 0 0 1-1.375-1.865c-.311-.774-.462-1.684-.724-2.543-1.101-3.408-.475-4.134-.475-4.134l.328-.156Z"/>
  </g>
  <path fill="#EB9481" d="M87.747 248.167c-1.18-4.451 4.392-9.489 31.469-25.08 27.076-15.592 31.703-14.177 38.922-14.241 7.219-.064 31.017-.897 56.033 23.353 25.016 24.249 36.19 50.915 45.962 61.394 15.195 16.294 32.042 25.879 29.257 33.719-2.785 7.839-30.012 19.04-36.181 21.824-6.169 2.784-19.686 14.543-24.72 12.549-5.034-1.992-51.898-33.699-73.445-51.051-21.548-17.351-63.743-49.058-67.297-62.467Z"/>
  <path fill="#000" d="M238.685 358.281c-4.143 2.503-7.987 4.28-10.198 3.405-5.031-1.992-51.897-33.697-73.445-51.053-21.545-17.351-63.74-49.058-67.296-62.466 2.163-10.689 22.127-1.733 37.569 2.274 15.446 4.009 33.394 4.693 47.918 15.748 14.52 11.053 35.66 46.506 47.547 60.452 10.321 12.108 22.378 24.01 17.905 31.64Z" opacity=".1"/>
  <g fill="#fff" opacity=".4">
    <path d="M202.95 222.824c.774.55 1.554 1.121 2.335 1.715-1.665-.425-3.485-.682-5.69-.966-4.281-.595-10.406-.977-14.756-1.397a772.29 772.29 0 0 1-14.814-1.356c-4.958-.564-9.908-1.106-14.773-2.329-1.672-.465-3.493-.941-4.908-2.064-2.702-2.21-2.466-4.763-.921-7.089.368-.072.722-.129 1.063-.18a10.195 10.195 0 0 0-.945 1.681c-1.032 2.329.445 4.414 2.585 5.353 3.363 1.372 7.09 1.738 10.694 2.249 12.242 1.484 24.72 1.842 36.967 3.808 1.064.183 2.116.361 3.163.575ZM289.59 326.595c-5.927-7.553-12.401-14.688-19.347-21.233-2.258-2.08-4.567-4.102-6.985-5.999-1.396-1.133-3.048-2.282-4.417-3.452-3.863-3.29-6.835-7.506-9.393-11.835-3.821-6.444-6.543-13.365-10.154-19.865-1.902-3.26-3.813-6.518-5.791-9.737a214.014 214.014 0 0 1 3.628 5.043 296.137 296.137 0 0 1 6.1 9.104c2.572 4.867 4.9 9.876 7.749 14.54 2.526 4.143 5.396 8.127 9.136 11.236.967.813 1.944 1.486 2.916 2.227.021.014.04.032.061.047 5.455 5.502 10.948 10.192 15.514 14.297l.003.002a170.223 170.223 0 0 1 10.853 12.927c.016.064.034.126.048.188l.047.194a6.254 6.254 0 0 1 .13.97v.021c.006.104.011.207.009.31 0 .015 0 .034-.002.05a4.583 4.583 0 0 1-.011.264 4.019 4.019 0 0 1-.037.368c-.013.105-.032.207-.05.309-.002.008-.007.017-.007.024ZM191.597 216.051a687.03 687.03 0 0 1-10.981-1.032c-4.956-.566-9.908-1.105-14.773-2.328-1.672-.465-3.491-.945-4.906-2.067-.705-.578-1.212-1.175-1.543-1.789.388-.004.801-.004 1.244-.003.522.655 1.252 1.192 2.083 1.556 3.363 1.377 7.088 1.74 10.691 2.252 4.468.541 8.967.933 13.472 1.307a71.454 71.454 0 0 1 4.713 2.104Z"/>
    <path d="M283.672 333.464c-.366.267-.743.532-1.133.801a132.739 132.739 0 0 1-3.541-4.308c-6.873-8.654-12.463-18.304-19.919-26.443a50.177 50.177 0 0 0-6.731-6.055c-2.516-1.967-4.566-4.512-6.262-7.153-4.005-6.31-6.46-13.458-9.112-20.341-1.72-4.595-3.666-9.01-6.747-12.877-4.445-5.847-9.569-11.213-15.078-16.082-3.693-3.217-7.582-6.259-11.829-8.704-2.116-1.204-4.324-2.282-6.625-2.942-4.695-1.224-9.652-1.554-14.492-2.029-9.644-.852-19.845-1.549-29.415-2.906-2.448-.361-4.893-.784-7.318-1.417-2.479-.644-5.231-1.579-6.428-4.063-1.233-2.724.543-5.22 2.595-7.244.465-.182.913-.352 1.344-.511-1.219 1.242-2.328 2.563-3.05 4.141-1.062 2.305.331 4.387 2.452 5.367 1.05.476 2.217.805 3.391 1.078 12.035 2.384 24.37 2.499 36.589 3.968 4.931.606 9.851 1.15 14.647 2.576 2.412.791 4.619 1.98 6.727 3.282 6.283 3.956 11.893 8.857 17.225 13.993 4.395 4.323 8.708 8.809 12.302 13.857 2.15 3.055 3.654 6.547 5.093 9.959 3.977 9.25 7.51 20.921 15.934 27.028 3.278 2.432 6.131 5.39 8.751 8.502 6.301 7.657 11.296 16.165 17.196 24.071a167.808 167.808 0 0 0 3.434 4.452Z"/>
    <path d="M279.498 336.236c-.35.214-.707.43-1.071.644a164.23 164.23 0 0 0-4.519-5.995 127.458 127.458 0 0 0-15.091-16.028c-4.533-4.05-9.464-7.873-14.348-11.512l-1.479-1.113c-2.56-1.934-4.651-4.461-6.367-7.098-5.449-8.38-7.863-18.185-12.033-27.125-1.05-2.203-2.398-4.219-3.86-6.172-2.95-3.915-6.226-7.606-9.701-11.09-6.502-6.383-15.092-13.991-23.836-16.791-4.691-1.252-9.666-1.581-14.512-2.059-9.706-.859-19.842-1.547-29.475-2.908-3.066-.459-6.172-.977-9.149-1.954-1.217-.407-2.504-.959-3.428-1.886-3.301-3.117-1.039-6.554 1.641-9.177.577-.29 1.137-.568 1.683-.832-3.348 3.328-6.508 7.33-1.18 10.127 3.338 1.391 7.046 1.754 10.63 2.264 12.189 1.485 24.606 1.849 36.801 3.776 2.449.408 4.899.838 7.311 1.616 2.406.814 4.615 2.006 6.723 3.322 6.286 3.98 11.897 8.899 17.234 14.052 5.215 5.246 10.637 10.597 14.241 17.141 4.432 8.587 7.068 18.599 12.464 26.664 1.674 2.494 3.607 4.77 6.001 6.538a250.546 250.546 0 0 1 4.462 3.307c6.945 5.209 13.566 10.907 19.368 17.39 4.207 4.66 8.017 9.665 11.49 14.899Z"/>
    <path d="M270.211 341.323c-.366.184-.736.371-1.104.55-4.373-6.135-9.18-11.976-14.486-17.307-6.024-6.071-12.732-11.42-19.593-16.519-.948-.72-2.103-1.535-2.966-2.314-7.442-6.874-10.55-16.941-14.139-26.062-1.733-4.552-3.526-9.097-6.628-12.899-3.01-3.844-6.417-7.399-9.996-10.731-5.397-4.974-11.201-9.588-17.595-13.207-2.137-1.18-4.346-2.233-6.632-2.989-2.298-.726-4.727-1.113-7.117-1.482-12.164-1.676-24.457-2.499-36.577-4.58-2.433-.421-4.865-.909-7.268-1.603-2.452-.709-5.177-1.679-6.36-4.148-1.011-2.269.055-4.374 1.622-6.181l1.819-1.023c-1.013 1.086-1.915 2.246-2.537 3.595-1.068 2.316.315 4.368 2.426 5.383 1.044.494 2.204.849 3.367 1.148 14.359 3.178 29.239 3.35 43.728 6.098 2.445.467 4.881.947 7.24 1.794 6.952 2.725 12.916 7.315 18.706 11.914 6.607 5.529 13.162 11.309 18.232 18.35 2.089 3.101 3.537 6.59 4.968 10.003 1.887 4.553 3.629 9.134 5.777 13.496 2.389 4.79 5.272 9.559 9.64 12.733 7.497 5.435 14.791 11.221 21.201 17.932 5.321 5.545 10.049 11.63 14.272 18.049Z"/>
    <path d="M261.23 345.583a84.77 84.77 0 0 1-1.127.508 98.76 98.76 0 0 1-4.744-5.251c-6.802-8.582-14.575-16.355-23.225-23.07-2.851-2.281-5.819-4.46-8.74-6.67-8.596-7.046-11.934-19.106-15.946-29.027-.9-2.26-1.83-4.503-2.994-6.603-1.16-2.084-2.641-4.019-4.203-5.875-6.323-7.381-13.873-13.813-22.195-18.853-4.165-2.489-8.63-4.468-13.439-5.225-9.609-1.629-19.386-2.423-29.054-3.78-7.288-1.048-14.671-1.859-21.727-4.158-2.469-.772-5.168-2.6-5.034-5.495.101-1.415.667-2.634 1.43-3.739.57-.341 1.157-.691 1.758-1.044a16.48 16.48 0 0 0-1.126 1.604c-2.373 3.818-.591 6.326 3.376 7.497 2.272.727 4.664 1.187 7.052 1.623 11.997 2.061 24.256 2.986 36.318 4.945 4.836.843 9.831 1.536 14.331 3.617 8.871 4.274 16.651 10.496 23.849 17.14 3.569 3.388 7.082 6.94 9.701 11.144 1.284 2.143 2.315 4.394 3.29 6.647 3.865 8.829 6.673 18.418 13.237 25.651 1.618 1.789 3.612 3.088 5.532 4.525 5.934 4.386 11.676 9.046 16.92 14.261 4.354 4.304 8.324 9.093 12.023 13.966.735.968 1.523 1.892 2.287 2.841a99.333 99.333 0 0 0 2.45 2.821Z"/>
    <path d="M251.496 350.022c-.336.19-.682.392-1.038.611-2.585-2.681-5.029-5.506-7.343-8.395-4.711-5.701-9.931-10.951-15.546-15.757-3.77-3.19-7.657-6.227-11.626-9.175a380.697 380.697 0 0 1-2.247-1.697 24.731 24.731 0 0 1-3.458-3.381c-6.451-7.799-9.195-17.808-12.977-26.956-.938-2.27-1.931-4.532-3.236-6.561-6.261-9.075-18.471-18.341-28.162-23.585-4.332-2.366-8.95-4.1-13.836-4.824-14.569-2.333-29.723-3.492-44.18-6.522-3.073-.745-6.257-1.339-9.01-3.006-1.655-1.164-2.195-2.529-2.034-3.904.386-.27.79-.551 1.208-.833-.468 1.39-.155 2.688 1.473 3.764 2.625 1.464 5.725 1.952 8.652 2.582 14.582 2.727 29.541 3.696 44.129 6.681 2.449.506 4.92 1.12 7.235 2.083 10.695 4.417 28.714 17.549 35.469 26.927 2.834 4.191 4.527 8.923 6.445 13.538 1.863 4.558 3.724 9.139 6.152 13.41 1.806 3.151 3.905 6.126 6.664 8.465.544.466.879.7 1.415 1.097a269.84 269.84 0 0 1 7.451 5.619c6.383 5.004 12.393 10.545 17.678 16.705 2.843 3.238 5.429 6.867 8.164 10.165.839.996 1.69 1.981 2.558 2.949Z"/>
  </g>
  <g fill="#fff" opacity=".2">
    <path d="M164.658 318.091a420.926 420.926 0 0 1-2.571-1.951c-4.876-8.577-9.159-17.524-14.847-25.571-3.22-4.444-6.917-8.772-11.764-11.459-2.916-1.517-6.085-2.648-9.219-3.669-6.331-2.057-12.827-3.708-19.333-5.173-.373-.09-.781-.187-1.217-.288a200.037 200.037 0 0 1-2.202-2.062 256.41 256.41 0 0 1 10.327 2.253c7.627 1.885 15.339 4.066 22.241 7.898 9.453 5.78 16.457 19.907 22.153 29.349 2.108 3.545 4.191 7.165 6.432 10.673Z"/>
    <path d="M237.242 359.128c-.52.296-1.032.578-1.535.837-2.458-1.988-5.277-3.519-8.058-5.05-12.83-6.812-26.385-12.712-37.672-22.075-5.734-4.63-10.166-10.668-13.902-16.964-6.238-10.371-11.28-21.49-18.258-31.37-3.485-4.822-7.486-9.519-12.735-12.444-3.152-1.643-6.599-2.883-9.988-3.993-5.711-1.866-11.556-3.408-17.418-4.793-6.42-1.564-16.642-3.624-23.59-5.076a66.032 66.032 0 0 1-1.05-1.253c9.572 1.583 19.129 3.267 28.563 5.547 8.253 2.046 16.603 4.394 24.077 8.531 10.264 6.256 17.831 21.514 23.992 31.757 6.087 10.27 11.977 21.124 21.448 28.676 9.316 7.495 20.456 12.822 31.007 18.385 2.149 1.125 4.297 2.257 6.415 3.459 3.015 1.727 6.078 3.493 8.704 5.826Z"/>
    <path d="M237.89 348.465c-3.206-1.648-6.454-3.227-9.652-4.899-11.141-5.828-22.512-11.959-31.206-21.25-2.143-2.364-4.036-4.9-5.822-7.521-8.011-12.016-13.623-25.489-21.966-37.288-3.615-4.996-7.758-9.871-13.194-12.903-3.268-1.706-6.838-2.995-10.352-4.146-16.271-5.316-34.408-8.37-51.133-12.048-1.27-.263-4.51-1.011-6.454-1.481.03-.085.067-.166.102-.244 15.701 2.645 31.75 4.973 47.148 8.967 4.224 1.115 8.534 2.421 12.634 3.952 4.107 1.647 8.337 3.314 11.791 6.167 3.94 3.221 7.068 7.249 9.962 11.383 4.123 5.969 8.079 13.011 11.746 19.307 5.052 8.571 9.984 17.397 16.766 24.715 8.667 8.985 19.976 14.809 30.908 20.592 2.235 1.186 4.574 2.377 6.928 3.603a33.169 33.169 0 0 1 1.794 3.094Z"/>
  </g>
  <path fill="#fff" d="M136.429 221.47c-6.637-5.377 29.786-9.95 42.795-6.537 13.009 3.415 37.103 20.78 42.269 29.271 5.166 8.49 8.048 12.085-4.92 4.986-12.967-7.099-34.377-15.81-40.003-16.924-5.628-1.113-36.14-7.554-40.141-10.796Z" opacity=".2"/>
  <path fill="#000" d="M246.086 290.306c-12.459-2.4-17.339 4.12-20.809 6.268-3.47 2.147-14.976 12.688-11.02 12.904 3.956.214 16.97-9.24 23.676-9.13 6.707.11 22.561-2.585 21.201-5.336-1.36-2.75-8.746-3.878-13.048-4.706Z" opacity=".1"/>
  <path fill="#EB9481" d="M229.57 410.119c3.725-1.403 4.778-7.936 3.533-35.19-1.245-27.256-4.375-29.853-7.635-35.053-3.26-5.199-13.561-22.655-42.365-28.32-28.805-5.664-52.996-.198-64.969-1.903-18.615-2.649-33.186-9.87-37.519-3.919-4.333 5.953.122 31.097.955 36.92.833 5.822-1.39 21.435 2.342 24.033 3.73 2.597 47.873 20.136 70.154 26.799 22.279 6.662 64.283 20.858 75.504 16.633Z"/>
  <path fill="#fff" d="M229.57 410.119c3.725-1.403 4.778-7.936 3.533-35.19-1.245-27.256-4.375-29.853-7.635-35.053-3.26-5.199-13.561-22.655-42.365-28.32-28.805-5.664-52.996-.198-64.969-1.903-18.615-2.649-33.186-9.87-37.519-3.919-4.333 5.953.122 31.097.955 36.92.833 5.822-1.39 21.435 2.342 24.033 3.73 2.597 47.873 20.136 70.154 26.799 22.279 6.662 64.283 20.858 75.504 16.633Z" opacity=".2"/>
  <path fill="#000" d="M81.676 357.667c.106 4.23.596 7.878 2.235 9.02 3.728 2.595 47.872 20.136 70.154 26.797 22.28 6.663 64.284 20.86 75.504 16.635 6.656-6.946-8.892-16.715-18.831-25.747-9.94-9.032-18.648-21.535-33.208-26.35-14.557-4.813-49.601-2.046-65.021-3.514-13.386-1.273-27.422-3.896-30.833 3.159Z" opacity=".1"/>
  <g fill="#fff" opacity=".4">
    <path d="M194.947 314.853a73.054 73.054 0 0 0-2.296-.805c1.067.977 2.084 2.151 3.297 3.586 2.387 2.764 5.465 6.956 7.757 9.858a625.629 625.629 0 0 0 7.754 9.92c2.673 3.264 5.328 6.534 8.43 9.399 1.099.962 2.274 2.025 3.725 2.472 2.819.817 4.536-.641 5.492-2.92a17.14 17.14 0 0 0-.357-.852 9.685 9.685 0 0 1-.769 1.525c-1.194 1.914-3.362 1.909-5.014.852-2.521-1.714-4.49-4.198-6.505-6.52-6.668-8.015-12.637-16.766-19.652-24.54-.619-.669-1.229-1.333-1.862-1.975ZM81.035 305.228c8.117.429 16.186 1.461 24.049 3.129 2.522.566 5.027 1.199 7.49 1.972 1.45.427 3.029 1.029 4.493 1.419 4.122 1.104 8.5 1.104 12.768.748 6.36-.519 12.557-2.065 18.861-2.762 3.204-.284 6.409-.562 9.618-.77-1.398-.035-2.772-.05-4.126-.052-.381 0-.763-.002-1.143.001-3.241.014-6.349.105-9.306.231-4.66.616-9.309 1.479-13.952 1.794-4.12.285-8.285.241-12.221-.866-1.024-.283-1.953-.641-2.929-.964-.019-.008-.042-.012-.061-.02-6.435-1.127-12.305-2.691-17.332-3.887l-.002-.002a138.898 138.898 0 0 0-14.219-1.241c-.053.019-.105.04-.155.061a5.248 5.248 0 0 0-.678.322c-.08.043-.16.09-.236.139l-.015.011c-.077.049-.153.097-.227.151-.01.007-.024.016-.035.026a2.914 2.914 0 0 0-.183.142 3.53 3.53 0 0 0-.248.213c-.069.062-.132.126-.197.191-.005.002-.01.01-.014.014ZM204.991 319.561a550.143 550.143 0 0 0 5.767 7.34c2.675 3.261 5.328 6.534 8.43 9.399 1.099.962 2.275 2.023 3.726 2.469.736.212 1.395.274 1.986.201-.174-.279-.364-.575-.567-.892-.708-.043-1.426-.294-2.067-.704-2.525-1.714-4.491-4.196-6.507-6.517-2.434-2.925-4.774-5.948-7.104-8.984a56.627 56.627 0 0 0-3.664-2.312Z"/>
    <path d="M78.83 312.933c-.023.397-.04.8-.055 1.216 1.564.154 3.132.274 4.705.359 9.337.551 18.801-.32 28.038.908a40.19 40.19 0 0 1 7.415 1.761c2.559.807 5.319.991 7.985.87 6.348-.317 12.585-2.17 18.724-3.747 4.075-1.09 8.126-1.925 12.302-1.672 6.219.23 12.404 1.188 18.41 2.674 3.993 1.019 7.949 2.267 11.643 4.072 1.832.907 3.613 1.943 5.139 3.258 3.025 2.742 5.531 6.125 8.088 9.349 5.025 6.474 10.195 13.424 15.549 19.591 1.379 1.571 2.801 3.106 4.363 4.522 1.596 1.449 3.526 2.947 5.85 2.55 2.514-.493 3.487-3.025 3.995-5.516-.083-.425-.167-.83-.251-1.22-.329 1.499-.768 2.96-1.565 4.274-1.163 1.923-3.29 1.979-4.964.955-.821-.512-1.591-1.18-2.323-1.883-7.217-7.411-12.948-16.183-19.594-24.189-2.691-3.222-5.334-6.471-8.55-9.183-1.67-1.327-3.531-2.306-5.428-3.159-5.708-2.5-11.783-4.042-17.899-5.265-5.104-.964-10.291-1.786-15.546-1.811-3.17.004-6.357.691-9.457 1.382-8.439 1.824-18.406 5.188-26.633 2.242-3.24-1.119-6.663-1.667-10.089-1.972-8.363-.644-16.738.076-25.094-.156a139.775 139.775 0 0 1-4.758-.21Z"/>
    <path d="M78.76 317.321c.007.36.016.723.03 1.091 2.124.02 4.245.09 6.358.209 6.209.35 12.369 1.258 18.376 2.709 4.974 1.2 9.966 2.799 14.806 4.458l1.473.496c2.556.856 5.321 1.078 7.994.973 8.491-.329 16.611-3.552 24.916-5.081 2.057-.361 4.116-.413 6.183-.354 4.152.135 8.293.617 12.376 1.344 7.542 1.431 16.92 3.74 22.927 8.585 3.044 2.727 5.558 6.122 8.118 9.35 5.059 6.513 10.193 13.422 15.578 19.632 1.733 1.962 3.525 3.925 5.588 5.563.849.666 1.833 1.308 2.918 1.501 3.741.789 5.165-2.566 5.814-5.808-.057-.56-.115-1.101-.175-1.625-.847 4.077-2.263 8.359-6.704 5.958-2.524-1.687-4.481-4.159-6.489-6.466-6.643-7.976-12.59-16.681-19.552-24.437-1.413-1.547-2.844-3.083-4.504-4.418-1.684-1.311-3.549-2.29-5.455-3.135-5.725-2.49-11.814-4.022-17.945-5.241-6.141-1.084-12.452-2.264-18.784-1.541-8.172 1.164-16.542 4.331-24.784 4.541-2.551.06-5.063-.174-7.423-.995a206.41 206.41 0 0 0-4.409-1.524c-6.907-2.342-14.015-4.204-21.31-5.083-5.262-.658-10.588-.859-15.92-.702Z"/>
    <path d="M79.373 326.537c.035.355.072.714.11 1.068 6.392.031 12.773.524 19.016 1.631 7.102 1.246 14 3.348 20.789 5.685.949.315 2.062.73 3.013.955 8.325 1.857 16.951-1.001 25.12-3.037 4.05-1.059 8.123-2.069 12.263-1.768 4.128.215 8.232.857 12.253 1.737 6.03 1.353 11.989 3.178 17.506 5.928 1.822.934 3.587 1.984 5.175 3.239 1.572 1.278 2.96 2.821 4.319 4.346 6.77 7.862 12.988 16.245 20.026 23.87 1.416 1.53 2.879 3.023 4.474 4.393 1.63 1.398 3.573 2.858 5.881 2.458 2.086-.423 3.104-2.248 3.678-4.282a435.63 435.63 0 0 0-.1-1.818c-.313 1.274-.73 2.505-1.41 3.632-1.168 1.934-3.27 1.98-4.963.981-.831-.499-1.616-1.149-2.363-1.832-8.848-8.673-15.785-19.238-24.385-28.223-1.454-1.515-2.912-3.015-4.599-4.278-5.132-3.6-11.147-5.551-17.089-7.375-6.981-1.939-14.118-3.712-21.477-3.786-3.175.071-6.334.795-9.432 1.495-4.121.947-8.196 2.015-12.3 2.679-4.521.708-9.252 1.052-13.523-.472-7.322-2.624-14.8-4.922-22.538-6.123-6.4-1.009-12.919-1.321-19.444-1.103Z"/>
    <path d="M80.438 335.116c.049.362.1.716.152 1.064 1.965.321 3.95.572 5.929.745 9.255.536 18.374 2.175 27.14 4.977 2.937.89 5.854 1.914 8.773 2.889 8.977 2.596 19.133-1.103 28.068-3.24 2.029-.497 4.06-.965 6.095-1.192 2.021-.221 4.085-.138 6.127.042 8.175.8 16.234 2.957 23.651 6.369 3.687 1.726 7.147 3.923 9.892 6.983 5.565 6.056 10.61 12.655 16.008 18.889 4.088 4.689 8.049 9.564 12.925 13.454 1.683 1.377 4.226 2.386 6.236.829.966-.786 1.579-1.806 2.019-2.911-.016-.579-.035-1.177-.057-1.786a15.55 15.55 0 0 1-.632 1.617c-1.643 3.626-4.254 3.616-6.909 1.368-1.561-1.26-2.985-2.74-4.39-4.228-6.968-7.547-13.243-15.856-20.169-23.501-2.817-3.035-5.6-6.263-9.15-8.432-7.12-4.193-15.133-6.62-23.183-8.418-4.059-.845-8.208-1.566-12.415-1.318-2.12.163-4.203.562-6.262 1.002-8.086 1.691-16.231 4.522-24.412 3.476-2.021-.255-3.863-1.027-5.77-1.675-5.855-2.032-11.819-3.791-17.951-4.911-5.073-.944-10.317-1.369-15.496-1.555-1.03-.038-2.051-.134-3.08-.202a91.773 91.773 0 0 1-3.14-.335Z"/>
    <path d="M81.718 344.326c.019.336.033.687.039 1.052 3.101.496 6.242.819 9.367 1.018 6.237.493 12.383 1.579 18.392 3.172 4.008 1.088 7.961 2.337 11.886 3.689.559.19 1.715.579 2.243.753 1.298.397 2.652.644 4.003.767 8.534.681 16.95-2.408 25.227-4.32 2.053-.475 4.127-.907 6.175-.996 9.36-.102 21.58 3.961 29.77 8.251 3.676 1.907 7.032 4.337 9.786 7.469 8.34 9.251 16.109 19.514 24.897 28.333 1.94 1.825 3.823 3.803 6.276 4.933 1.592.597 2.814.295 3.725-.515.017-.413.032-.843.042-1.285-.779 1.036-1.853 1.469-3.367.846-2.249-1.14-4.019-3.112-5.809-4.89-8.63-9.063-16.172-19.281-24.988-28.216-1.484-1.499-3.054-2.958-4.803-4.129-8.057-5.426-25.702-11.694-35.505-11.795-4.296.087-8.458 1.265-12.638 2.222-4.113.968-8.243 1.949-12.409 2.367-3.081.298-6.172.297-9.108-.496-.583-.155-.904-.276-1.433-.46a213.83 213.83 0 0 0-7.432-2.497c-6.502-2.043-13.22-3.547-20.046-4.22-3.618-.401-7.4-.42-11.011-.712a100.052 100.052 0 0 1-3.279-.341Z"/>
  </g>
  <g fill="#fff" opacity=".2">
    <path d="M144.327 390.367c.873.295 1.733.579 2.573.856 8.369-.841 16.731-2.292 25.092-2.283 4.654.06 9.443.521 13.585 2.634 2.421 1.323 4.68 3.02 6.846 4.747 4.371 3.495 8.527 7.311 12.554 11.228.235.222.492.466.763.726.839.187 1.667.367 2.483.535a206.607 206.607 0 0 0-6.34-6.255c-4.842-4.507-9.933-8.927-15.835-11.933-8.463-3.849-21.777-1.729-31.14-1.039-3.501.28-7.045.617-10.581.784Z"/>
    <path d="M81.731 359.128c.026.521.059 1.031.104 1.521 2.548.757 4.934 2.001 7.302 3.219 10.749 5.744 21.177 12.469 33.043 15.821 5.938 1.767 12.287 1.891 18.501 1.386 10.277-.77 20.54-2.776 30.804-2.769 5.046.059 10.239.553 14.735 2.833 2.618 1.426 5.084 3.267 7.429 5.133 3.95 3.146 7.73 6.551 11.404 10.048 4.059 3.807 10.214 10.084 14.435 14.325.468.047.928.086 1.377.118-5.516-6.052-11.096-12.044-17.047-17.646-5.243-4.875-10.746-9.667-17.13-12.928-9.174-4.189-23.556-1.902-33.705-1.141-10.136.829-20.597 2.092-30.337-.874-9.628-2.885-18.541-8.171-27.351-12.913-1.789-.971-3.583-1.937-5.413-2.846-2.614-1.283-5.28-2.585-8.15-3.287Z"/>
    <path d="M89.064 353.281c2.646 1.463 5.264 2.989 7.924 4.434 9.271 5.034 18.864 10.077 29.492 11.609 2.673.341 5.354.415 8.047.37 12.264-.333 24.473-3.117 36.735-3.103 5.229.065 10.615.571 15.272 2.93 2.717 1.479 5.274 3.383 7.706 5.318 11.255 8.962 21.745 20.404 32.035 30.52.769.776 2.789 2.719 4.015 3.872.046-.065.087-.132.127-.196-9.082-9.904-18.095-20.217-28.005-29.223-2.733-2.461-5.64-4.886-8.613-7.048-3.059-2.109-6.188-4.296-9.811-5.327-4.108-1.195-8.422-1.4-12.704-1.385-6.159.063-13.008.787-19.191 1.34-8.446.712-17.018 1.637-25.358.477-10.397-1.668-19.742-6.823-28.886-11.728-1.872-1.001-3.795-2.074-5.75-3.141a27.795 27.795 0 0 0-3.035.281Z"/>
  </g>
  <path fill="#fff" d="M226.377 361.79c6.886 2.036-6.521-26.347-14.92-33.935-8.4-7.589-31.858-16.068-40.296-15.479-8.44.588-12.332.341-1.315 6.039 11.018 5.698 27.052 16.627 30.426 20.092 3.373 3.465 21.954 22.055 26.105 23.283Z" opacity=".2"/>
  <path fill="#000" d="M126.917 318.048c7.422 7.706 4.992 14.492 5.045 18.06.053 3.569-2.22 17.128-4.185 14.404-1.964-2.723-1.161-16.813-4.31-21.558-3.15-4.746-8.481-17.456-5.891-17.872 2.589-.414 6.778 4.305 9.341 6.966Z" opacity=".1"/>
  <path fill="#263238" d="M397.366 122.102s5.445 1.291 6.253 4.865c.806 3.574.743 10.468-.597 12.044-1.341 1.576-2.39 1.83-2.39 1.83s-3.047 5.128-7.768 6.63c-4.72 1.502-10.737-1.812-12.541-4.634-1.804-2.824-4.72-9.404-1.382-13.128 0 0 .261-5.695 5.691-5.909 0 0 4.601-6.725 12.734-1.698ZM373.671 120.128s-6.214.553-9.165-1.287c-2.952-1.839-4.264-7.404-4.264-7.404s-3.556-2.669-4.477-6.039c-.921-3.37 4.075-11.624 6.147-12.424 2.073-.799 6.692-3.783 10.827-1.554 4.136 2.23 9.29 4.153 10.395 9.246 0 0 2.745 2.557 1.805 8.618-.941 6.059-4.408 11.241-11.268 10.844Z"/>
  <path fill="#263238" d="M370.776 111.919s3.404-4.442 6.995-3.719c3.592.724 9.858 3.598 10.75 5.465.891 1.868.693 2.93.693 2.93s3.435 4.875 2.878 9.798c-.558 4.922-6.04 9.06-9.353 9.553-3.314.493-10.512.467-12.546-4.101 0 0-5.092-2.566-3.068-7.608 0 0-4.26-6.947 3.651-12.318Z"/>
  <path fill="#455A64" d="M381.152 92.787s9.19 5.638 10.597 6.101c1.407.462 6.615-.096 8.006-.86s13.929-7.16 13.929-7.16 6.708 7.262 7.2 8.31c.493 1.046 2.211 8.964 2.211 8.964s-16.907 11.13-18.564 11.959c-1.658.828-4.012 14.222-4.012 14.222l-4.131.296.548-10.263s-3.914 3.963-4.344 4.528c-.43.565-2.036 6.632-2.036 6.632l-6.076-2.668s.072-7.696.403-8.948c.33-1.252 4.424-6.685 4.424-6.685s-7.683 1.901-8.968 2.108c-1.285.207-13.221-3.525-13.221-3.525l2.631-8.855s8.873 1.315 10.762 1.009c1.89-.306 5.991-1.901 5.991-1.901s-3.951-3.674-4.778-5.03c-.827-1.356-3.525-5.39-3.525-5.39l2.357-2.518"/>
  <path fill="#FFC727" d="M381.152 92.787s9.19 5.638 10.597 6.101c1.407.462 6.615-.096 8.006-.86s13.929-7.16 13.929-7.16 6.708 7.262 7.2 8.31c.493 1.046 2.211 8.964 2.211 8.964s-16.907 11.13-18.564 11.959c-1.658.828-4.012 14.222-4.012 14.222l-4.131.296.548-10.263s-3.914 3.963-4.344 4.528c-.43.565-2.036 6.632-2.036 6.632l-6.076-2.668s.072-7.696.403-8.948c.33-1.252 4.424-6.685 4.424-6.685s-7.683 1.901-8.968 2.108c-1.285.207-13.221-3.525-13.221-3.525l2.631-8.855s8.873 1.315 10.762 1.009c1.89-.306 5.991-1.901 5.991-1.901s-3.951-3.674-4.778-5.03c-.827-1.356-3.525-5.39-3.525-5.39l2.357-2.518" opacity=".3"/>
  <path fill="#37474F" d="M376.857 76.582s5.445 1.292 6.252 4.866c.806 3.573.743 10.468-.597 12.043-1.341 1.577-2.39 1.83-2.39 1.83s-3.048 5.128-7.768 6.63c-4.72 1.502-10.737-1.81-12.542-4.634-1.803-2.822-4.72-9.403-1.382-13.127 0 0 .261-5.695 5.691-5.91 0 0 4.602-6.724 12.736-1.698Z"/>
  <path fill="#FFC727" d="M374.494 77s3.877.92 4.452 3.464c.575 2.545.53 7.454-.425 8.576-.954 1.122-1.701 1.304-1.701 1.304s-2.17 3.651-5.531 4.72c-3.362 1.07-7.646-1.29-8.93-3.299-1.284-2.01-3.361-6.696-.985-9.347 0 0 .186-4.055 4.053-4.207 0 0 3.275-4.79 9.067-1.212Z" opacity=".1"/>
  <path fill="#FFC727" d="M370.813 78.346s2.357.558 2.706 2.105c.349 1.547.321 4.53-.258 5.212-.58.683-1.035.793-1.035.793s-1.319 2.22-3.362 2.868c-2.043.65-4.647-.783-5.428-2.005-.781-1.222-2.043-4.07-.598-5.681 0 0 .113-2.465 2.464-2.557 0 0 1.991-2.91 5.511-.735Z" opacity=".3"/>
  <path fill="#455A64" d="M342.895 110.228s-2.342-7.571-.844-11.729c1.498-4.157 8.062-7.27 8.062-7.27s2.367-5.13 6.308-7.171c3.941-2.042 15.527 1.963 17.072 4.325 1.545 2.361 6.483 7.303 4.817 13.035-1.666 5.732-2.682 12.647-8.714 15.377 0 0-2.444 4.092-10.224 4.539-7.782.448-15.142-2.478-16.477-11.106Z"/>
  <path fill="#FFC727" d="M344.892 105.334s-1.749-5.654-.63-8.76c1.12-3.105 6.021-5.43 6.021-5.43s1.768-3.83 4.711-5.355c2.943-1.526 11.596 1.466 12.749 3.23 1.153 1.764 4.842 5.454 3.598 9.735-1.244 4.281-2.003 9.445-6.508 11.485 0 0-1.825 3.055-7.635 3.39-5.811.334-11.309-1.852-12.306-8.295Z" opacity=".1"/>
  <path fill="#FFC727" d="M346.811 100.683s-1.159-3.745-.418-5.801c.742-2.056 3.987-3.596 3.987-3.596s1.171-2.536 3.12-3.546c1.949-1.01 7.679.97 8.442 2.14.764 1.167 3.207 3.612 2.383 6.446-.825 2.835-1.327 6.254-4.31 7.604 0 0-1.208 2.024-5.057 2.245-3.847.222-7.488-1.225-8.147-5.492Z" opacity=".3"/>
  <path fill="#37474F" d="M403.935 161.796s-6.214.553-9.166-1.287c-2.951-1.839-4.263-7.405-4.263-7.405s-3.556-2.669-4.477-6.039c-.921-3.37 4.075-11.624 6.147-12.424 2.073-.799 6.691-3.783 10.827-1.554 4.135 2.229 9.29 4.153 10.395 9.245 0 0 2.745 2.557 1.805 8.619-.94 6.062-4.408 11.243-11.268 10.845Z"/>
  <path fill="#FFC727" d="M399.195 157.9s-4.254.379-6.275-.881c-2.021-1.259-2.919-5.07-2.919-5.07s-2.436-1.827-3.065-4.135c-.631-2.307 2.79-7.959 4.209-8.506 1.419-.547 4.581-2.591 7.413-1.064 2.831 1.526 6.359 2.843 7.116 6.33 0 0 1.879 1.75 1.236 5.9-.645 4.151-3.019 7.699-7.715 7.426Z" opacity=".1"/>
  <path fill="#37474F" d="M371.831 153.548s-5.488 4.142-9.321 4.143c-3.834.001-8.306-4.436-8.306-4.436s-4.883-.421-7.71-3.035c-2.827-2.615-2.971-13.247-1.5-15.203 1.472-1.956 4.049-7.441 9.217-7.77 5.168-.329 11.108-1.536 15.112 2.581 0 0 4.059.788 6.716 7.005 2.656 6.217 2.438 13.085-4.208 16.715Z"/>
  <path fill="#FFC727" d="M365.391 152.077s-4.098 3.093-6.961 3.094c-2.864.002-4.546-3.698-4.546-3.698s-4.287 1.785-7.416-1.881c-1.866-2.188-2.218-9.893-1.119-11.354 1.099-1.461 3.024-5.558 6.883-5.803 3.859-.245 8.297-1.148 11.287 1.928 0 0 3.031.589 5.015 5.231 1.984 4.642 1.82 9.772-3.143 12.483Z" opacity=".1"/>
  <path fill="#FFC727" d="M361.469 151.347s-2.809 2.12-4.772 2.121c-1.962 0-3.116-2.536-3.116-2.536s-2.939 1.223-5.083-1.29c-1.279-1.499-1.521-6.782-.768-7.783.754-1.001 2.074-3.81 4.719-3.978 2.645-.169 5.687-.787 7.737 1.321 0 0 2.078.403 3.438 3.587 1.361 3.183 1.248 6.699-2.155 8.558Z" opacity=".3"/>
  <path fill="#455A64" d="M340.336 114.013s1.282-4.41 4.673-5.655 8.403-5.606 13.859-3.541c5.457 2.064 10.016 9.685 10.016 9.685s5.599 2.678 7.525 11.222c1.926 8.544-2.479 13.913-6.928 16.605-4.448 2.691-14.352-1.4-14.352-1.4s-15.15-3.75-15.54-15.02c-.002-.002-6.006-6.21.747-11.896Z"/>
  <path fill="#FFC727" d="M339.795 115.875s.9-3.096 3.28-3.97c2.38-.875 5.9-3.936 9.73-2.486 3.83 1.449 7.031 6.799 7.031 6.799s3.931 1.88 5.282 7.878c1.352 5.998-1.741 9.767-4.863 11.657-3.123 1.889-10.076-.983-10.076-.983s-10.636-2.632-10.909-10.544c0 0-4.216-4.358.525-8.351Z" opacity=".1"/>
  <path fill="#FFC727" d="M339.532 117.04s.56-1.928 2.042-2.473c1.484-.545 3.676-2.452 6.062-1.549 2.386.904 4.38 4.236 4.38 4.236s2.449 1.172 3.292 4.908c.842 3.737-1.085 6.085-3.03 7.262-1.946 1.177-6.278-.613-6.278-.613s-6.626-1.639-6.796-6.569c0 0-2.626-2.714.328-5.202Z" opacity=".3"/>
  <path fill="#455A64" d="M359.133 145.296s-1.391-8.373 3.133-11.6c4.525-3.228 14.202-7.188 17.193-6.239 2.992.95 3.963 2.268 3.963 2.268s8.961 1.251 13.833 6.97c4.872 5.72 3.773 16.079.884 20.259-2.889 4.181-10.378 12.125-17.545 9.643 0 0-8.119 2.98-11.605-4.49 0 0-12.109-2.484-9.856-16.811Z"/>
  <path fill="#FFC727" d="M359.499 146.339s-1.079-6.493 2.429-8.994c3.508-2.503 11.012-5.573 13.333-4.837 2.319.736 3.072 1.758 3.072 1.758s6.948.969 10.725 5.403c3.778 4.435 2.926 12.467.686 15.709-2.239 3.241-8.047 9.401-13.605 7.476 0 0-6.294 2.311-8.997-3.48 0 0-9.39-1.925-7.643-13.035Z" opacity=".1"/>
  <path fill="#FFC727" d="M360.069 146.203s-.636-3.83 1.433-5.306c2.069-1.477 6.496-3.289 7.865-2.854 1.368.434 1.813 1.037 1.813 1.037s4.099.572 6.327 3.189c2.228 2.616 1.727 7.354.405 9.267-1.321 1.913-4.747 5.546-8.026 4.411 0 0-3.714 1.362-5.309-2.053 0 0-5.54-1.137-4.508-7.691Z" opacity=".3"/>
  <path fill="#263238" d="M289.854 280.737s-5.453 1.258-7.761-1.586c-2.309-2.845-5.312-9.052-4.809-11.059.502-2.008 1.329-2.701 1.329-2.701s.455-5.948 4.02-9.388c3.565-3.441 10.427-3.142 13.295-1.412 2.869 1.73 8.403 6.333 7.063 11.151 0 0 2.294 5.22-2.479 7.82 0 0-1.138 8.07-10.658 7.175ZM311.967 271.992s5.322-3.251 8.785-2.913c3.462.34 7.107 4.744 7.107 4.744s4.371.813 6.691 3.425c2.321 2.612 1.507 12.226.003 13.861-1.503 1.636-4.317 6.36-9.013 6.198-4.695-.163-10.167.4-13.418-3.674 0 0-3.595-1.073-5.441-6.922-1.847-5.85-1.039-12.032 5.286-14.719Z"/>
  <path fill="#263238" d="M318.203 278.064s-1.079 5.491-4.62 6.437c-3.54.945-10.431 1.15-12.058-.129-1.628-1.278-1.922-2.317-1.922-2.317s-5.241-2.846-6.926-7.504c-1.684-4.659 1.393-10.799 4.143-12.711 2.751-1.913 9.213-5.083 13.063-1.891 0 0 5.701.039 6.125 5.457 0 0 6.902 4.336 2.195 12.658Z"/>
  <path fill="#455A64" d="M317.393 299.814s-10.739-.976-12.205-.766c-1.465.21-5.886 3.021-6.794 4.323-.907 1.302-9.305 12.598-9.305 12.598s-9.234-3.533-10.139-4.251c-.906-.72-5.959-7.054-5.959-7.054s10.213-17.475 11.331-18.954c1.117-1.478-2.715-14.526-2.715-14.526l3.57-2.098 4.062 9.439s1.75-5.288 1.884-5.985c.135-.698-1.118-6.847-1.118-6.847l6.631-.305s3.348 6.929 3.608 8.197c.259 1.269-.999 7.954-.999 7.954s6.042-5.111 7.102-5.867c1.061-.756 13.413-2.708 13.413-2.708l1.571 9.104s-8.537 2.758-10.093 3.871c-1.558 1.112-4.525 4.362-4.525 4.362s5.17 1.539 6.513 2.387c1.344.848 5.55 3.266 5.55 3.266l-.994 3.301"/>
  <path fill="#FFC727" d="M317.393 299.814s-10.739-.976-12.205-.766c-1.465.21-5.886 3.021-6.794 4.323-.907 1.302-9.305 12.598-9.305 12.598s-9.234-3.533-10.139-4.251c-.906-.72-5.959-7.054-5.959-7.054s10.213-17.475 11.331-18.954c1.117-1.478-2.715-14.526-2.715-14.526l3.57-2.098 4.062 9.439s1.75-5.288 1.884-5.985c.135-.698-1.118-6.847-1.118-6.847l6.631-.305s3.348 6.929 3.608 8.197c.259 1.269-.999 7.954-.999 7.954s6.042-5.111 7.102-5.867c1.061-.756 13.413-2.708 13.413-2.708l1.571 9.104s-8.537 2.758-10.093 3.871c-1.558 1.112-4.525 4.362-4.525 4.362s5.17 1.539 6.513 2.387c1.344.848 5.55 3.266 5.55 3.266l-.994 3.301" opacity=".3"/>
  <path fill="#37474F" d="M328.433 312.429s-5.453 1.258-7.761-1.586c-2.31-2.845-5.311-9.052-4.809-11.058.502-2.008 1.33-2.701 1.33-2.701s.455-5.947 4.02-9.388c3.563-3.44 10.426-3.142 13.295-1.412 2.869 1.731 8.403 6.333 7.063 11.151 0 0 2.294 5.22-2.478 7.821 0 0-1.141 8.069-10.66 7.173Z"/>
  <path fill="#FFC727" d="M330.364 311.008s-3.883.895-5.526-1.13c-1.644-2.025-3.782-6.445-3.424-7.874.357-1.429.946-1.923.946-1.923s.325-4.235 2.863-6.685c2.539-2.449 7.424-2.236 9.467-1.004 2.044 1.231 5.984 4.509 5.03 7.94 0 0 1.633 3.717-1.766 5.569 0-.002-.81 5.744-7.59 5.107Z" opacity=".1"/>
  <path fill="#FFC727" d="M333.067 308.169s-2.36.545-3.359-.686c-.999-1.232-2.298-3.917-2.082-4.786.217-.868.576-1.168.576-1.168s.196-2.574 1.739-4.062c1.543-1.489 4.513-1.36 5.754-.612 1.241.749 3.637 2.741 3.057 4.826 0 0 .993 2.259-1.073 3.384 0 0-.492 3.491-4.612 3.104Z" opacity=".3"/>
  <path fill="#455A64" d="M343.939 267.208s5.459 5.746 5.961 10.136c.503 4.392-3.998 10.093-3.998 10.093s.154 5.647-2.472 9.226c-2.625 3.579-14.786 5.13-17.218 3.699-2.433-1.432-9.051-3.669-10.102-9.544-1.049-5.876-3.208-12.524.987-17.647 0 0 .374-4.752 7.149-8.605 6.774-3.853 14.669-4.498 19.693 2.642Z"/>
  <path fill="#FFC727" d="M344.322 272.481s4.077 4.291 4.451 7.569c.375 3.28-2.986 7.538-2.986 7.538s.115 4.218-1.846 6.89c-1.961 2.672-11.042 3.831-12.859 2.762-1.817-1.069-6.759-2.739-7.544-7.128-.784-4.388-2.396-9.352.737-13.179 0 0 .28-3.548 5.339-6.426 5.059-2.879 10.955-3.36 14.708 1.974Z" opacity=".1"/>
  <path fill="#FFC727" d="M344.666 277.499s2.699 2.841 2.947 5.013c.249 2.172-1.977 4.991-1.977 4.991s.076 2.793-1.222 4.563c-1.299 1.77-7.313 2.536-8.516 1.829-1.203-.708-4.476-1.814-4.996-4.72-.519-2.906-1.586-6.193.489-8.727 0 0 .185-2.351 3.535-4.256 3.35-1.905 7.255-2.224 9.74 1.307Z" opacity=".3"/>
  <path fill="#37474F" d="M266.356 248.076s5.323-3.251 8.785-2.913c3.462.338 7.107 4.744 7.107 4.744s4.371.814 6.692 3.426c2.32 2.612 1.506 12.226.003 13.862-1.503 1.635-4.318 6.359-9.013 6.197-4.696-.163-10.168.4-13.418-3.674 0 0-3.595-1.073-5.441-6.922-1.848-5.849-1.039-12.032 5.285-14.72Z"/>
  <path fill="#FFC727" d="M272.333 249.464s3.645-2.227 6.015-1.995c2.37.233 4.865 3.248 4.865 3.248s2.992.557 4.581 2.345c1.589 1.788 1.031 8.37.003 9.491-1.03 1.12-2.957 4.354-6.171 4.242-3.214-.111-6.962.275-9.186-2.515 0 0-2.461-.735-3.726-4.74-1.264-4.004-.711-8.236 3.619-10.076Z" opacity=".1"/>
  <path fill="#37474F" d="M298.787 241.224s3.08-6.146 6.515-7.848c3.434-1.704 9.412.29 9.412.29s4.562-1.79 8.256-.702c3.692 1.088 8.54 10.553 8.089 12.959-.452 2.406-.327 8.465-4.813 11.053-4.485 2.588-9.273 6.306-14.689 4.392 0 0-3.987 1.094-9.126-3.298-5.139-4.392-7.989-10.644-3.644-16.846Z"/>
  <path fill="#FFC727" d="M305.211 239.685s2.3-4.59 4.866-5.861c2.566-1.272 5.714 1.296 5.714 1.296s3.05-3.502 7.48-1.604c2.643 1.132 6.378 7.882 6.041 9.679-.336 1.796-.243 6.322-3.594 8.254-3.349 1.932-6.925 4.709-10.969 3.28 0 0-2.978.818-6.817-2.463-3.837-3.279-5.966-7.948-2.721-12.581Z" opacity=".1"/>
  <path fill="#FFC727" d="M309.049 238.6s1.576-3.147 3.335-4.018c1.759-.872 3.918.889 3.918.889s2.091-2.4 5.128-1.1c1.811.776 4.372 5.402 4.141 6.635-.231 1.232-.168 4.334-2.464 5.658-2.297 1.325-4.748 3.229-7.52 2.248 0 0-2.041.56-4.673-1.688-2.631-2.248-4.09-5.449-1.865-8.624Z" opacity=".3"/>
  <path fill="#455A64" d="M344.554 262.682s.807 4.52-1.678 7.14c-2.486 2.621-5.043 8.753-10.85 9.324-5.805.571-13.271-4.236-13.271-4.236s-6.207.084-11.724-6.718c-5.516-6.803-3.95-13.569-1.158-17.954 2.792-4.386 13.483-5.114 13.483-5.114s15.241-3.361 20.591 6.565c0 0 8.137 2.9 4.607 10.993Z"/>
  <path fill="#FFC727" d="M344.213 260.772s.567 3.174-1.178 5.013c-1.746 1.84-3.541 6.144-7.618 6.545-4.075.402-9.317-2.974-9.317-2.974s-4.358.059-8.231-4.716c-3.872-4.775-2.773-9.526-.813-12.604 1.96-3.08 9.466-3.591 9.466-3.591s10.7-2.359 14.456 4.61c0 0 5.712 2.036 3.235 7.717Z" opacity=".1"/>
  <path fill="#FFC727" d="M343.931 259.611s.353 1.977-.734 3.123c-1.087 1.147-2.206 3.829-4.745 4.078-2.539.25-5.805-1.853-5.805-1.853s-2.714.037-5.127-2.939c-2.412-2.975-1.727-5.934-.507-7.853 1.222-1.918 5.897-2.236 5.897-2.236s6.666-1.47 9.006 2.872c0 0 3.558 1.268 2.015 4.808Z" opacity=".3"/>
  <path fill="#455A64" d="M313.827 242.986s4.962 6.887 2.339 11.787c-2.622 4.899-9.538 12.742-12.64 13.219-3.103.477-4.558-.274-4.558-.274s-8.585 2.856-15.489-.108c-6.904-2.965-10.515-12.735-9.782-17.764.734-5.029 3.921-15.47 11.446-16.426 0 0 5.953-6.273 12.391-1.126 0 0 11.955-3.147 16.293 10.692Z"/>
  <path fill="#FFC727" d="M313.036 242.214s3.848 5.34 1.815 9.139c-2.034 3.8-7.397 9.881-9.802 10.251-2.405.369-3.534-.213-3.534-.213s-6.656 2.214-12.009-.084c-5.354-2.298-8.154-9.875-7.584-13.774.568-3.899 3.04-11.996 8.875-12.737 0 0 4.616-4.863 9.608-.873 0 0 9.267-2.441 12.631 8.291Z" opacity=".1"/>
  <path fill="#FFC727" d="M312.586 242.588s2.27 3.151 1.07 5.392c-1.2 2.241-4.363 5.83-5.782 6.047-1.42.218-2.085-.125-2.085-.125s-3.927 1.306-7.085-.05c-3.159-1.355-4.811-5.825-4.474-8.126.336-2.301 1.793-7.076 5.236-7.514 0 0 2.722-2.869 5.668-.515 0 0 5.467-1.44 7.452 4.891Z" opacity=".3"/>
  <path fill="#263238" d="M385.566 249.12s-.419 5.581-3.822 6.94c-3.403 1.358-10.222 2.38-11.989 1.304-1.767-1.077-2.182-2.073-2.182-2.073s-5.544-2.204-7.769-6.629c-2.225-4.426.101-10.889 2.605-13.113 2.504-2.225 8.544-6.142 12.747-3.43 0 0 5.665-.638 6.73 4.691 0 0 7.365 3.487 3.68 12.31ZM383.79 225.409s-1.522-6.05-.169-9.254c1.353-3.204 6.642-5.375 6.642-5.375s2.076-3.932 5.259-5.371c3.184-1.439 12.122 2.197 13.237 4.117 1.115 1.921 4.789 6.014 3.237 10.448-1.551 4.434-2.64 9.826-7.496 11.718 0 0-2.093 3.114-8.227 3.138-6.134.026-11.796-2.583-12.483-9.421Z"/>
  <path fill="#263238" d="M391.442 221.258s4.923 2.663 4.772 6.324c-.15 3.661-2.002 10.301-3.707 11.474-1.704 1.173-2.783 1.147-2.783 1.147s-4.276 4.159-9.224 4.382c-4.948.222-9.897-4.54-10.904-7.735-1.008-3.195-2.115-10.308 2.077-13.036 0 0 1.732-5.431 7.032-4.226 0 0 6.189-5.298 12.737 1.67Z"/>
  <path fill="#455A64" d="M411.968 228.498s-4.124 9.963-4.359 11.425c-.235 1.462 1.134 6.519 2.109 7.772.973 1.253 9.262 12.63 9.262 12.63s-6.117 7.766-7.074 8.418c-.956.651-8.506 3.592-8.506 3.592s-13.649-14.946-14.728-16.452c-1.079-1.507-14.676-1.726-14.676-1.726l-.942-4.033 10.221-1.073s-4.529-3.242-5.154-3.578c-.626-.335-6.871-.967-6.871-.967l1.68-6.42s7.612-1.138 8.9-1.009c1.288.13 7.297 3.318 7.297 3.318s-3.084-7.287-3.491-8.525c-.407-1.237 1.401-13.611 1.401-13.611l9.159 1.207s.096 8.97.696 10.788c.6 1.817 2.82 5.617 2.82 5.617s3.007-4.478 4.216-5.51c1.209-1.03 4.769-4.328 4.769-4.328l2.856 1.931"/>
  <path fill="#FFC727" d="M411.968 228.498s-4.124 9.963-4.359 11.425c-.235 1.462 1.134 6.519 2.109 7.772.973 1.253 9.262 12.63 9.262 12.63s-6.117 7.766-7.074 8.418c-.956.651-8.506 3.592-8.506 3.592s-13.649-14.946-14.728-16.452c-1.079-1.507-14.676-1.726-14.676-1.726l-.942-4.033 10.221-1.073s-4.529-3.242-5.154-3.578c-.626-.335-6.871-.967-6.871-.967l1.68-6.42s7.612-1.138 8.9-1.009c1.288.13 7.297 3.318 7.297 3.318s-3.084-7.287-3.491-8.525c-.407-1.237 1.401-13.611 1.401-13.611l9.159 1.207s.096 8.97.696 10.788c.6 1.817 2.82 5.617 2.82 5.617s3.007-4.478 4.216-5.51c1.209-1.03 4.769-4.328 4.769-4.328l2.856 1.931" opacity=".3"/>
  <path fill="#37474F" d="M427.295 221.708s-.42 5.58-3.823 6.939-10.22 2.381-11.988 1.304c-1.767-1.076-2.183-2.073-2.183-2.073s-5.542-2.203-7.768-6.629c-2.225-4.425.1-10.888 2.605-13.113 2.504-2.226 8.543-6.14 12.746-3.429 0 0 5.666-.637 6.731 4.691 0 0 7.365 3.486 3.68 12.31Z"/>
  <path fill="#FFC727" d="M426.51 219.441s-.298 3.973-2.721 4.941c-2.422.968-7.278 1.695-8.536.929s-1.555-1.476-1.555-1.476-3.947-1.569-5.532-4.719c-1.584-3.152.071-7.753 1.855-9.338 1.783-1.585 6.084-4.373 9.076-2.442 0 0 4.035-.454 4.791 3.341 0 0 5.247 2.48 2.622 8.764Z" opacity=".1"/>
  <path fill="#FFC727" d="M424.604 216.017s-.181 2.415-1.654 3.004c-1.473.588-4.423 1.03-5.187.564-.766-.466-.946-.897-.946-.897s-2.399-.954-3.362-2.869c-.962-1.916.043-4.713 1.127-5.676 1.084-.963 3.698-2.658 5.517-1.484 0 0 2.452-.276 2.912 2.031 0 0 3.188 1.508 1.593 5.327Z" opacity=".3"/>
  <path fill="#455A64" d="M388.727 193.458s7.108-3.504 11.45-2.678c4.342.827 8.447 6.818 8.447 6.818s5.438 1.532 8.074 5.103c2.636 3.57.502 15.642-1.587 17.539-2.089 1.897-6.194 7.552-12.115 6.807-5.923-.744-12.911-.661-16.556-6.187 0 0-4.425-1.77-6.09-9.384-1.666-7.615.067-15.343 8.377-18.018Z"/>
  <path fill="#FFC727" d="M393.874 194.66s5.309-2.616 8.552-2c3.242.618 6.308 5.092 6.308 5.092s4.061 1.144 6.03 3.811c1.969 2.667.376 11.682-1.185 13.098-1.561 1.417-4.625 5.64-9.049 5.084-4.423-.556-9.642-.493-12.364-4.622 0 0-3.305-1.322-4.549-7.008-1.244-5.684.051-11.457 6.257-13.455Z" opacity=".1"/>
  <path fill="#FFC727" d="M398.77 195.824s3.515-1.733 5.662-1.325c2.147.409 4.177 3.372 4.177 3.372s2.689.757 3.993 2.523c1.304 1.766.249 7.736-.785 8.674-1.033.938-3.062 3.735-5.991 3.367-2.929-.368-6.386-.326-8.188-3.06 0 0-2.188-.876-3.011-4.641-.825-3.764.032-7.587 4.143-8.91Z" opacity=".3"/>
  <path fill="#37474F" d="M347.398 261.847s-1.522-6.049-.17-9.254c1.353-3.204 6.642-5.375 6.642-5.375s2.076-3.931 5.26-5.37c3.183-1.44 12.121 2.196 13.236 4.118 1.115 1.921 4.788 6.013 3.237 10.447-1.551 4.435-2.639 9.827-7.496 11.719 0 0-2.094 3.113-8.228 3.138-6.132.023-11.795-2.586-12.481-9.423Z"/>
  <path fill="#FFC727" d="M350.5 256.553s-1.042-4.143-.117-6.336c.926-2.194 4.548-3.68 4.548-3.68s1.421-2.692 3.601-3.677c2.179-.985 8.299 1.504 9.062 2.819.763 1.316 3.278 4.117 2.216 7.154-1.061 3.036-1.807 6.727-5.131 8.023 0 0-1.434 2.131-5.633 2.148-4.2.017-8.077-1.77-8.546-6.451Z" opacity=".1"/>
  <path fill="#37474F" d="M350.495 228.845s-4.952-4.768-5.557-8.554c-.605-3.785 3.075-8.901 3.075-8.901s-.352-4.888 1.784-8.09c2.137-3.202 12.615-5.017 14.778-3.871 2.163 1.146 7.985 2.829 9.122 7.881 1.138 5.051 3.265 10.728-.172 15.33 0 0-.141 4.132-5.861 7.733-5.722 3.601-12.538 4.465-17.169-1.528Z"/>
  <path fill="#FFC727" d="M350.936 222.254s-3.7-3.56-4.15-6.388c-.452-2.828 2.938-5.071 2.938-5.071s-2.437-3.953.691-7.619c1.867-2.187 9.422-3.747 11.037-2.891 1.616.856 5.963 2.112 6.813 5.885.85 3.773 2.438 8.012-.13 11.45 0 0-.105 3.086-4.377 5.775-4.273 2.69-9.364 3.335-12.822-1.141Z" opacity=".1"/>
  <path fill="#FFC727" d="M351.04 218.267s-2.535-2.441-2.844-4.378c-.309-1.938 2.014-3.476 2.014-3.476s-1.672-2.711.475-5.223c1.28-1.499 6.458-2.569 7.565-1.982 1.108.587 4.089 1.448 4.671 4.034.583 2.586 1.672 5.493-.089 7.849 0 0-.072 2.115-3 3.959-2.931 1.844-6.421 2.286-8.792-.783Z" opacity=".3"/>
  <path fill="#455A64" d="M384.589 191.526s4.556.573 6.319 3.725 6.858 7.418 5.677 13.131c-1.18 5.713-7.99 11.412-7.99 11.412s-1.765 5.952-9.899 9.197c-8.134 3.245-14.129-.262-17.486-4.231-3.358-3.97-.874-14.395-.874-14.395s1.32-15.55 12.389-17.707c-.002-.001 5.186-6.907 11.864-1.132Z"/>
  <path fill="#FFC727" d="M382.664 191.285s3.197.401 4.436 2.615c1.238 2.213 4.814 5.207 3.985 9.219-.829 4.01-5.61 8.012-5.61 8.012s-1.239 4.178-6.95 6.457c-5.71 2.278-9.919-.184-12.276-2.971-2.356-2.787-.614-10.105-.614-10.105s.928-10.918 8.699-12.432c0 0 3.641-4.85 8.33-.795Z" opacity=".1"/>
  <path fill="#FFC727" d="M381.471 191.208s1.992.25 2.764 1.629c.772 1.378 2.999 3.243 2.483 5.743-.516 2.498-3.494 4.991-3.494 4.991s-.772 2.602-4.33 4.021c-3.559 1.419-6.179-.114-7.648-1.85-1.468-1.735-.383-6.296-.383-6.296s.578-6.801 5.419-7.745c0 0 2.269-3.019 5.189-.493Z" opacity=".3"/>
  <path fill="#455A64" d="M356.649 215.008s8.051-2.69 11.949 1.27c3.899 3.96 9.331 12.896 8.864 15.999-.468 3.103-1.616 4.27-1.616 4.27s.174 9.046-4.709 14.756c-4.882 5.711-15.285 6.255-19.869 4.059-4.583-2.196-13.605-8.342-12.28-15.812 0 0-4.219-7.549 2.608-12.166 0 0 .55-12.347 15.053-12.376Z"/>
  <path fill="#FFC727" d="M355.676 215.534s6.242-2.086 9.265.985c3.023 3.071 7.236 9.999 6.873 12.405-.362 2.406-1.253 3.312-1.253 3.312s.134 7.013-3.651 11.441c-3.785 4.428-11.852 4.849-15.405 3.147-3.553-1.703-10.549-6.469-9.522-12.261 0 0-3.271-5.853 2.023-9.433 0 0 .424-9.573 11.67-9.596Z" opacity=".1"/>
  <path fill="#FFC727" d="M355.901 216.075s3.682-1.231 5.466.581c1.783 1.811 4.268 5.898 4.054 7.318-.213 1.419-.739 1.953-.739 1.953s.08 4.138-2.154 6.75c-2.233 2.611-6.992 2.86-9.089 1.856-2.096-1.004-6.223-3.816-5.618-7.232 0 0-1.929-3.453 1.194-5.566 0 0 .251-5.647 6.886-5.66Z" opacity=".3"/>
  <path fill="#FFC727" d="M280.107 314.072c10.436 20.712 31.509 20.639 43.103 20.98 11.589.342 32.607 1.65 44.241-18.414 0 0-16.758 6.846-43.878 6.05-27.139-.799-43.466-8.616-43.466-8.616Z"/>
  <path fill="#FFC727" d="M229.061 312.572s6.608 33.72 32.79 48.842c26.2 15.149 44.748 15.142 60.126 15.593 15.377.452 33.893 1.547 60.937-12.036 27.025-13.56 35.582-46.833 35.582-46.833l-51.045-1.501s-8.422 12.365-44.033 11.317c-35.611-1.046-43.311-13.884-43.311-13.884l-51.046-1.498Z"/>
  <path fill="#fff" d="M229.061 312.572s6.608 33.72 32.79 48.842c26.2 15.149 44.748 15.142 60.126 15.593 15.377.452 33.893 1.547 60.937-12.036 27.025-13.56 35.582-46.833 35.582-46.833l-51.045-1.501s-8.422 12.365-44.033 11.317c-35.611-1.046-43.311-13.884-43.311-13.884l-51.046-1.498Z" opacity=".4"/>
  <path fill="#455A64" d="M229.061 312.572s6.608 33.72 32.79 48.842c26.2 15.149 44.749 15.137 60.126 15.589 15.376.451 33.893 1.552 60.937-12.031 27.025-13.56 35.582-46.833 35.582-46.833l-3.117-.092c-3.537 10.257-13.27 32.7-33.415 43.411-26.602 14.153-44.792 13.038-59.9 12.595-15.109-.445-33.334-.399-59.058-16.09-19.482-11.877-27.88-34.854-30.827-45.299l-3.118-.092Z"/>
  <path fill="#FFC727" d="M262.664 363.746c15.77 17.007 35.997 11.093 47.23 8.206 11.23-2.886 31.786-7.457 37.401-29.96 0 0-14.203 11.224-40.48 17.978-26.295 6.761-44.151 3.776-44.151 3.776Z"/>
  <path fill="#FFC727" d="M213.205 376.459s15.699 30.565 45.048 37.835c29.374 7.289 47.192 2.141 62.091-1.689 14.9-3.83 32.993-7.91 55.211-28.461 22.204-20.522 21.2-54.864 21.2-54.864l-49.459 12.713s-4.663 14.214-39.168 23.084c-34.505 8.869-45.463-1.33-45.463-1.33l-49.46 12.712Z"/>
  <path fill="#fff" d="M213.205 376.459s15.699 30.565 45.048 37.835c29.374 7.289 47.192 2.141 62.091-1.689 14.9-3.83 32.993-7.91 55.211-28.461 22.204-20.522 21.2-54.864 21.2-54.864l-49.459 12.713s-4.663 14.214-39.168 23.084c-34.505 8.869-45.463-1.33-45.463-1.33l-49.46 12.712Z" opacity=".6"/>
  <path fill="#455A64" d="M213.205 376.459s15.699 30.565 45.048 37.835c29.374 7.289 47.191 2.135 62.091-1.694 14.899-3.829 32.994-7.905 55.211-28.456 22.204-20.522 21.2-54.864 21.2-54.864l-3.02.776c-.554 10.834-3.682 35.097-20.067 50.975-21.634 20.975-39.42 24.946-54.059 28.709-14.64 3.762-32.137 8.86-61.203.917-22.011-6.009-36.45-25.756-42.18-34.975l-3.021.777Z"/>
  <path fill="#263238" d="M236.71 279.502c10.119-7.499 32.406 13.384 17.526 25.306-14.143 11.333-30.366-15.791-17.526-25.306Z"/>
  <path fill="#fff" d="M234.878 284.796c3.172-1.833 8.922 4.94 4.228 7.892-4.463 2.807-8.253-5.568-4.228-7.892Z" opacity=".1"/>
  <path fill="#000" d="M254.238 304.815c-2.798 2.227-5.638 2.973-8.345 2.631 4.943-.668 8.671-6.768 8.934-12.41.311-6.643-6.721-16.312-15.824-16.71 10.774-3.444 29.056 15.377 15.235 26.489Z" opacity=".2"/>
  <path fill="#000" d="M253.501 303.441c-2.337 2.363-5.295 3.226-6.606 1.929-1.312-1.297-.481-4.264 1.855-6.627 2.337-2.363 5.295-3.226 6.606-1.929 1.312 1.297.481 4.264-1.855 6.627Z" opacity=".2"/>
  <path fill="#263238" d="M204.714 93.264c7.52 10.104-13.318 32.434-25.27 17.579-11.362-14.12 15.729-30.399 25.27-17.579Z"/>
  <path fill="#fff" d="M199.416 91.444c1.839 3.168-4.922 8.931-7.884 4.243-2.815-4.456 5.552-8.263 7.884-4.243Z" opacity=".1"/>
  <path fill="#000" d="M179.436 110.844c-2.233-2.793-2.983-5.631-2.648-8.34.678 4.943 6.786 8.657 12.429 8.91 6.643.297 16.298-6.754 16.677-15.858 3.465 10.768-15.318 29.088-26.458 15.288Z" opacity=".2"/>
  <path fill="#000" d="M180.808 110.102c-2.367-2.331-3.238-5.287-1.943-6.601 1.294-1.315 4.263-.489 6.63 1.843 2.367 2.331 3.238 5.287 1.943 6.601-1.293 1.315-4.262.489-6.63-1.843Z" opacity=".2"/>
  <path fill="#263238" d="M367.655 306.306c4.08 13.028-25.229 28.42-32.144 8.946-6.572-18.511 26.969-25.475 32.144-8.946Z"/>
  <path fill="#fff" d="M350.883 299.887c1.023 1.778-2.753 6.201-4.402 3.597-1.567-2.475 3.103-5.854 4.402-3.597Z" opacity=".1"/>
  <path fill="#000" d="M335.504 315.251c-1.286-3.657-1.038-6.829.273-9.48-1.073 5.3 3.847 11.285 9.53 13.562 6.69 2.68 19.091-1.08 22.736-10.259-.305 12.256-26.077 24.281-32.539 6.177Z" opacity=".2"/>
  <path fill="#000" d="M344.187 312.201c.858 3.451-.121 6.666-2.188 7.18-2.067.514-4.438-1.866-5.297-5.319-.858-3.451.121-6.666 2.188-7.18 2.066-.514 4.438 1.867 5.297 5.319Z" opacity=".2"/>
  <path fill="#263238" d="M166.875 125.632c-3.051 9.53-27.113 6.391-23.041-8.2 3.87-13.87 26.914-3.892 23.041 8.2Z"/>
  <path fill="#fff" d="M159.531 114.707c-.137 1.498-4.267 2.556-4.157.298.105-2.145 4.331-2.199 4.157-.298Z" opacity=".1"/>
  <path fill="#000" d="M143.829 117.428c.773-2.734 2.26-4.532 4.164-5.567-2.879 2.724-2.456 8.388-.009 12.15 2.879 4.429 11.899 7.408 17.956 3.443-5.354 7.218-25.876 3.552-22.111-10.026Z" opacity=".2"/>
  <path fill="#000" d="M150.322 119.263c-.942 2.431-2.886 3.945-4.342 3.38-1.455-.565-1.872-2.992-.931-5.423.942-2.431 2.886-3.945 4.342-3.38 1.456.564 1.872 2.992.931 5.423Z" opacity=".2"/>
  <path fill="#263238" d="M242.705 249.196c10.737 8.431-4.711 37.709-21.434 25.57-15.897-11.539 7.81-36.266 21.434-25.57Z"/>
  <path fill="#fff" d="M236.647 248.797c2.823 2.792-2.608 10.741-7.04 6.68-4.212-3.859 3.456-10.221 7.04-6.68ZM225.244 253.398c1.851.888 1.241 6.67-1.593 5.457-2.694-1.153-.756-6.583 1.593-5.457Z" opacity=".1"/>
  <path fill="#000" d="M221.264 274.77c-3.13-2.287-4.721-5.041-5.141-7.97 2.116 4.977 9.559 7.126 15.533 5.786 7.032-1.577 15.126-11.697 12.936-21.327 6.684 10.276-7.754 34.776-23.328 23.511Z" opacity=".2"/>
  <path fill="#263238" d="M89.65 241.545c9.69 8.045-5.294 34.659-20.412 23.042-14.371-11.043 8.117-33.25 20.412-23.042Z"/>
  <path fill="#fff" d="M84.073 241.025c2.535 2.645-2.677 9.84-6.66 5.983-3.788-3.666 3.444-9.34 6.66-5.983Z" opacity=".1"/>
  <path fill="#000" d="M69.231 264.591c-2.829-2.188-4.227-4.769-4.54-7.48 1.826 4.644 8.637 6.813 14.179 5.727 6.526-1.277 14.246-10.406 12.468-19.343 5.907 9.645-8.027 31.879-22.107 21.096Z" opacity=".2"/>
  <path fill="#263238" d="M361.19 172.739c9.689 8.045-5.295 34.66-20.413 23.043-14.371-11.043 8.118-33.252 20.413-23.043Z"/>
  <path fill="#fff" d="M355.613 172.218c2.534 2.645-2.677 9.84-6.662 5.983-3.786-3.665 3.446-9.34 6.662-5.983Z" opacity=".1"/>
  <path fill="#000" d="M340.77 195.784c-2.829-2.188-4.227-4.769-4.54-7.48 1.826 4.644 8.637 6.813 14.179 5.728 6.526-1.278 14.246-10.407 12.468-19.344 5.907 9.646-8.027 31.879-22.107 21.096Z" opacity=".2"/>
  <path fill="#FFC727" d="M176.185 185.487c2.649 10.874-6.422 20.613-16.294 18.546l4.309 13.765s-3.698 2.977-10.7 4.714c-6.877 2.183-11.587 1.579-11.587 1.579l-3.527-13.986c-7.331 6.925-20.157 3.37-23.587-7.283-3.43-10.649-3.45-32.398 21.959-39.594 25.421-7.158 36.779 11.389 39.427 22.259Z"/>
  <path fill="#fff" d="M176.185 185.487c2.649 10.874-6.422 20.613-16.294 18.546l4.309 13.765s-3.698 2.977-10.7 4.714c-6.877 2.183-11.587 1.579-11.587 1.579l-3.527-13.986c-7.331 6.925-20.157 3.37-23.587-7.283-3.43-10.649-3.45-32.398 21.959-39.594 25.421-7.158 36.779 11.389 39.427 22.259Z" opacity=".7"/>
  <path fill="#fff" d="M172.76 183.969c2.443 10.028-5.922 19.007-15.024 17.101l3.974 12.694s-3.409 2.745-9.866 4.347c-6.341 2.013-10.684 1.455-10.684 1.455l-3.252-12.897c-6.761 6.386-18.587 3.108-21.75-6.715-3.163-9.82-3.181-29.875 20.248-36.51 23.439-6.6 33.914 10.501 36.354 20.525Z" opacity=".3"/>
  <path fill="#000" d="M138.388 210.105s-.154-14.756-5.67-15.095c-5.728-.353-9.802 6.432-5.822 11.776 3.853 5.173 11.492 3.319 11.492 3.319ZM159.904 204.028s-7.589-12.656-3.063-15.831c4.698-3.297 11.717.355 11.121 6.991-.579 6.427-8.058 8.84-8.058 8.84Z" opacity=".2"/>
  <path fill="#fff" d="M125.37 171.314c-4.514-.246-10.492 15.252-7.714 17.669 2.777 2.416 7.307-2.044 8.161-4.981.853-2.936 1.749-12.567-.447-12.688Z" opacity=".3"/>
  <path fill="#FFC727" d="M130.538 182.745c-8.587 7.178-21.33 3.34-23.834-6.429l-10.447 9.945s-4.305-2.003-8.956-7.519c-4.995-5.206-6.532-9.698-6.532-9.698l10.992-9.341c-9.451-3.521-11.925-16.597-3.88-24.38 8.04-7.78 27.545-17.4 45.221 2.219 17.645 19.648 6.02 38.028-2.564 45.203Z"/>
  <path fill="#fff" d="M130.538 182.745c-8.587 7.178-21.33 3.34-23.834-6.429l-10.447 9.945s-4.305-2.003-8.956-7.519c-4.995-5.206-6.532-9.698-6.532-9.698l10.992-9.341c-9.451-3.521-11.925-16.597-3.88-24.38 8.04-7.78 27.545-17.4 45.221 2.219 17.645 19.648 6.02 38.028-2.564 45.203Z" opacity=".7"/>
  <path fill="#fff" d="M130.389 179.003c-7.919 6.619-19.669 3.079-21.978-5.93l-9.635 9.17s-3.968-1.846-8.257-6.933c-4.606-4.801-6.023-8.943-6.023-8.943l10.135-8.614c-8.716-3.246-10.995-15.305-3.579-22.48 7.415-7.174 25.399-16.045 41.699 2.047 16.272 18.118 5.553 35.066-2.362 41.683Z" opacity=".3"/>
  <path fill="#000" d="M91.76 159.703s13.173-6.653 11.04-11.753c-2.212-5.296-10.099-5.955-13.136-.024-2.94 5.741 2.096 11.777 2.096 11.777ZM106.712 176.324s8.005-12.397 12.852-9.739c5.033 2.76 4.856 10.671-1.362 13.066-6.02 2.319-11.49-3.327-11.49-3.327Z" opacity=".2"/>
  <path fill="#fff" d="M120.816 130.895c-1.772-4.16-18.317-2.68-19.26.88-.942 3.559 5.061 5.653 8.073 5.123 3.013-.531 12.049-3.98 11.187-6.003Z" opacity=".3"/>
  <path fill="#FFC727" d="M221.776 142.692c.854 10.28-8.799 17.846-17.49 14.551l1.952 13.15s-3.792 2.181-10.417 2.76c-6.574 1.002-10.774-.222-10.774-.222l-1.208-13.238c-7.667 5.254-18.833.181-20.432-10.009-1.597-10.186 1.499-29.988 25.662-32.902 24.167-2.877 31.853 15.634 32.707 25.91Z"/>
  <path fill="#fff" d="M221.776 142.692c.854 10.28-8.799 17.846-17.49 14.551l1.952 13.15s-3.792 2.181-10.417 2.76c-6.574 1.002-10.774-.222-10.774-.222l-1.208-13.238c-7.667 5.254-18.833.181-20.432-10.009-1.597-10.186 1.499-29.988 25.662-32.902 24.167-2.877 31.853 15.634 32.707 25.91Z" opacity=".6"/>
  <path fill="#fff" d="M218.876 140.819c.787 9.479-8.113 16.457-16.127 13.418l1.8 12.125s-3.497 2.011-9.605 2.545c-6.062.924-9.935-.205-9.935-.205l-1.114-12.207c-7.07 4.845-17.367.168-18.841-9.228-1.473-9.394 1.383-27.653 23.663-30.34 22.285-2.651 29.371 14.417 30.159 23.892Z" opacity=".3"/>
  <path fill="#000" d="M183.84 159.693s1.973-13.457-3.001-14.556c-5.165-1.141-9.844 4.453-6.986 9.888 2.767 5.262 9.987 4.668 9.987 4.668ZM204.299 157.242s-5.097-12.609-.523-14.852c4.75-2.329 10.618 2.001 9.124 7.958-1.446 5.767-8.601 6.894-8.601 6.894Z" opacity=".2"/>
  <path fill="#fff" d="M177.543 122.514c-4.074-.871-11.737 12.383-9.554 14.981 2.183 2.598 6.945-.814 8.143-3.366 1.199-2.551 3.393-11.191 1.411-11.615Z" opacity=".3"/>
  <path fill="#FFC727" d="M148.985 44.278c6.556 7.964 2.93 19.68-6.092 21.92l9.092 9.698s-1.875 3.953-6.991 8.2c-4.833 4.567-8.984 5.953-8.984 5.953l-8.531-10.194c-3.31 8.685-15.378 10.873-22.495 3.406-7.113-7.464-15.843-25.505 2.361-41.66 18.231-16.126 35.088-5.285 41.64 2.677Z"/>
  <path fill="#fff" d="M148.985 44.278c6.556 7.964 2.93 19.68-6.092 21.92l9.092 9.698s-1.875 3.953-6.991 8.2c-4.833 4.567-8.984 5.953-8.984 5.953l-8.531-10.194c-3.31 8.685-15.378 10.873-22.495 3.406-7.113-7.464-15.843-25.505 2.361-41.66 18.231-16.126 35.088-5.285 41.64 2.677Z" opacity=".6"/>
  <path fill="#fff" d="M145.536 44.39c6.045 7.343 2.701 18.147-5.618 20.212l8.384 8.943s-1.73 3.645-6.447 7.561c-4.456 4.212-8.284 5.49-8.284 5.49l-7.866-9.401c-3.053 8.009-14.181 10.027-20.742 3.14-6.56-6.883-14.61-23.52 2.177-38.415 16.809-14.868 32.354-4.872 38.396 2.47Z" opacity=".3"/>
  <path fill="#000" d="M127.479 79.853s-6.039-12.185-10.754-10.256c-4.896 2.002-5.557 9.265-.114 12.106 5.273 2.75 10.868-1.85 10.868-1.85ZM142.903 66.19s-11.369-7.464-8.886-11.912c2.578-4.618 9.868-4.401 12.032 1.347 2.094 5.564-3.146 10.565-3.146 10.565Z" opacity=".2"/>
  <path fill="#fff" d="M101.133 52.876c-3.845 1.604-2.597 16.862.677 17.755 3.274.893 5.246-4.624 4.778-7.404-.469-2.78-3.584-11.131-5.455-10.35Z" opacity=".3"/>
</svg>
