<svg viewBox="0 0 318 114">
        <path
          class="fill-current text-dark"
          d="M206.81 20.36V27.92H212.95V90.97H289.94V27.68H295.14V20.36H206.81ZM284.45 81.58H219.09V39.25C219.09 39.25 247.61 24.9 284.45 39.25V81.58ZM212.8 112.22H217.29L221.78 95.34H212.8V112.22ZM286.25 112.22H290.73V95.34H281.76L286.25 112.22Z"
          fill="currentColor"></path>
        <path
          class="fill-current text-[#f3f3f3]"
          d="M219.09 39.25V81.58H284.45V39.25C247.61 24.9 219.09 39.25 219.09 39.25ZM264.02 64.9C264.02 64.9 270.93 68.89 274.38 57.82C274.38 57.82 278.54 71.46 271.9 76.86H229.84C229.84 76.86 226.77 69.54 228.31 61.63C228.31 61.63 232.92 66.47 235.28 66.83C235.28 66.83 234.1 56.79 240.12 50.18C240.12 50.18 244.55 59.95 247.82 61.01C251.1 62.07 252.6 43.03 252.6 43.03C252.6 43.03 264.28 49.58 264.02 64.9Z"
          fill="currentColor"></path>
        <path
          class="fill-current text-primary-accent-light"
          d="M247.81 61.01C244.53 59.95 240.11 50.18 240.11 50.18C234.09 56.79 235.27 66.83 235.27 66.83C232.91 66.48 228.3 61.63 228.3 61.63C226.77 69.54 229.83 76.86 229.83 76.86H271.89C278.53 71.46 274.37 57.82 274.37 57.82C270.92 68.89 264.01 64.9 264.01 64.9C264.28 49.58 252.59 43.03 252.59 43.03C252.59 43.03 251.09 62.07 247.81 61.01Z"
          fill="currentColor"></path>
        <path
          class="fill-current text-dark"
          d="M253.35 0.740013C263.46 0.740013 273.56 0.740011 283.67 0.730011C284.94 0.730011 286.11 0.810011 286.56 2.32001C286.71 2.83001 287.2 2.57001 287.52 2.57001C296.41 2.58001 305.31 2.58001 314.2 2.59001C314.67 2.59001 315.15 2.61001 315.6 2.71001C316.45 2.89001 317.06 3.70001 317.05 4.53001C317.04 4.96985 316.876 5.3923 316.588 5.72453C316.299 6.05677 315.904 6.27797 315.47 6.35001C315.04 6.42001 314.6 6.42001 314.16 6.42001C305.17 6.42001 296.17 6.43001 287.18 6.40001C286.4 6.40001 286.14 6.64001 285.91 7.38001C284.45 12.06 281.31 15.25 276.9 17.27C276.46 17.47 275.99 17.48 275.51 17.48C260.72 17.48 245.93 17.47 231.14 17.49C229.43 17.49 228.14 16.55 226.86 15.66C222.55 12.66 220.22 8.53001 220.06 3.25001C220 1.47001 220.71 0.740013 222.52 0.740013C227.24 0.730013 231.95 0.740013 236.67 0.740013H253.35Z"
          fill="currentColor"></path>
        <path
          class="fill-current text-dark"
          d="M14.97 62.84C11.2 60.84 8.25998 58.1 6.14998 54.62C4.02998 51.14 2.97998 47.23 2.97998 42.88C2.97998 38.54 4.03998 34.63 6.14998 31.14C8.26998 27.66 11.21 24.92 14.97 22.92C18.73 20.92 22.93 19.92 27.57 19.92C32.2 19.92 36.38 20.91 40.1 22.89C43.82 24.87 46.75 27.61 48.89 31.11C51.03 34.61 52.1 38.54 52.1 42.88C52.1 47.22 51.03 51.14 48.89 54.65C46.75 58.15 43.82 60.9 40.1 62.87C36.38 64.85 32.2 65.84 27.57 65.84C22.93 65.83 18.74 64.84 14.97 62.84ZM37.59 59.16C40.57 57.55 42.91 55.31 44.61 52.45C46.3 49.59 47.15 46.4 47.15 42.87C47.15 39.35 46.3 36.15 44.61 33.29C42.92 30.43 40.58 28.2 37.59 26.58C34.6 24.97 31.26 24.16 27.57 24.16C23.87 24.16 20.52 24.97 17.51 26.58C14.5 28.19 12.14 30.43 10.43 33.29C8.70998 36.15 7.85998 39.34 7.85998 42.87C7.85998 46.4 8.71998 49.59 10.43 52.45C12.14 55.31 14.51 57.54 17.51 59.16C20.52 60.77 23.87 61.58 27.57 61.58C31.27 61.58 34.61 60.77 37.59 59.16ZM94.73 24.44C98.11 27.19 99.81 30.97 99.81 35.79C99.81 40.6 98.12 44.38 94.73 47.11C91.34 49.84 86.67 51.2 80.7 51.2H68.14V65.45H63.19V20.31H80.7C86.67 20.31 91.35 21.69 94.73 24.44ZM91.19 44.07C93.64 42.11 94.87 39.35 94.87 35.78C94.87 32.13 93.64 29.32 91.19 27.36C88.74 25.4 85.2 24.43 80.56 24.43H68.13V47H80.56C85.2 47.01 88.74 46.03 91.19 44.07ZM143.58 61.32V65.45H110.5V20.31H142.58V24.44H115.45V40.5H139.64V44.56H115.45V61.32H143.58ZM194.31 20.31V65.45H190.23L160.16 28.82V65.45H155.21V20.31H159.29L189.43 56.94V20.31H194.31ZM7.79998 112.02C4.72998 111.29 2.19998 110.32 0.22998 109.09L4.47998 99.48C6.33998 100.56 8.42998 101.43 10.74 102.08C13.05 102.73 15.27 103.06 17.39 103.06C19.22 103.06 20.52 102.88 21.3 102.53C22.08 102.18 22.47 101.65 22.47 100.94C22.47 100.12 21.96 99.51 20.93 99.1C19.91 98.69 18.22 98.24 15.87 97.76C12.85 97.13 10.34 96.45 8.32998 95.72C6.31998 94.99 4.56998 93.8 3.07998 92.14C1.58998 90.48 0.849979 88.24 0.849979 85.41C0.849979 82.95 1.53998 80.72 2.91998 78.7C4.29998 76.69 6.35998 75.11 9.08998 73.95C11.83 72.8 15.15 72.22 19.06 72.22C21.74 72.22 24.38 72.51 26.97 73.09C29.56 73.67 31.84 74.51 33.81 75.63L29.84 85.18C26 83.24 22.37 82.27 18.94 82.27C15.55 82.27 13.86 83.09 13.86 84.73C13.86 85.51 14.36 86.1 15.37 86.49C16.38 86.88 18.03 87.3 20.34 87.75C23.32 88.31 25.83 88.95 27.88 89.68C29.93 90.41 31.71 91.59 33.22 93.23C34.73 94.87 35.48 97.1 35.48 99.93C35.48 102.39 34.79 104.61 33.41 106.61C32.03 108.6 29.97 110.19 27.24 111.36C24.5 112.53 21.18 113.12 17.27 113.12C14.03 113.11 10.87 112.75 7.79998 112.02ZM47.33 83.34H35.87V73.12H71.96V83.34H60.51V112.22H47.32V83.34H47.33ZM83.98 110.49C80.63 108.74 78 106.31 76.1 103.2C74.2 100.09 73.25 96.58 73.25 92.67C73.25 88.76 74.2 85.25 76.1 82.14C78 79.03 80.63 76.6 83.98 74.85C87.33 73.1 91.11 72.22 95.32 72.22C99.53 72.22 103.31 73.1 106.66 74.85C110.01 76.6 112.64 79.03 114.54 82.14C116.44 85.25 117.39 88.76 117.39 92.67C117.39 96.58 116.44 100.09 114.54 103.2C112.64 106.31 110.01 108.74 106.66 110.49C103.31 112.24 99.53 113.12 95.32 113.12C91.11 113.12 87.33 112.24 83.98 110.49ZM99.76 101.24C101.08 100.44 102.13 99.3 102.92 97.83C103.7 96.36 104.09 94.64 104.09 92.66C104.09 90.69 103.7 88.96 102.92 87.49C102.14 86.02 101.09 84.88 99.76 84.08C98.44 83.28 96.96 82.88 95.32 82.88C93.68 82.88 92.2 83.28 90.88 84.08C89.56 84.88 88.51 86.02 87.72 87.49C86.94 88.96 86.55 90.68 86.55 92.66C86.55 94.63 86.94 96.36 87.72 97.83C88.5 99.3 89.55 100.44 90.88 101.24C92.2 102.04 93.68 102.44 95.32 102.44C96.96 102.44 98.44 102.04 99.76 101.24ZM162.59 73.11L146.05 112.22H133.09L116.55 73.11H130.74L140.07 95.96L149.62 73.11H162.59ZM196.39 102.27V112.22H163.87V73.11H195.66V83.06H176.83V87.64H193.37V97.14H176.83V102.28H196.39V102.27Z"
          fill="currentColor"></path>
      </svg>