<svg width="512" height="205" viewBox="0 0 512 205" fill="none" xmlns="http://www.w3.org/2000/svg">
<rect width="512" height="205" rx="15" fill="#FFEDD5"/>
<path d="M211.618 74.0186V80.4051H216.764V133.668H281.283V80.2023H285.641V74.0186H211.618ZM276.674 125.735H221.909V89.9763C221.909 89.9763 245.81 77.8539 276.682 89.9763V125.735H276.674ZM216.638 151.619H220.401L224.155 137.359H216.638V151.619ZM278.183 151.619H281.945V137.359H274.428L278.183 151.619Z" fill="#242424"/>
<path d="M221.909 89.9763V125.735H276.683V89.9763C245.801 77.8539 221.909 89.9763 221.909 89.9763ZM259.553 111.645C259.553 111.645 265.344 115.015 268.235 105.664C268.235 105.664 271.721 117.186 266.157 121.748H230.91C230.91 121.748 228.337 115.564 229.627 108.882C229.627 108.882 233.491 112.971 235.468 113.275C235.468 113.275 234.48 104.794 239.524 99.2096C239.524 99.2096 243.237 107.463 245.977 108.358C248.726 109.254 249.983 93.1695 249.983 93.1695C249.983 93.1695 259.78 98.7028 259.553 111.645Z" fill="#F3F3F3"/>
<path d="M245.977 108.358C243.228 107.463 239.524 99.2097 239.524 99.2097C234.479 104.794 235.468 113.275 235.468 113.275C233.491 112.979 229.627 108.882 229.627 108.882C228.345 115.564 230.909 121.748 230.909 121.748H266.157C271.721 117.186 268.235 105.664 268.235 105.664C265.344 115.015 259.553 111.645 259.553 111.645C259.779 98.7028 249.983 93.1696 249.983 93.1696C249.983 93.1696 248.718 109.254 245.977 108.358Z" fill="#FFA500"/>
<path d="M250.611 57.4442C259.084 57.4442 267.548 57.4442 276.02 57.4358C277.085 57.4358 278.065 57.5034 278.442 58.779C278.568 59.2098 278.979 58.9902 279.247 58.9902C286.697 58.9986 294.155 58.9986 301.605 59.0071C301.999 59.0071 302.401 59.024 302.779 59.1084C303.491 59.2605 304.002 59.9448 303.994 60.6459C303.985 61.0175 303.848 61.3743 303.606 61.655C303.365 61.9357 303.033 62.1225 302.67 62.1834C302.309 62.2425 301.941 62.2425 301.572 62.2425C294.038 62.2425 286.496 62.251 278.962 62.2256C278.308 62.2256 278.09 62.4284 277.898 63.0535C276.674 67.007 274.043 69.7018 270.347 71.4083C269.978 71.5772 269.584 71.5857 269.182 71.5857C256.788 71.5857 244.393 71.5772 231.999 71.5941C230.566 71.5941 229.485 70.8 228.412 70.0482C224.8 67.5139 222.848 64.025 222.714 59.5646C222.663 58.0609 223.258 57.4442 224.775 57.4442C228.731 57.4358 232.678 57.4442 236.633 57.4442H250.611Z" fill="#242424"/>
<path d="M68.0645 123.818C65.4163 122.348 63.3548 120.337 61.8715 117.786C60.3882 115.235 59.6423 112.363 59.6423 109.178C59.6423 105.993 60.3882 103.121 61.8715 100.57C63.3548 98.0185 65.4247 96.008 68.0645 94.5381C70.7043 93.0682 73.6541 92.3417 76.914 92.3417C80.1656 92.3417 83.0987 93.0682 85.7133 94.5212C88.3279 95.9742 90.3811 97.9847 91.8812 100.553C93.3812 103.121 94.1355 106.002 94.1355 109.186C94.1355 112.371 93.3812 115.252 91.8812 117.82C90.3811 120.388 88.3196 122.399 85.7133 123.852C83.0987 125.305 80.1656 126.031 76.914 126.031C73.6625 126.023 70.7127 125.288 68.0645 123.818ZM83.9535 121.123C86.0485 119.94 87.691 118.301 88.881 116.206C90.071 114.111 90.666 111.771 90.666 109.178C90.666 106.593 90.071 104.253 88.881 102.149C87.7202 100.084 86.0147 98.3818 83.9535 97.2329C81.8584 96.0502 79.5119 95.4589 76.914 95.4589C74.3162 95.4589 71.9613 96.0502 69.8495 97.2329C67.7377 98.4156 66.0784 100.054 64.8716 102.149C63.6649 104.244 63.0615 106.584 63.0615 109.178C63.0615 111.763 63.6649 114.103 64.8716 116.206C66.0784 118.301 67.7377 119.94 69.8495 121.123C71.9613 122.306 74.3162 122.897 76.914 122.897C79.5119 122.897 81.8584 122.306 83.9535 121.123ZM124.078 95.6447C126.458 97.6637 127.648 100.443 127.648 103.974C127.648 107.505 126.458 110.276 124.078 112.278C121.698 114.28 118.413 115.286 114.223 115.286H105.399V125.744H101.929V92.6289H114.223C118.413 92.6205 121.698 93.6342 124.078 95.6447ZM121.589 110.056C123.307 108.62 124.17 106.593 124.17 103.974C124.17 101.296 123.307 99.235 121.589 97.7989C119.871 96.3628 117.382 95.6447 114.131 95.6447H105.399V112.202H114.131C117.382 112.202 119.871 111.493 121.589 110.056ZM158.378 122.711V125.735H135.148V92.6205H157.675V95.6447H138.618V107.421H155.605V110.403H138.618V122.703H158.378V122.711ZM194.003 92.6205V125.735H191.137L170.019 98.8633V125.735H166.549V92.6205H169.415L190.584 119.493V92.6205H194.003ZM309.164 124.84C306.927 124.054 305.201 123.007 303.977 121.714L305.335 119.019C306.525 120.219 308.1 121.191 310.078 121.925C312.047 122.669 314.084 123.041 316.179 123.041C319.12 123.041 321.324 122.5 322.799 121.41C324.274 120.32 325.003 118.91 325.003 117.178C325.003 115.852 324.601 114.796 323.805 114.01C323.009 113.224 322.028 112.616 320.872 112.185C319.715 111.763 318.106 111.298 316.036 110.791C313.564 110.158 311.595 109.558 310.12 108.967C308.645 108.384 307.388 107.488 306.34 106.297C305.293 105.098 304.765 103.476 304.765 101.423C304.765 99.7503 305.201 98.2297 306.08 96.8612C306.952 95.4927 308.301 94.3945 310.12 93.575C311.938 92.7556 314.184 92.3417 316.883 92.3417C318.76 92.3417 320.595 92.6036 322.397 93.1189C324.199 93.6426 325.749 94.3607 327.065 95.273L325.891 98.0608C324.517 97.1484 323.042 96.4641 321.475 95.9995C319.908 95.5433 318.374 95.3153 316.874 95.3153C313.991 95.3153 311.829 95.8728 310.371 96.9964C308.913 98.1199 308.192 99.556 308.192 101.33C308.192 102.656 308.595 103.721 309.391 104.523C310.187 105.326 311.192 105.942 312.391 106.365C313.598 106.787 315.215 107.26 317.251 107.759C319.656 108.358 321.609 108.95 323.092 109.533C324.576 110.116 325.841 111.003 326.872 112.185C327.903 113.368 328.422 114.973 328.422 116.992C328.422 118.665 327.978 120.185 327.081 121.554C326.185 122.922 324.819 124.012 322.975 124.823C321.131 125.626 318.86 126.031 316.17 126.031C313.74 126.023 311.394 125.626 309.164 124.84ZM341.898 95.6447H330.35V92.6205H356.915V95.6447H345.367V125.735H341.898V95.6447ZM367.499 123.818C364.851 122.348 362.79 120.337 361.306 117.786C359.823 115.235 359.077 112.363 359.077 109.178C359.077 105.993 359.823 103.121 361.306 100.57C362.79 98.0185 364.86 96.008 367.499 94.5381C370.139 93.0682 373.089 92.3417 376.349 92.3417C379.609 92.3417 382.534 93.0682 385.148 94.5212C387.763 95.9742 389.816 97.9847 391.324 100.553C392.824 103.121 393.579 106.002 393.579 109.186C393.579 112.371 392.824 115.252 391.324 117.82C389.824 120.388 387.763 122.399 385.148 123.852C382.534 125.305 379.6 126.031 376.349 126.031C373.097 126.031 370.147 125.288 367.499 123.818ZM383.388 121.123C385.483 119.94 387.126 118.301 388.316 116.198C389.506 114.103 390.101 111.763 390.101 109.169C390.101 106.584 389.506 104.244 388.316 102.141C387.155 100.075 385.45 98.3734 383.388 97.2244C381.293 96.0418 378.947 95.4504 376.349 95.4504C373.751 95.4504 371.396 96.0418 369.284 97.2244C367.173 98.4071 365.513 100.046 364.306 102.141C363.1 104.236 362.496 106.584 362.496 109.169C362.496 111.754 363.1 114.094 364.306 116.198C365.513 118.293 367.173 119.932 369.284 121.123C371.396 122.314 373.751 122.897 376.349 122.897C378.947 122.897 381.293 122.306 383.388 121.123ZM427.703 92.612L413.147 125.735H409.719L395.171 92.612H398.925L411.504 121.376L424.175 92.612H427.703ZM455.676 122.711V125.735H432.446V92.612H454.972V95.6363H435.916V107.421H452.911V110.403H435.916V122.703H455.676V122.711Z" fill="#242424"/>
</svg>
