<svg xmlns="http://www.w3.org/2000/svg" width="512" height="512" fill="none">
  <rect width="512" height="512" fill="#FFEDD5" rx="80"/>
  <path fill="#242424" d="M96 124.413v27.503h22.279v229.372h279.353V151.043H416.5v-26.63H96Zm281.712 222.715H140.557V193.134s103.484-52.205 237.155 0v153.994ZM117.734 458.594h16.292l16.292-61.408h-32.584v61.408Zm266.51 0h16.255v-61.408h-32.547l16.292 61.408Z"/>
  <path fill="#F3F3F3" d="M140.557 193.134v153.994h237.155V193.134c-133.671-52.205-237.155 0-237.155 0Zm163.026 93.313s25.073 14.515 37.591-25.757c0 0 15.094 49.622-8.999 69.267H179.563s-11.139-26.63-5.551-55.406c0 0 16.727 17.607 25.29 18.917 0 0-4.282-36.525 17.562-60.572 0 0 16.074 35.543 27.939 39.399 11.901 3.856 17.344-65.41 17.344-65.41s42.38 23.828 41.436 79.562Z"/>
  <path fill="orange" d="M244.766 272.295c-11.901-3.856-27.939-39.399-27.939-39.399-21.843 24.047-17.562 60.572-17.562 60.572-8.563-1.273-25.29-18.917-25.29-18.917-5.551 28.776 5.552 55.406 5.552 55.406h152.612c24.093-19.645 8.999-69.267 8.999-69.267-12.519 40.272-37.591 25.757-37.591 25.757.98-55.733-41.437-79.562-41.437-79.562s-5.443 69.266-17.344 65.41Z"/>
  <path fill="#242424" d="M253.804 53.036c36.683 0 73.33 0 110.014-.036 4.608 0 8.853.291 10.486 5.784.544 1.856 2.322.91 3.483.91 32.257.036 64.551.036 96.807.073 1.706 0 3.447.072 5.08.436 3.084.655 5.298 3.602 5.261 6.621a6.88 6.88 0 0 1-1.677 4.346 6.852 6.852 0 0 1-4.056 2.275c-1.56.255-3.156.255-4.753.255-32.62 0-65.276.036-97.895-.073-2.83 0-3.774.873-4.608 3.565-5.298 17.026-16.691 28.631-32.693 35.98-1.596.727-3.301.764-5.043.764-53.665 0-107.329-.037-160.994.036-6.205 0-10.886-3.42-15.53-6.657-15.639-10.914-24.093-25.939-24.673-45.147-.218-6.476 2.358-9.132 8.926-9.132 17.126-.036 34.216 0 51.342 0h60.523Z"/>
</svg>
