<svg width="512" height="512" viewBox="0 0 512 512" fill="none" xmlns="http://www.w3.org/2000/svg">
<rect width="512" height="512" rx="256" fill="#FFEDD5"/>
<path d="M93 149.201V171.616H111.157V358.555H338.83V170.905H354.208V149.201H93ZM322.596 330.714H129.314V205.209C129.314 205.209 213.653 162.662 322.596 205.209V330.714ZM110.713 421.559H123.991L137.269 371.511H110.713V421.559ZM327.918 421.559H341.167V371.511H314.641L327.918 421.559Z" fill="#242424"/>
<path d="M129.314 205.209V330.714H322.596V205.209C213.653 162.662 129.314 205.209 129.314 205.209ZM262.18 281.259C262.18 281.259 282.615 293.089 292.817 260.267C292.817 260.267 305.119 300.709 285.483 316.72H161.104C161.104 316.72 152.025 295.016 156.579 271.564C156.579 271.564 170.212 285.914 177.191 286.981C177.191 286.981 173.702 257.214 191.504 237.615C191.504 237.615 204.604 266.583 214.274 269.726C223.974 272.868 228.409 216.416 228.409 216.416C228.409 216.416 262.949 235.836 262.18 281.259Z" fill="#F3F3F3"/>
<path d="M214.244 269.726C204.545 266.583 191.474 237.615 191.474 237.615C173.672 257.214 177.161 286.981 177.161 286.981C170.182 285.944 156.55 271.564 156.55 271.564C152.025 295.016 161.074 316.72 161.074 316.72H285.453C305.089 300.709 292.787 260.267 292.787 260.267C282.585 293.089 262.151 281.259 262.151 281.259C262.949 235.837 228.38 216.416 228.38 216.416C228.38 216.416 223.944 272.868 214.244 269.726Z" fill="#FFA500"/>
<path d="M230.627 91.0297C260.524 91.0297 290.392 91.0296 320.289 91C324.045 91 327.504 91.2372 328.835 95.7142C329.279 97.2263 330.728 96.4555 331.674 96.4555C357.963 96.4851 384.282 96.4851 410.572 96.5148C411.962 96.5148 413.381 96.5741 414.712 96.8705C417.225 97.4042 419.029 99.8058 419 102.267C418.969 103.571 418.486 104.823 417.633 105.808C416.78 106.793 415.611 107.449 414.327 107.663C413.056 107.87 411.755 107.87 410.453 107.87C383.868 107.87 357.254 107.9 330.669 107.811C328.362 107.811 327.593 108.523 326.913 110.717C322.596 124.593 313.31 134.051 300.269 140.04C298.968 140.633 297.578 140.662 296.158 140.662C252.422 140.662 208.685 140.633 164.948 140.692C159.891 140.692 156.077 137.905 152.291 135.266C139.546 126.372 132.656 114.126 132.183 98.4716C132.005 93.194 134.105 91.0297 139.457 91.0297C153.415 91 167.344 91.0297 181.301 91.0297H230.627Z" fill="#242424"/>
</svg>
